ISO-10303-21;
HEADER;
/* Generated by software containing ST-Developer
 * from STEP Tools, Inc. (www.steptools.com) 
 */

FILE_DESCRIPTION(
/* description */ (''),
/* implementation_level */ '2;1');

FILE_NAME(
/* name */ 'mold box top.step',
/* time_stamp */ '2026-07-17T20:27:57Z',
/* author */ (''),
/* organization */ (''),
/* preprocessor_version */ 'ST-DEVELOPER v20.1',
/* originating_system */ 'Autodesk Translation Framework v15.8.0.0',
/* authorisation */ '');

FILE_SCHEMA (('AUTOMOTIVE_DESIGN { 1 0 10303 214 3 1 1 }'));
ENDSEC;

DATA;
#10=MECHANICAL_DESIGN_GEOMETRIC_PRESENTATION_REPRESENTATION('',(#13),#1735);
#11=SHAPE_REPRESENTATION_RELATIONSHIP('SRR','None',#1742,#12);
#12=ADVANCED_BREP_SHAPE_REPRESENTATION('',(#14),#1734);
#13=STYLED_ITEM('',(#1751),#14);
#14=MANIFOLD_SOLID_BREP('Body1',#1003);
#15=FACE_BOUND('',#115,.T.);
#16=FACE_BOUND('',#121,.T.);
#17=PLANE('',#1020);
#18=PLANE('',#1026);
#19=PLANE('',#1032);
#20=PLANE('',#1038);
#21=PLANE('',#1041);
#22=PLANE('',#1042);
#23=PLANE('',#1043);
#24=PLANE('',#1044);
#25=PLANE('',#1045);
#26=PLANE('',#1046);
#27=PLANE('',#1063);
#28=PLANE('',#1064);
#29=PLANE('',#1065);
#30=PLANE('',#1066);
#31=PLANE('',#1067);
#32=PLANE('',#1068);
#33=PLANE('',#1069);
#34=PLANE('',#1070);
#35=PLANE('',#1071);
#36=PLANE('',#1072);
#37=PLANE('',#1074);
#38=PLANE('',#1076);
#39=PLANE('',#1078);
#40=PLANE('',#1080);
#41=PLANE('',#1083);
#42=PLANE('',#1085);
#43=PLANE('',#1087);
#44=PLANE('',#1090);
#45=PLANE('',#1092);
#46=PLANE('',#1094);
#47=PLANE('',#1097);
#48=PLANE('',#1099);
#49=FACE_OUTER_BOUND('',#101,.T.);
#50=FACE_OUTER_BOUND('',#102,.T.);
#51=FACE_OUTER_BOUND('',#103,.T.);
#52=FACE_OUTER_BOUND('',#104,.T.);
#53=FACE_OUTER_BOUND('',#105,.T.);
#54=FACE_OUTER_BOUND('',#106,.T.);
#55=FACE_OUTER_BOUND('',#107,.T.);
#56=FACE_OUTER_BOUND('',#108,.T.);
#57=FACE_OUTER_BOUND('',#109,.T.);
#58=FACE_OUTER_BOUND('',#110,.T.);
#59=FACE_OUTER_BOUND('',#111,.T.);
#60=FACE_OUTER_BOUND('',#112,.T.);
#61=FACE_OUTER_BOUND('',#113,.T.);
#62=FACE_OUTER_BOUND('',#114,.T.);
#63=FACE_OUTER_BOUND('',#116,.T.);
#64=FACE_OUTER_BOUND('',#117,.T.);
#65=FACE_OUTER_BOUND('',#118,.T.);
#66=FACE_OUTER_BOUND('',#119,.T.);
#67=FACE_OUTER_BOUND('',#120,.T.);
#68=FACE_OUTER_BOUND('',#122,.T.);
#69=FACE_OUTER_BOUND('',#123,.T.);
#70=FACE_OUTER_BOUND('',#124,.T.);
#71=FACE_OUTER_BOUND('',#125,.T.);
#72=FACE_OUTER_BOUND('',#126,.T.);
#73=FACE_OUTER_BOUND('',#127,.T.);
#74=FACE_OUTER_BOUND('',#128,.T.);
#75=FACE_OUTER_BOUND('',#129,.T.);
#76=FACE_OUTER_BOUND('',#130,.T.);
#77=FACE_OUTER_BOUND('',#131,.T.);
#78=FACE_OUTER_BOUND('',#132,.T.);
#79=FACE_OUTER_BOUND('',#133,.T.);
#80=FACE_OUTER_BOUND('',#134,.T.);
#81=FACE_OUTER_BOUND('',#135,.T.);
#82=FACE_OUTER_BOUND('',#136,.T.);
#83=FACE_OUTER_BOUND('',#137,.T.);
#84=FACE_OUTER_BOUND('',#138,.T.);
#85=FACE_OUTER_BOUND('',#139,.T.);
#86=FACE_OUTER_BOUND('',#140,.T.);
#87=FACE_OUTER_BOUND('',#141,.T.);
#88=FACE_OUTER_BOUND('',#142,.T.);
#89=FACE_OUTER_BOUND('',#143,.T.);
#90=FACE_OUTER_BOUND('',#144,.T.);
#91=FACE_OUTER_BOUND('',#145,.T.);
#92=FACE_OUTER_BOUND('',#146,.T.);
#93=FACE_OUTER_BOUND('',#147,.T.);
#94=FACE_OUTER_BOUND('',#148,.T.);
#95=FACE_OUTER_BOUND('',#149,.T.);
#96=FACE_OUTER_BOUND('',#150,.T.);
#97=FACE_OUTER_BOUND('',#151,.T.);
#98=FACE_OUTER_BOUND('',#152,.T.);
#99=FACE_OUTER_BOUND('',#153,.T.);
#100=FACE_OUTER_BOUND('',#154,.T.);
#101=EDGE_LOOP('',(#643,#644,#645,#646,#647,#648));
#102=EDGE_LOOP('',(#649,#650,#651,#652,#653,#654));
#103=EDGE_LOOP('',(#655,#656,#657,#658,#659,#660));
#104=EDGE_LOOP('',(#661,#662,#663,#664,#665,#666));
#105=EDGE_LOOP('',(#667,#668,#669,#670,#671,#672));
#106=EDGE_LOOP('',(#673,#674,#675,#676,#677,#678));
#107=EDGE_LOOP('',(#679,#680,#681,#682,#683,#684));
#108=EDGE_LOOP('',(#685,#686,#687,#688,#689,#690));
#109=EDGE_LOOP('',(#691,#692,#693,#694,#695,#696,#697,#698));
#110=EDGE_LOOP('',(#699,#700,#701,#702,#703,#704,#705,#706));
#111=EDGE_LOOP('',(#707,#708,#709,#710,#711,#712,#713,#714));
#112=EDGE_LOOP('',(#715,#716,#717,#718));
#113=EDGE_LOOP('',(#719,#720,#721,#722));
#114=EDGE_LOOP('',(#723,#724,#725,#726,#727,#728,#729,#730,#731,#732,#733,
#734,#735,#736,#737,#738,#739,#740,#741,#742,#743,#744,#745,#746,#747,#748,
#749,#750,#751,#752,#753,#754,#755,#756,#757,#758));
#115=EDGE_LOOP('',(#759,#760,#761,#762));
#116=EDGE_LOOP('',(#763,#764,#765,#766));
#117=EDGE_LOOP('',(#767,#768,#769,#770));
#118=EDGE_LOOP('',(#771,#772,#773,#774));
#119=EDGE_LOOP('',(#775,#776,#777,#778));
#120=EDGE_LOOP('',(#779,#780,#781,#782));
#121=EDGE_LOOP('',(#783,#784,#785,#786));
#122=EDGE_LOOP('',(#787,#788,#789,#790));
#123=EDGE_LOOP('',(#791,#792,#793,#794));
#124=EDGE_LOOP('',(#795,#796,#797,#798));
#125=EDGE_LOOP('',(#799,#800,#801,#802));
#126=EDGE_LOOP('',(#803,#804,#805,#806,#807));
#127=EDGE_LOOP('',(#808,#809,#810,#811));
#128=EDGE_LOOP('',(#812,#813,#814,#815,#816,#817,#818,#819));
#129=EDGE_LOOP('',(#820,#821,#822,#823));
#130=EDGE_LOOP('',(#824,#825,#826,#827,#828));
#131=EDGE_LOOP('',(#829,#830,#831,#832));
#132=EDGE_LOOP('',(#833,#834,#835,#836));
#133=EDGE_LOOP('',(#837,#838,#839,#840));
#134=EDGE_LOOP('',(#841,#842,#843,#844,#845));
#135=EDGE_LOOP('',(#846,#847,#848,#849));
#136=EDGE_LOOP('',(#850,#851,#852,#853));
#137=EDGE_LOOP('',(#854,#855,#856,#857,#858));
#138=EDGE_LOOP('',(#859,#860,#861,#862));
#139=EDGE_LOOP('',(#863,#864,#865,#866));
#140=EDGE_LOOP('',(#867,#868,#869,#870));
#141=EDGE_LOOP('',(#871,#872,#873,#874,#875));
#142=EDGE_LOOP('',(#876,#877,#878,#879));
#143=EDGE_LOOP('',(#880,#881,#882,#883));
#144=EDGE_LOOP('',(#884,#885,#886,#887,#888));
#145=EDGE_LOOP('',(#889,#890,#891,#892));
#146=EDGE_LOOP('',(#893,#894,#895,#896));
#147=EDGE_LOOP('',(#897,#898,#899,#900));
#148=EDGE_LOOP('',(#901,#902,#903,#904,#905));
#149=EDGE_LOOP('',(#906,#907,#908,#909));
#150=EDGE_LOOP('',(#910,#911,#912,#913));
#151=EDGE_LOOP('',(#914,#915,#916,#917,#918));
#152=EDGE_LOOP('',(#919,#920,#921,#922));
#153=EDGE_LOOP('',(#923,#924,#925,#926));
#154=EDGE_LOOP('',(#927,#928,#929,#930));
#155=CIRCLE('',#1018,0.5);
#156=CIRCLE('',#1019,0.5);
#157=CIRCLE('',#1021,0.999999999999998);
#158=CIRCLE('',#1022,0.999999999999998);
#159=CIRCLE('',#1024,0.5);
#160=CIRCLE('',#1025,0.5);
#161=CIRCLE('',#1027,1.);
#162=CIRCLE('',#1028,0.999999999999999);
#163=CIRCLE('',#1030,0.5);
#164=CIRCLE('',#1031,0.5);
#165=CIRCLE('',#1033,0.999999999999999);
#166=CIRCLE('',#1034,0.999999999999999);
#167=CIRCLE('',#1036,0.5);
#168=CIRCLE('',#1037,0.5);
#169=CIRCLE('',#1039,0.999999999999998);
#170=CIRCLE('',#1040,0.999999999999998);
#171=CIRCLE('',#1047,0.18);
#172=CIRCLE('',#1048,0.999999999999998);
#173=CIRCLE('',#1049,0.999999999999998);
#174=CIRCLE('',#1050,0.179999999999999);
#175=CIRCLE('',#1051,0.179999999999999);
#176=CIRCLE('',#1052,0.999999999999999);
#177=CIRCLE('',#1053,1.);
#178=CIRCLE('',#1054,0.179999999999999);
#179=CIRCLE('',#1055,0.18);
#180=CIRCLE('',#1056,0.999999999999998);
#181=CIRCLE('',#1057,0.999999999999998);
#182=CIRCLE('',#1058,0.179999999999999);
#183=CIRCLE('',#1059,0.179999999999999);
#184=CIRCLE('',#1060,0.999999999999999);
#185=CIRCLE('',#1061,0.999999999999999);
#186=CIRCLE('',#1062,0.179999999999999);
#187=LINE('',#1390,#291);
#188=LINE('',#1403,#292);
#189=LINE('',#1407,#293);
#190=LINE('',#1411,#294);
#191=LINE('',#1414,#295);
#192=LINE('',#1429,#296);
#193=LINE('',#1442,#297);
#194=LINE('',#1446,#298);
#195=LINE('',#1450,#299);
#196=LINE('',#1453,#300);
#197=LINE('',#1468,#301);
#198=LINE('',#1481,#302);
#199=LINE('',#1485,#303);
#200=LINE('',#1489,#304);
#201=LINE('',#1492,#305);
#202=LINE('',#1507,#306);
#203=LINE('',#1520,#307);
#204=LINE('',#1524,#308);
#205=LINE('',#1528,#309);
#206=LINE('',#1531,#310);
#207=LINE('',#1534,#311);
#208=LINE('',#1536,#312);
#209=LINE('',#1538,#313);
#210=LINE('',#1540,#314);
#211=LINE('',#1542,#315);
#212=LINE('',#1544,#316);
#213=LINE('',#1545,#317);
#214=LINE('',#1548,#318);
#215=LINE('',#1549,#319);
#216=LINE('',#1551,#320);
#217=LINE('',#1553,#321);
#218=LINE('',#1555,#322);
#219=LINE('',#1556,#323);
#220=LINE('',#1559,#324);
#221=LINE('',#1560,#325);
#222=LINE('',#1562,#326);
#223=LINE('',#1564,#327);
#224=LINE('',#1566,#328);
#225=LINE('',#1567,#329);
#226=LINE('',#1571,#330);
#227=LINE('',#1573,#331);
#228=LINE('',#1575,#332);
#229=LINE('',#1576,#333);
#230=LINE('',#1579,#334);
#231=LINE('',#1581,#335);
#232=LINE('',#1582,#336);
#233=LINE('',#1587,#337);
#234=LINE('',#1591,#338);
#235=LINE('',#1595,#339);
#236=LINE('',#1598,#340);
#237=LINE('',#1602,#341);
#238=LINE('',#1606,#342);
#239=LINE('',#1610,#343);
#240=LINE('',#1613,#344);
#241=LINE('',#1617,#345);
#242=LINE('',#1621,#346);
#243=LINE('',#1625,#347);
#244=LINE('',#1630,#348);
#245=LINE('',#1634,#349);
#246=LINE('',#1638,#350);
#247=LINE('',#1642,#351);
#248=LINE('',#1644,#352);
#249=LINE('',#1646,#353);
#250=LINE('',#1647,#354);
#251=LINE('',#1650,#355);
#252=LINE('',#1652,#356);
#253=LINE('',#1653,#357);
#254=LINE('',#1656,#358);
#255=LINE('',#1657,#359);
#256=LINE('',#1660,#360);
#257=LINE('',#1661,#361);
#258=LINE('',#1663,#362);
#259=LINE('',#1666,#363);
#260=LINE('',#1668,#364);
#261=LINE('',#1669,#365);
#262=LINE('',#1671,#366);
#263=LINE('',#1673,#367);
#264=LINE('',#1675,#368);
#265=LINE('',#1678,#369);
#266=LINE('',#1679,#370);
#267=LINE('',#1682,#371);
#268=LINE('',#1683,#372);
#269=LINE('',#1685,#373);
#270=LINE('',#1687,#374);
#271=LINE('',#1689,#375);
#272=LINE('',#1691,#376);
#273=LINE('',#1693,#377);
#274=LINE('',#1695,#378);
#275=LINE('',#1698,#379);
#276=LINE('',#1700,#380);
#277=LINE('',#1702,#381);
#278=LINE('',#1704,#382);
#279=LINE('',#1706,#383);
#280=LINE('',#1708,#384);
#281=LINE('',#1711,#385);
#282=LINE('',#1713,#386);
#283=LINE('',#1715,#387);
#284=LINE('',#1717,#388);
#285=LINE('',#1719,#389);
#286=LINE('',#1721,#390);
#287=LINE('',#1724,#391);
#288=LINE('',#1726,#392);
#289=LINE('',#1728,#393);
#290=LINE('',#1730,#394);
#291=VECTOR('',#1105,1.);
#292=VECTOR('',#1108,1.);
#293=VECTOR('',#1113,1.);
#294=VECTOR('',#1116,1.);
#295=VECTOR('',#1119,1.);
#296=VECTOR('',#1122,1.);
#297=VECTOR('',#1125,1.);
#298=VECTOR('',#1130,1.);
#299=VECTOR('',#1133,1.);
#300=VECTOR('',#1136,1.);
#301=VECTOR('',#1139,1.);
#302=VECTOR('',#1142,1.);
#303=VECTOR('',#1147,1.);
#304=VECTOR('',#1150,1.);
#305=VECTOR('',#1153,1.);
#306=VECTOR('',#1156,1.);
#307=VECTOR('',#1159,1.);
#308=VECTOR('',#1164,1.);
#309=VECTOR('',#1167,1.);
#310=VECTOR('',#1170,1.);
#311=VECTOR('',#1173,1.);
#312=VECTOR('',#1174,1.);
#313=VECTOR('',#1175,1.);
#314=VECTOR('',#1176,1.);
#315=VECTOR('',#1177,1.);
#316=VECTOR('',#1178,1.);
#317=VECTOR('',#1179,1.);
#318=VECTOR('',#1182,1.);
#319=VECTOR('',#1183,1.);
#320=VECTOR('',#1184,1.);
#321=VECTOR('',#1185,1.);
#322=VECTOR('',#1186,1.);
#323=VECTOR('',#1187,1.);
#324=VECTOR('',#1190,1.);
#325=VECTOR('',#1191,1.);
#326=VECTOR('',#1192,1.);
#327=VECTOR('',#1193,1.);
#328=VECTOR('',#1194,1.);
#329=VECTOR('',#1195,1.);
#330=VECTOR('',#1198,1.);
#331=VECTOR('',#1199,1.);
#332=VECTOR('',#1200,1.);
#333=VECTOR('',#1201,1.);
#334=VECTOR('',#1204,1.);
#335=VECTOR('',#1205,1.);
#336=VECTOR('',#1206,1.);
#337=VECTOR('',#1211,1.);
#338=VECTOR('',#1214,1.);
#339=VECTOR('',#1217,1.);
#340=VECTOR('',#1220,1.);
#341=VECTOR('',#1223,1.);
#342=VECTOR('',#1226,1.);
#343=VECTOR('',#1229,1.);
#344=VECTOR('',#1232,1.);
#345=VECTOR('',#1235,1.);
#346=VECTOR('',#1238,1.);
#347=VECTOR('',#1241,1.);
#348=VECTOR('',#1246,1.);
#349=VECTOR('',#1249,1.);
#350=VECTOR('',#1252,1.);
#351=VECTOR('',#1255,1.);
#352=VECTOR('',#1256,1.);
#353=VECTOR('',#1257,1.);
#354=VECTOR('',#1258,1.);
#355=VECTOR('',#1261,1.);
#356=VECTOR('',#1262,1.);
#357=VECTOR('',#1263,1.);
#358=VECTOR('',#1266,1.);
#359=VECTOR('',#1267,1.);
#360=VECTOR('',#1270,1.);
#361=VECTOR('',#1271,1.);
#362=VECTOR('',#1274,1.);
#363=VECTOR('',#1277,1.);
#364=VECTOR('',#1278,1.);
#365=VECTOR('',#1279,1.);
#366=VECTOR('',#1282,1.);
#367=VECTOR('',#1285,1.);
#368=VECTOR('',#1288,1.);
#369=VECTOR('',#1293,1.);
#370=VECTOR('',#1294,1.);
#371=VECTOR('',#1299,1.);
#372=VECTOR('',#1300,1.);
#373=VECTOR('',#1303,1.);
#374=VECTOR('',#1306,1.);
#375=VECTOR('',#1309,1.);
#376=VECTOR('',#1312,1.);
#377=VECTOR('',#1315,1.);
#378=VECTOR('',#1318,1.);
#379=VECTOR('',#1323,1.);
#380=VECTOR('',#1326,1.);
#381=VECTOR('',#1329,1.);
#382=VECTOR('',#1332,1.);
#383=VECTOR('',#1335,1.);
#384=VECTOR('',#1338,1.);
#385=VECTOR('',#1343,1.);
#386=VECTOR('',#1346,1.);
#387=VECTOR('',#1349,1.);
#388=VECTOR('',#1352,1.);
#389=VECTOR('',#1355,1.);
#390=VECTOR('',#1358,1.);
#391=VECTOR('',#1363,1.);
#392=VECTOR('',#1366,1.);
#393=VECTOR('',#1369,1.);
#394=VECTOR('',#1372,1.);
#395=B_SPLINE_CURVE_WITH_KNOTS('',3,(#1379,#1380,#1381,#1382,#1383,#1384,
#1385,#1386,#1387,#1388),.UNSPECIFIED.,.F.,.F.,(4,2,2,2,4),(1.05809616506248,
1.16010290942631,1.26210965379013,1.38696615483964,1.51182265588916),
 .UNSPECIFIED.);
#396=B_SPLINE_CURVE_WITH_KNOTS('',3,(#1392,#1393,#1394,#1395,#1396,#1397,
#1398,#1399),.UNSPECIFIED.,.F.,.F.,(4,2,2,4),(0.,0.235637739228037,0.353456608842056,
0.471275478456074),.UNSPECIFIED.);
#397=B_SPLINE_CURVE_WITH_KNOTS('',3,(#1418,#1419,#1420,#1421,#1422,#1423,
#1424,#1425,#1426,#1427),.UNSPECIFIED.,.F.,.F.,(4,2,2,2,4),(1.05809616506248,
1.1601029094263,1.26210965379013,1.38696615483964,1.51182265588915),
 .UNSPECIFIED.);
#398=B_SPLINE_CURVE_WITH_KNOTS('',3,(#1431,#1432,#1433,#1434,#1435,#1436,
#1437,#1438),.UNSPECIFIED.,.F.,.F.,(4,2,2,4),(0.,0.235637739228036,0.353456608842055,
0.471275478456073),.UNSPECIFIED.);
#399=B_SPLINE_CURVE_WITH_KNOTS('',3,(#1457,#1458,#1459,#1460,#1461,#1462,
#1463,#1464,#1465,#1466),.UNSPECIFIED.,.F.,.F.,(4,2,2,2,4),(1.05809616506248,
1.1601029094263,1.26210965379013,1.38696615483964,1.51182265588915),
 .UNSPECIFIED.);
#400=B_SPLINE_CURVE_WITH_KNOTS('',3,(#1470,#1471,#1472,#1473,#1474,#1475,
#1476,#1477),.UNSPECIFIED.,.F.,.F.,(4,2,2,4),(0.,0.235637739228036,0.353456608842054,
0.471275478456073),.UNSPECIFIED.);
#401=B_SPLINE_CURVE_WITH_KNOTS('',3,(#1496,#1497,#1498,#1499,#1500,#1501,
#1502,#1503,#1504,#1505),.UNSPECIFIED.,.F.,.F.,(4,2,2,2,4),(1.05809616506248,
1.16010290942631,1.26210965379013,1.38696615483964,1.51182265588916),
 .UNSPECIFIED.);
#402=B_SPLINE_CURVE_WITH_KNOTS('',3,(#1509,#1510,#1511,#1512,#1513,#1514,
#1515,#1516),.UNSPECIFIED.,.F.,.F.,(4,2,2,4),(0.,0.235637739228037,0.353456608842056,
0.471275478456074),.UNSPECIFIED.);
#403=VERTEX_POINT('',#1377);
#404=VERTEX_POINT('',#1378);
#405=VERTEX_POINT('',#1389);
#406=VERTEX_POINT('',#1391);
#407=VERTEX_POINT('',#1400);
#408=VERTEX_POINT('',#1402);
#409=VERTEX_POINT('',#1406);
#410=VERTEX_POINT('',#1408);
#411=VERTEX_POINT('',#1410);
#412=VERTEX_POINT('',#1412);
#413=VERTEX_POINT('',#1416);
#414=VERTEX_POINT('',#1417);
#415=VERTEX_POINT('',#1428);
#416=VERTEX_POINT('',#1430);
#417=VERTEX_POINT('',#1439);
#418=VERTEX_POINT('',#1441);
#419=VERTEX_POINT('',#1445);
#420=VERTEX_POINT('',#1447);
#421=VERTEX_POINT('',#1449);
#422=VERTEX_POINT('',#1451);
#423=VERTEX_POINT('',#1455);
#424=VERTEX_POINT('',#1456);
#425=VERTEX_POINT('',#1467);
#426=VERTEX_POINT('',#1469);
#427=VERTEX_POINT('',#1478);
#428=VERTEX_POINT('',#1480);
#429=VERTEX_POINT('',#1484);
#430=VERTEX_POINT('',#1486);
#431=VERTEX_POINT('',#1488);
#432=VERTEX_POINT('',#1490);
#433=VERTEX_POINT('',#1494);
#434=VERTEX_POINT('',#1495);
#435=VERTEX_POINT('',#1506);
#436=VERTEX_POINT('',#1508);
#437=VERTEX_POINT('',#1517);
#438=VERTEX_POINT('',#1519);
#439=VERTEX_POINT('',#1523);
#440=VERTEX_POINT('',#1525);
#441=VERTEX_POINT('',#1527);
#442=VERTEX_POINT('',#1529);
#443=VERTEX_POINT('',#1533);
#444=VERTEX_POINT('',#1535);
#445=VERTEX_POINT('',#1537);
#446=VERTEX_POINT('',#1539);
#447=VERTEX_POINT('',#1541);
#448=VERTEX_POINT('',#1543);
#449=VERTEX_POINT('',#1547);
#450=VERTEX_POINT('',#1550);
#451=VERTEX_POINT('',#1552);
#452=VERTEX_POINT('',#1554);
#453=VERTEX_POINT('',#1558);
#454=VERTEX_POINT('',#1561);
#455=VERTEX_POINT('',#1563);
#456=VERTEX_POINT('',#1565);
#457=VERTEX_POINT('',#1569);
#458=VERTEX_POINT('',#1570);
#459=VERTEX_POINT('',#1572);
#460=VERTEX_POINT('',#1574);
#461=VERTEX_POINT('',#1578);
#462=VERTEX_POINT('',#1580);
#463=VERTEX_POINT('',#1584);
#464=VERTEX_POINT('',#1586);
#465=VERTEX_POINT('',#1588);
#466=VERTEX_POINT('',#1590);
#467=VERTEX_POINT('',#1592);
#468=VERTEX_POINT('',#1594);
#469=VERTEX_POINT('',#1597);
#470=VERTEX_POINT('',#1599);
#471=VERTEX_POINT('',#1601);
#472=VERTEX_POINT('',#1603);
#473=VERTEX_POINT('',#1605);
#474=VERTEX_POINT('',#1607);
#475=VERTEX_POINT('',#1609);
#476=VERTEX_POINT('',#1611);
#477=VERTEX_POINT('',#1614);
#478=VERTEX_POINT('',#1616);
#479=VERTEX_POINT('',#1618);
#480=VERTEX_POINT('',#1620);
#481=VERTEX_POINT('',#1622);
#482=VERTEX_POINT('',#1624);
#483=VERTEX_POINT('',#1627);
#484=VERTEX_POINT('',#1629);
#485=VERTEX_POINT('',#1631);
#486=VERTEX_POINT('',#1633);
#487=VERTEX_POINT('',#1635);
#488=VERTEX_POINT('',#1637);
#489=VERTEX_POINT('',#1640);
#490=VERTEX_POINT('',#1641);
#491=VERTEX_POINT('',#1643);
#492=VERTEX_POINT('',#1645);
#493=VERTEX_POINT('',#1649);
#494=VERTEX_POINT('',#1651);
#495=VERTEX_POINT('',#1655);
#496=VERTEX_POINT('',#1659);
#497=VERTEX_POINT('',#1665);
#498=VERTEX_POINT('',#1667);
#499=EDGE_CURVE('',#403,#404,#395,.F.);
#500=EDGE_CURVE('',#403,#405,#187,.T.);
#501=EDGE_CURVE('',#405,#406,#396,.T.);
#502=EDGE_CURVE('',#406,#407,#155,.T.);
#503=EDGE_CURVE('',#407,#408,#188,.T.);
#504=EDGE_CURVE('',#404,#408,#156,.F.);
#505=EDGE_CURVE('',#407,#409,#189,.T.);
#506=EDGE_CURVE('',#409,#410,#157,.T.);
#507=EDGE_CURVE('',#410,#411,#190,.T.);
#508=EDGE_CURVE('',#411,#412,#158,.T.);
#509=EDGE_CURVE('',#412,#408,#191,.T.);
#510=EDGE_CURVE('',#413,#414,#397,.F.);
#511=EDGE_CURVE('',#413,#415,#192,.T.);
#512=EDGE_CURVE('',#415,#416,#398,.T.);
#513=EDGE_CURVE('',#416,#417,#159,.T.);
#514=EDGE_CURVE('',#417,#418,#193,.T.);
#515=EDGE_CURVE('',#414,#418,#160,.F.);
#516=EDGE_CURVE('',#417,#419,#194,.T.);
#517=EDGE_CURVE('',#419,#420,#161,.T.);
#518=EDGE_CURVE('',#420,#421,#195,.T.);
#519=EDGE_CURVE('',#421,#422,#162,.T.);
#520=EDGE_CURVE('',#422,#418,#196,.T.);
#521=EDGE_CURVE('',#423,#424,#399,.F.);
#522=EDGE_CURVE('',#423,#425,#197,.T.);
#523=EDGE_CURVE('',#425,#426,#400,.T.);
#524=EDGE_CURVE('',#426,#427,#163,.T.);
#525=EDGE_CURVE('',#427,#428,#198,.T.);
#526=EDGE_CURVE('',#424,#428,#164,.F.);
#527=EDGE_CURVE('',#427,#429,#199,.T.);
#528=EDGE_CURVE('',#429,#430,#165,.T.);
#529=EDGE_CURVE('',#430,#431,#200,.T.);
#530=EDGE_CURVE('',#431,#432,#166,.T.);
#531=EDGE_CURVE('',#432,#428,#201,.T.);
#532=EDGE_CURVE('',#433,#434,#401,.F.);
#533=EDGE_CURVE('',#433,#435,#202,.T.);
#534=EDGE_CURVE('',#435,#436,#402,.T.);
#535=EDGE_CURVE('',#436,#437,#167,.T.);
#536=EDGE_CURVE('',#437,#438,#203,.T.);
#537=EDGE_CURVE('',#434,#438,#168,.F.);
#538=EDGE_CURVE('',#437,#439,#204,.T.);
#539=EDGE_CURVE('',#439,#440,#169,.T.);
#540=EDGE_CURVE('',#440,#441,#205,.T.);
#541=EDGE_CURVE('',#441,#442,#170,.T.);
#542=EDGE_CURVE('',#442,#438,#206,.T.);
#543=EDGE_CURVE('',#443,#403,#207,.T.);
#544=EDGE_CURVE('',#444,#443,#208,.T.);
#545=EDGE_CURVE('',#444,#445,#209,.T.);
#546=EDGE_CURVE('',#446,#445,#210,.T.);
#547=EDGE_CURVE('',#447,#446,#211,.T.);
#548=EDGE_CURVE('',#448,#447,#212,.T.);
#549=EDGE_CURVE('',#448,#405,#213,.T.);
#550=EDGE_CURVE('',#449,#423,#214,.T.);
#551=EDGE_CURVE('',#447,#449,#215,.T.);
#552=EDGE_CURVE('',#450,#446,#216,.T.);
#553=EDGE_CURVE('',#451,#450,#217,.T.);
#554=EDGE_CURVE('',#452,#451,#218,.T.);
#555=EDGE_CURVE('',#452,#425,#219,.T.);
#556=EDGE_CURVE('',#453,#433,#220,.T.);
#557=EDGE_CURVE('',#451,#453,#221,.T.);
#558=EDGE_CURVE('',#454,#450,#222,.T.);
#559=EDGE_CURVE('',#455,#454,#223,.T.);
#560=EDGE_CURVE('',#456,#455,#224,.T.);
#561=EDGE_CURVE('',#456,#435,#225,.T.);
#562=EDGE_CURVE('',#457,#458,#226,.T.);
#563=EDGE_CURVE('',#459,#457,#227,.T.);
#564=EDGE_CURVE('',#460,#459,#228,.T.);
#565=EDGE_CURVE('',#458,#460,#229,.T.);
#566=EDGE_CURVE('',#461,#458,#230,.T.);
#567=EDGE_CURVE('',#461,#462,#231,.T.);
#568=EDGE_CURVE('',#462,#457,#232,.T.);
#569=EDGE_CURVE('',#453,#463,#171,.T.);
#570=EDGE_CURVE('',#463,#464,#233,.T.);
#571=EDGE_CURVE('',#465,#464,#172,.T.);
#572=EDGE_CURVE('',#465,#466,#234,.T.);
#573=EDGE_CURVE('',#467,#466,#173,.T.);
#574=EDGE_CURVE('',#467,#468,#235,.T.);
#575=EDGE_CURVE('',#468,#456,#174,.T.);
#576=EDGE_CURVE('',#455,#469,#236,.T.);
#577=EDGE_CURVE('',#469,#470,#175,.T.);
#578=EDGE_CURVE('',#471,#470,#237,.T.);
#579=EDGE_CURVE('',#472,#471,#176,.T.);
#580=EDGE_CURVE('',#473,#472,#238,.T.);
#581=EDGE_CURVE('',#474,#473,#177,.T.);
#582=EDGE_CURVE('',#475,#474,#239,.T.);
#583=EDGE_CURVE('',#475,#476,#178,.T.);
#584=EDGE_CURVE('',#476,#444,#240,.T.);
#585=EDGE_CURVE('',#443,#477,#179,.T.);
#586=EDGE_CURVE('',#477,#478,#241,.T.);
#587=EDGE_CURVE('',#479,#478,#180,.T.);
#588=EDGE_CURVE('',#479,#480,#242,.T.);
#589=EDGE_CURVE('',#481,#480,#181,.T.);
#590=EDGE_CURVE('',#481,#482,#243,.T.);
#591=EDGE_CURVE('',#482,#448,#182,.T.);
#592=EDGE_CURVE('',#449,#483,#183,.T.);
#593=EDGE_CURVE('',#484,#483,#244,.T.);
#594=EDGE_CURVE('',#485,#484,#184,.T.);
#595=EDGE_CURVE('',#486,#485,#245,.T.);
#596=EDGE_CURVE('',#487,#486,#185,.T.);
#597=EDGE_CURVE('',#488,#487,#246,.T.);
#598=EDGE_CURVE('',#488,#452,#186,.T.);
#599=EDGE_CURVE('',#489,#490,#247,.T.);
#600=EDGE_CURVE('',#490,#491,#248,.T.);
#601=EDGE_CURVE('',#491,#492,#249,.T.);
#602=EDGE_CURVE('',#492,#489,#250,.T.);
#603=EDGE_CURVE('',#489,#493,#251,.T.);
#604=EDGE_CURVE('',#494,#493,#252,.T.);
#605=EDGE_CURVE('',#490,#494,#253,.T.);
#606=EDGE_CURVE('',#492,#495,#254,.T.);
#607=EDGE_CURVE('',#493,#495,#255,.T.);
#608=EDGE_CURVE('',#491,#496,#256,.T.);
#609=EDGE_CURVE('',#495,#496,#257,.T.);
#610=EDGE_CURVE('',#496,#494,#258,.T.);
#611=EDGE_CURVE('',#497,#461,#259,.T.);
#612=EDGE_CURVE('',#498,#497,#260,.T.);
#613=EDGE_CURVE('',#462,#498,#261,.T.);
#614=EDGE_CURVE('',#497,#460,#262,.T.);
#615=EDGE_CURVE('',#445,#454,#263,.T.);
#616=EDGE_CURVE('',#498,#459,#264,.T.);
#617=EDGE_CURVE('',#467,#439,#265,.T.);
#618=EDGE_CURVE('',#468,#436,#266,.T.);
#619=EDGE_CURVE('',#469,#413,#267,.T.);
#620=EDGE_CURVE('',#476,#415,#268,.T.);
#621=EDGE_CURVE('',#470,#414,#269,.T.);
#622=EDGE_CURVE('',#471,#422,#270,.T.);
#623=EDGE_CURVE('',#472,#421,#271,.T.);
#624=EDGE_CURVE('',#473,#420,#272,.T.);
#625=EDGE_CURVE('',#474,#419,#273,.T.);
#626=EDGE_CURVE('',#475,#416,#274,.T.);
#627=EDGE_CURVE('',#477,#404,#275,.T.);
#628=EDGE_CURVE('',#478,#412,#276,.T.);
#629=EDGE_CURVE('',#479,#411,#277,.T.);
#630=EDGE_CURVE('',#480,#410,#278,.T.);
#631=EDGE_CURVE('',#481,#409,#279,.T.);
#632=EDGE_CURVE('',#482,#406,#280,.T.);
#633=EDGE_CURVE('',#483,#424,#281,.T.);
#634=EDGE_CURVE('',#484,#432,#282,.T.);
#635=EDGE_CURVE('',#485,#431,#283,.T.);
#636=EDGE_CURVE('',#486,#430,#284,.T.);
#637=EDGE_CURVE('',#487,#429,#285,.T.);
#638=EDGE_CURVE('',#488,#426,#286,.T.);
#639=EDGE_CURVE('',#463,#434,#287,.T.);
#640=EDGE_CURVE('',#464,#442,#288,.T.);
#641=EDGE_CURVE('',#465,#441,#289,.T.);
#642=EDGE_CURVE('',#466,#440,#290,.T.);
#643=ORIENTED_EDGE('',*,*,#499,.F.);
#644=ORIENTED_EDGE('',*,*,#500,.T.);
#645=ORIENTED_EDGE('',*,*,#501,.T.);
#646=ORIENTED_EDGE('',*,*,#502,.T.);
#647=ORIENTED_EDGE('',*,*,#503,.T.);
#648=ORIENTED_EDGE('',*,*,#504,.F.);
#649=ORIENTED_EDGE('',*,*,#503,.F.);
#650=ORIENTED_EDGE('',*,*,#505,.T.);
#651=ORIENTED_EDGE('',*,*,#506,.T.);
#652=ORIENTED_EDGE('',*,*,#507,.T.);
#653=ORIENTED_EDGE('',*,*,#508,.T.);
#654=ORIENTED_EDGE('',*,*,#509,.T.);
#655=ORIENTED_EDGE('',*,*,#510,.F.);
#656=ORIENTED_EDGE('',*,*,#511,.T.);
#657=ORIENTED_EDGE('',*,*,#512,.T.);
#658=ORIENTED_EDGE('',*,*,#513,.T.);
#659=ORIENTED_EDGE('',*,*,#514,.T.);
#660=ORIENTED_EDGE('',*,*,#515,.F.);
#661=ORIENTED_EDGE('',*,*,#514,.F.);
#662=ORIENTED_EDGE('',*,*,#516,.T.);
#663=ORIENTED_EDGE('',*,*,#517,.T.);
#664=ORIENTED_EDGE('',*,*,#518,.T.);
#665=ORIENTED_EDGE('',*,*,#519,.T.);
#666=ORIENTED_EDGE('',*,*,#520,.T.);
#667=ORIENTED_EDGE('',*,*,#521,.F.);
#668=ORIENTED_EDGE('',*,*,#522,.T.);
#669=ORIENTED_EDGE('',*,*,#523,.T.);
#670=ORIENTED_EDGE('',*,*,#524,.T.);
#671=ORIENTED_EDGE('',*,*,#525,.T.);
#672=ORIENTED_EDGE('',*,*,#526,.F.);
#673=ORIENTED_EDGE('',*,*,#525,.F.);
#674=ORIENTED_EDGE('',*,*,#527,.T.);
#675=ORIENTED_EDGE('',*,*,#528,.T.);
#676=ORIENTED_EDGE('',*,*,#529,.T.);
#677=ORIENTED_EDGE('',*,*,#530,.T.);
#678=ORIENTED_EDGE('',*,*,#531,.T.);
#679=ORIENTED_EDGE('',*,*,#532,.F.);
#680=ORIENTED_EDGE('',*,*,#533,.T.);
#681=ORIENTED_EDGE('',*,*,#534,.T.);
#682=ORIENTED_EDGE('',*,*,#535,.T.);
#683=ORIENTED_EDGE('',*,*,#536,.T.);
#684=ORIENTED_EDGE('',*,*,#537,.F.);
#685=ORIENTED_EDGE('',*,*,#536,.F.);
#686=ORIENTED_EDGE('',*,*,#538,.T.);
#687=ORIENTED_EDGE('',*,*,#539,.T.);
#688=ORIENTED_EDGE('',*,*,#540,.T.);
#689=ORIENTED_EDGE('',*,*,#541,.T.);
#690=ORIENTED_EDGE('',*,*,#542,.T.);
#691=ORIENTED_EDGE('',*,*,#543,.F.);
#692=ORIENTED_EDGE('',*,*,#544,.F.);
#693=ORIENTED_EDGE('',*,*,#545,.T.);
#694=ORIENTED_EDGE('',*,*,#546,.F.);
#695=ORIENTED_EDGE('',*,*,#547,.F.);
#696=ORIENTED_EDGE('',*,*,#548,.F.);
#697=ORIENTED_EDGE('',*,*,#549,.T.);
#698=ORIENTED_EDGE('',*,*,#500,.F.);
#699=ORIENTED_EDGE('',*,*,#550,.F.);
#700=ORIENTED_EDGE('',*,*,#551,.F.);
#701=ORIENTED_EDGE('',*,*,#547,.T.);
#702=ORIENTED_EDGE('',*,*,#552,.F.);
#703=ORIENTED_EDGE('',*,*,#553,.F.);
#704=ORIENTED_EDGE('',*,*,#554,.F.);
#705=ORIENTED_EDGE('',*,*,#555,.T.);
#706=ORIENTED_EDGE('',*,*,#522,.F.);
#707=ORIENTED_EDGE('',*,*,#556,.F.);
#708=ORIENTED_EDGE('',*,*,#557,.F.);
#709=ORIENTED_EDGE('',*,*,#553,.T.);
#710=ORIENTED_EDGE('',*,*,#558,.F.);
#711=ORIENTED_EDGE('',*,*,#559,.F.);
#712=ORIENTED_EDGE('',*,*,#560,.F.);
#713=ORIENTED_EDGE('',*,*,#561,.T.);
#714=ORIENTED_EDGE('',*,*,#533,.F.);
#715=ORIENTED_EDGE('',*,*,#562,.F.);
#716=ORIENTED_EDGE('',*,*,#563,.F.);
#717=ORIENTED_EDGE('',*,*,#564,.F.);
#718=ORIENTED_EDGE('',*,*,#565,.F.);
#719=ORIENTED_EDGE('',*,*,#562,.T.);
#720=ORIENTED_EDGE('',*,*,#566,.F.);
#721=ORIENTED_EDGE('',*,*,#567,.T.);
#722=ORIENTED_EDGE('',*,*,#568,.T.);
#723=ORIENTED_EDGE('',*,*,#569,.T.);
#724=ORIENTED_EDGE('',*,*,#570,.T.);
#725=ORIENTED_EDGE('',*,*,#571,.F.);
#726=ORIENTED_EDGE('',*,*,#572,.T.);
#727=ORIENTED_EDGE('',*,*,#573,.F.);
#728=ORIENTED_EDGE('',*,*,#574,.T.);
#729=ORIENTED_EDGE('',*,*,#575,.T.);
#730=ORIENTED_EDGE('',*,*,#560,.T.);
#731=ORIENTED_EDGE('',*,*,#576,.T.);
#732=ORIENTED_EDGE('',*,*,#577,.T.);
#733=ORIENTED_EDGE('',*,*,#578,.F.);
#734=ORIENTED_EDGE('',*,*,#579,.F.);
#735=ORIENTED_EDGE('',*,*,#580,.F.);
#736=ORIENTED_EDGE('',*,*,#581,.F.);
#737=ORIENTED_EDGE('',*,*,#582,.F.);
#738=ORIENTED_EDGE('',*,*,#583,.T.);
#739=ORIENTED_EDGE('',*,*,#584,.T.);
#740=ORIENTED_EDGE('',*,*,#544,.T.);
#741=ORIENTED_EDGE('',*,*,#585,.T.);
#742=ORIENTED_EDGE('',*,*,#586,.T.);
#743=ORIENTED_EDGE('',*,*,#587,.F.);
#744=ORIENTED_EDGE('',*,*,#588,.T.);
#745=ORIENTED_EDGE('',*,*,#589,.F.);
#746=ORIENTED_EDGE('',*,*,#590,.T.);
#747=ORIENTED_EDGE('',*,*,#591,.T.);
#748=ORIENTED_EDGE('',*,*,#548,.T.);
#749=ORIENTED_EDGE('',*,*,#551,.T.);
#750=ORIENTED_EDGE('',*,*,#592,.T.);
#751=ORIENTED_EDGE('',*,*,#593,.F.);
#752=ORIENTED_EDGE('',*,*,#594,.F.);
#753=ORIENTED_EDGE('',*,*,#595,.F.);
#754=ORIENTED_EDGE('',*,*,#596,.F.);
#755=ORIENTED_EDGE('',*,*,#597,.F.);
#756=ORIENTED_EDGE('',*,*,#598,.T.);
#757=ORIENTED_EDGE('',*,*,#554,.T.);
#758=ORIENTED_EDGE('',*,*,#557,.T.);
#759=ORIENTED_EDGE('',*,*,#599,.T.);
#760=ORIENTED_EDGE('',*,*,#600,.T.);
#761=ORIENTED_EDGE('',*,*,#601,.T.);
#762=ORIENTED_EDGE('',*,*,#602,.T.);
#763=ORIENTED_EDGE('',*,*,#599,.F.);
#764=ORIENTED_EDGE('',*,*,#603,.T.);
#765=ORIENTED_EDGE('',*,*,#604,.F.);
#766=ORIENTED_EDGE('',*,*,#605,.F.);
#767=ORIENTED_EDGE('',*,*,#602,.F.);
#768=ORIENTED_EDGE('',*,*,#606,.T.);
#769=ORIENTED_EDGE('',*,*,#607,.F.);
#770=ORIENTED_EDGE('',*,*,#603,.F.);
#771=ORIENTED_EDGE('',*,*,#601,.F.);
#772=ORIENTED_EDGE('',*,*,#608,.T.);
#773=ORIENTED_EDGE('',*,*,#609,.F.);
#774=ORIENTED_EDGE('',*,*,#606,.F.);
#775=ORIENTED_EDGE('',*,*,#600,.F.);
#776=ORIENTED_EDGE('',*,*,#605,.T.);
#777=ORIENTED_EDGE('',*,*,#610,.F.);
#778=ORIENTED_EDGE('',*,*,#608,.F.);
#779=ORIENTED_EDGE('',*,*,#610,.T.);
#780=ORIENTED_EDGE('',*,*,#604,.T.);
#781=ORIENTED_EDGE('',*,*,#607,.T.);
#782=ORIENTED_EDGE('',*,*,#609,.T.);
#783=ORIENTED_EDGE('',*,*,#567,.F.);
#784=ORIENTED_EDGE('',*,*,#611,.F.);
#785=ORIENTED_EDGE('',*,*,#612,.F.);
#786=ORIENTED_EDGE('',*,*,#613,.F.);
#787=ORIENTED_EDGE('',*,*,#565,.T.);
#788=ORIENTED_EDGE('',*,*,#614,.F.);
#789=ORIENTED_EDGE('',*,*,#611,.T.);
#790=ORIENTED_EDGE('',*,*,#566,.T.);
#791=ORIENTED_EDGE('',*,*,#546,.T.);
#792=ORIENTED_EDGE('',*,*,#615,.T.);
#793=ORIENTED_EDGE('',*,*,#558,.T.);
#794=ORIENTED_EDGE('',*,*,#552,.T.);
#795=ORIENTED_EDGE('',*,*,#564,.T.);
#796=ORIENTED_EDGE('',*,*,#616,.F.);
#797=ORIENTED_EDGE('',*,*,#612,.T.);
#798=ORIENTED_EDGE('',*,*,#614,.T.);
#799=ORIENTED_EDGE('',*,*,#563,.T.);
#800=ORIENTED_EDGE('',*,*,#568,.F.);
#801=ORIENTED_EDGE('',*,*,#613,.T.);
#802=ORIENTED_EDGE('',*,*,#616,.T.);
#803=ORIENTED_EDGE('',*,*,#574,.F.);
#804=ORIENTED_EDGE('',*,*,#617,.T.);
#805=ORIENTED_EDGE('',*,*,#538,.F.);
#806=ORIENTED_EDGE('',*,*,#535,.F.);
#807=ORIENTED_EDGE('',*,*,#618,.F.);
#808=ORIENTED_EDGE('',*,*,#575,.F.);
#809=ORIENTED_EDGE('',*,*,#618,.T.);
#810=ORIENTED_EDGE('',*,*,#534,.F.);
#811=ORIENTED_EDGE('',*,*,#561,.F.);
#812=ORIENTED_EDGE('',*,*,#619,.F.);
#813=ORIENTED_EDGE('',*,*,#576,.F.);
#814=ORIENTED_EDGE('',*,*,#559,.T.);
#815=ORIENTED_EDGE('',*,*,#615,.F.);
#816=ORIENTED_EDGE('',*,*,#545,.F.);
#817=ORIENTED_EDGE('',*,*,#584,.F.);
#818=ORIENTED_EDGE('',*,*,#620,.T.);
#819=ORIENTED_EDGE('',*,*,#511,.F.);
#820=ORIENTED_EDGE('',*,*,#577,.F.);
#821=ORIENTED_EDGE('',*,*,#619,.T.);
#822=ORIENTED_EDGE('',*,*,#510,.T.);
#823=ORIENTED_EDGE('',*,*,#621,.F.);
#824=ORIENTED_EDGE('',*,*,#578,.T.);
#825=ORIENTED_EDGE('',*,*,#621,.T.);
#826=ORIENTED_EDGE('',*,*,#515,.T.);
#827=ORIENTED_EDGE('',*,*,#520,.F.);
#828=ORIENTED_EDGE('',*,*,#622,.F.);
#829=ORIENTED_EDGE('',*,*,#579,.T.);
#830=ORIENTED_EDGE('',*,*,#622,.T.);
#831=ORIENTED_EDGE('',*,*,#519,.F.);
#832=ORIENTED_EDGE('',*,*,#623,.F.);
#833=ORIENTED_EDGE('',*,*,#580,.T.);
#834=ORIENTED_EDGE('',*,*,#623,.T.);
#835=ORIENTED_EDGE('',*,*,#518,.F.);
#836=ORIENTED_EDGE('',*,*,#624,.F.);
#837=ORIENTED_EDGE('',*,*,#581,.T.);
#838=ORIENTED_EDGE('',*,*,#624,.T.);
#839=ORIENTED_EDGE('',*,*,#517,.F.);
#840=ORIENTED_EDGE('',*,*,#625,.F.);
#841=ORIENTED_EDGE('',*,*,#582,.T.);
#842=ORIENTED_EDGE('',*,*,#625,.T.);
#843=ORIENTED_EDGE('',*,*,#516,.F.);
#844=ORIENTED_EDGE('',*,*,#513,.F.);
#845=ORIENTED_EDGE('',*,*,#626,.F.);
#846=ORIENTED_EDGE('',*,*,#583,.F.);
#847=ORIENTED_EDGE('',*,*,#626,.T.);
#848=ORIENTED_EDGE('',*,*,#512,.F.);
#849=ORIENTED_EDGE('',*,*,#620,.F.);
#850=ORIENTED_EDGE('',*,*,#585,.F.);
#851=ORIENTED_EDGE('',*,*,#543,.T.);
#852=ORIENTED_EDGE('',*,*,#499,.T.);
#853=ORIENTED_EDGE('',*,*,#627,.F.);
#854=ORIENTED_EDGE('',*,*,#586,.F.);
#855=ORIENTED_EDGE('',*,*,#627,.T.);
#856=ORIENTED_EDGE('',*,*,#504,.T.);
#857=ORIENTED_EDGE('',*,*,#509,.F.);
#858=ORIENTED_EDGE('',*,*,#628,.F.);
#859=ORIENTED_EDGE('',*,*,#587,.T.);
#860=ORIENTED_EDGE('',*,*,#628,.T.);
#861=ORIENTED_EDGE('',*,*,#508,.F.);
#862=ORIENTED_EDGE('',*,*,#629,.F.);
#863=ORIENTED_EDGE('',*,*,#588,.F.);
#864=ORIENTED_EDGE('',*,*,#629,.T.);
#865=ORIENTED_EDGE('',*,*,#507,.F.);
#866=ORIENTED_EDGE('',*,*,#630,.F.);
#867=ORIENTED_EDGE('',*,*,#589,.T.);
#868=ORIENTED_EDGE('',*,*,#630,.T.);
#869=ORIENTED_EDGE('',*,*,#506,.F.);
#870=ORIENTED_EDGE('',*,*,#631,.F.);
#871=ORIENTED_EDGE('',*,*,#590,.F.);
#872=ORIENTED_EDGE('',*,*,#631,.T.);
#873=ORIENTED_EDGE('',*,*,#505,.F.);
#874=ORIENTED_EDGE('',*,*,#502,.F.);
#875=ORIENTED_EDGE('',*,*,#632,.F.);
#876=ORIENTED_EDGE('',*,*,#591,.F.);
#877=ORIENTED_EDGE('',*,*,#632,.T.);
#878=ORIENTED_EDGE('',*,*,#501,.F.);
#879=ORIENTED_EDGE('',*,*,#549,.F.);
#880=ORIENTED_EDGE('',*,*,#592,.F.);
#881=ORIENTED_EDGE('',*,*,#550,.T.);
#882=ORIENTED_EDGE('',*,*,#521,.T.);
#883=ORIENTED_EDGE('',*,*,#633,.F.);
#884=ORIENTED_EDGE('',*,*,#593,.T.);
#885=ORIENTED_EDGE('',*,*,#633,.T.);
#886=ORIENTED_EDGE('',*,*,#526,.T.);
#887=ORIENTED_EDGE('',*,*,#531,.F.);
#888=ORIENTED_EDGE('',*,*,#634,.F.);
#889=ORIENTED_EDGE('',*,*,#594,.T.);
#890=ORIENTED_EDGE('',*,*,#634,.T.);
#891=ORIENTED_EDGE('',*,*,#530,.F.);
#892=ORIENTED_EDGE('',*,*,#635,.F.);
#893=ORIENTED_EDGE('',*,*,#595,.T.);
#894=ORIENTED_EDGE('',*,*,#635,.T.);
#895=ORIENTED_EDGE('',*,*,#529,.F.);
#896=ORIENTED_EDGE('',*,*,#636,.F.);
#897=ORIENTED_EDGE('',*,*,#596,.T.);
#898=ORIENTED_EDGE('',*,*,#636,.T.);
#899=ORIENTED_EDGE('',*,*,#528,.F.);
#900=ORIENTED_EDGE('',*,*,#637,.F.);
#901=ORIENTED_EDGE('',*,*,#597,.T.);
#902=ORIENTED_EDGE('',*,*,#637,.T.);
#903=ORIENTED_EDGE('',*,*,#527,.F.);
#904=ORIENTED_EDGE('',*,*,#524,.F.);
#905=ORIENTED_EDGE('',*,*,#638,.F.);
#906=ORIENTED_EDGE('',*,*,#598,.F.);
#907=ORIENTED_EDGE('',*,*,#638,.T.);
#908=ORIENTED_EDGE('',*,*,#523,.F.);
#909=ORIENTED_EDGE('',*,*,#555,.F.);
#910=ORIENTED_EDGE('',*,*,#569,.F.);
#911=ORIENTED_EDGE('',*,*,#556,.T.);
#912=ORIENTED_EDGE('',*,*,#532,.T.);
#913=ORIENTED_EDGE('',*,*,#639,.F.);
#914=ORIENTED_EDGE('',*,*,#570,.F.);
#915=ORIENTED_EDGE('',*,*,#639,.T.);
#916=ORIENTED_EDGE('',*,*,#537,.T.);
#917=ORIENTED_EDGE('',*,*,#542,.F.);
#918=ORIENTED_EDGE('',*,*,#640,.F.);
#919=ORIENTED_EDGE('',*,*,#571,.T.);
#920=ORIENTED_EDGE('',*,*,#640,.T.);
#921=ORIENTED_EDGE('',*,*,#541,.F.);
#922=ORIENTED_EDGE('',*,*,#641,.F.);
#923=ORIENTED_EDGE('',*,*,#572,.F.);
#924=ORIENTED_EDGE('',*,*,#641,.T.);
#925=ORIENTED_EDGE('',*,*,#540,.F.);
#926=ORIENTED_EDGE('',*,*,#642,.F.);
#927=ORIENTED_EDGE('',*,*,#573,.T.);
#928=ORIENTED_EDGE('',*,*,#642,.T.);
#929=ORIENTED_EDGE('',*,*,#539,.F.);
#930=ORIENTED_EDGE('',*,*,#617,.F.);
#931=CYLINDRICAL_SURFACE('',#1017,0.5);
#932=CYLINDRICAL_SURFACE('',#1023,0.5);
#933=CYLINDRICAL_SURFACE('',#1029,0.5);
#934=CYLINDRICAL_SURFACE('',#1035,0.5);
#935=CYLINDRICAL_SURFACE('',#1073,0.179999999999999);
#936=CYLINDRICAL_SURFACE('',#1075,0.179999999999999);
#937=CYLINDRICAL_SURFACE('',#1077,0.999999999999999);
#938=CYLINDRICAL_SURFACE('',#1079,1.);
#939=CYLINDRICAL_SURFACE('',#1081,0.179999999999999);
#940=CYLINDRICAL_SURFACE('',#1082,0.18);
#941=CYLINDRICAL_SURFACE('',#1084,0.999999999999998);
#942=CYLINDRICAL_SURFACE('',#1086,0.999999999999998);
#943=CYLINDRICAL_SURFACE('',#1088,0.179999999999999);
#944=CYLINDRICAL_SURFACE('',#1089,0.179999999999999);
#945=CYLINDRICAL_SURFACE('',#1091,0.999999999999999);
#946=CYLINDRICAL_SURFACE('',#1093,0.999999999999999);
#947=CYLINDRICAL_SURFACE('',#1095,0.179999999999999);
#948=CYLINDRICAL_SURFACE('',#1096,0.18);
#949=CYLINDRICAL_SURFACE('',#1098,0.999999999999998);
#950=CYLINDRICAL_SURFACE('',#1100,0.999999999999998);
#951=ADVANCED_FACE('',(#49),#931,.F.);
#952=ADVANCED_FACE('',(#50),#17,.T.);
#953=ADVANCED_FACE('',(#51),#932,.F.);
#954=ADVANCED_FACE('',(#52),#18,.T.);
#955=ADVANCED_FACE('',(#53),#933,.F.);
#956=ADVANCED_FACE('',(#54),#19,.T.);
#957=ADVANCED_FACE('',(#55),#934,.F.);
#958=ADVANCED_FACE('',(#56),#20,.T.);
#959=ADVANCED_FACE('',(#57),#21,.T.);
#960=ADVANCED_FACE('',(#58),#22,.T.);
#961=ADVANCED_FACE('',(#59),#23,.T.);
#962=ADVANCED_FACE('',(#60),#24,.F.);
#963=ADVANCED_FACE('',(#61),#25,.T.);
#964=ADVANCED_FACE('',(#62,#15),#26,.F.);
#965=ADVANCED_FACE('',(#63),#27,.F.);
#966=ADVANCED_FACE('',(#64),#28,.F.);
#967=ADVANCED_FACE('',(#65),#29,.F.);
#968=ADVANCED_FACE('',(#66),#30,.F.);
#969=ADVANCED_FACE('',(#67,#16),#31,.F.);
#970=ADVANCED_FACE('',(#68),#32,.T.);
#971=ADVANCED_FACE('',(#69),#33,.T.);
#972=ADVANCED_FACE('',(#70),#34,.T.);
#973=ADVANCED_FACE('',(#71),#35,.T.);
#974=ADVANCED_FACE('',(#72),#36,.T.);
#975=ADVANCED_FACE('',(#73),#935,.F.);
#976=ADVANCED_FACE('',(#74),#37,.T.);
#977=ADVANCED_FACE('',(#75),#936,.F.);
#978=ADVANCED_FACE('',(#76),#38,.T.);
#979=ADVANCED_FACE('',(#77),#937,.T.);
#980=ADVANCED_FACE('',(#78),#39,.T.);
#981=ADVANCED_FACE('',(#79),#938,.T.);
#982=ADVANCED_FACE('',(#80),#40,.T.);
#983=ADVANCED_FACE('',(#81),#939,.F.);
#984=ADVANCED_FACE('',(#82),#940,.F.);
#985=ADVANCED_FACE('',(#83),#41,.T.);
#986=ADVANCED_FACE('',(#84),#941,.T.);
#987=ADVANCED_FACE('',(#85),#42,.T.);
#988=ADVANCED_FACE('',(#86),#942,.T.);
#989=ADVANCED_FACE('',(#87),#43,.T.);
#990=ADVANCED_FACE('',(#88),#943,.F.);
#991=ADVANCED_FACE('',(#89),#944,.F.);
#992=ADVANCED_FACE('',(#90),#44,.T.);
#993=ADVANCED_FACE('',(#91),#945,.T.);
#994=ADVANCED_FACE('',(#92),#45,.T.);
#995=ADVANCED_FACE('',(#93),#946,.T.);
#996=ADVANCED_FACE('',(#94),#46,.T.);
#997=ADVANCED_FACE('',(#95),#947,.F.);
#998=ADVANCED_FACE('',(#96),#948,.F.);
#999=ADVANCED_FACE('',(#97),#47,.T.);
#1000=ADVANCED_FACE('',(#98),#949,.T.);
#1001=ADVANCED_FACE('',(#99),#48,.T.);
#1002=ADVANCED_FACE('',(#100),#950,.T.);
#1003=CLOSED_SHELL('',(#951,#952,#953,#954,#955,#956,#957,#958,#959,#960,
#961,#962,#963,#964,#965,#966,#967,#968,#969,#970,#971,#972,#973,#974,#975,
#976,#977,#978,#979,#980,#981,#982,#983,#984,#985,#986,#987,#988,#989,#990,
#991,#992,#993,#994,#995,#996,#997,#998,#999,#1000,#1001,#1002));
#1004=DERIVED_UNIT_ELEMENT(#1006,1.);
#1005=DERIVED_UNIT_ELEMENT(#1737,-3.);
#1006=(
MASS_UNIT()
NAMED_UNIT(*)
SI_UNIT(.KILO.,.GRAM.)
);
#1007=DERIVED_UNIT((#1004,#1005));
#1008=MEASURE_REPRESENTATION_ITEM('density measure',
POSITIVE_RATIO_MEASURE(7850.),#1007);
#1009=PROPERTY_DEFINITION_REPRESENTATION(#1014,#1011);
#1010=PROPERTY_DEFINITION_REPRESENTATION(#1015,#1012);
#1011=REPRESENTATION('material name',(#1013),#1734);
#1012=REPRESENTATION('density',(#1008),#1734);
#1013=DESCRIPTIVE_REPRESENTATION_ITEM('Steel','Steel');
#1014=PROPERTY_DEFINITION('material property','material name',#1744);
#1015=PROPERTY_DEFINITION('material property','density of part',#1744);
#1016=AXIS2_PLACEMENT_3D('',#1375,#1101,#1102);
#1017=AXIS2_PLACEMENT_3D('',#1376,#1103,#1104);
#1018=AXIS2_PLACEMENT_3D('',#1401,#1106,#1107);
#1019=AXIS2_PLACEMENT_3D('',#1404,#1109,#1110);
#1020=AXIS2_PLACEMENT_3D('',#1405,#1111,#1112);
#1021=AXIS2_PLACEMENT_3D('',#1409,#1114,#1115);
#1022=AXIS2_PLACEMENT_3D('',#1413,#1117,#1118);
#1023=AXIS2_PLACEMENT_3D('',#1415,#1120,#1121);
#1024=AXIS2_PLACEMENT_3D('',#1440,#1123,#1124);
#1025=AXIS2_PLACEMENT_3D('',#1443,#1126,#1127);
#1026=AXIS2_PLACEMENT_3D('',#1444,#1128,#1129);
#1027=AXIS2_PLACEMENT_3D('',#1448,#1131,#1132);
#1028=AXIS2_PLACEMENT_3D('',#1452,#1134,#1135);
#1029=AXIS2_PLACEMENT_3D('',#1454,#1137,#1138);
#1030=AXIS2_PLACEMENT_3D('',#1479,#1140,#1141);
#1031=AXIS2_PLACEMENT_3D('',#1482,#1143,#1144);
#1032=AXIS2_PLACEMENT_3D('',#1483,#1145,#1146);
#1033=AXIS2_PLACEMENT_3D('',#1487,#1148,#1149);
#1034=AXIS2_PLACEMENT_3D('',#1491,#1151,#1152);
#1035=AXIS2_PLACEMENT_3D('',#1493,#1154,#1155);
#1036=AXIS2_PLACEMENT_3D('',#1518,#1157,#1158);
#1037=AXIS2_PLACEMENT_3D('',#1521,#1160,#1161);
#1038=AXIS2_PLACEMENT_3D('',#1522,#1162,#1163);
#1039=AXIS2_PLACEMENT_3D('',#1526,#1165,#1166);
#1040=AXIS2_PLACEMENT_3D('',#1530,#1168,#1169);
#1041=AXIS2_PLACEMENT_3D('',#1532,#1171,#1172);
#1042=AXIS2_PLACEMENT_3D('',#1546,#1180,#1181);
#1043=AXIS2_PLACEMENT_3D('',#1557,#1188,#1189);
#1044=AXIS2_PLACEMENT_3D('',#1568,#1196,#1197);
#1045=AXIS2_PLACEMENT_3D('',#1577,#1202,#1203);
#1046=AXIS2_PLACEMENT_3D('',#1583,#1207,#1208);
#1047=AXIS2_PLACEMENT_3D('',#1585,#1209,#1210);
#1048=AXIS2_PLACEMENT_3D('',#1589,#1212,#1213);
#1049=AXIS2_PLACEMENT_3D('',#1593,#1215,#1216);
#1050=AXIS2_PLACEMENT_3D('',#1596,#1218,#1219);
#1051=AXIS2_PLACEMENT_3D('',#1600,#1221,#1222);
#1052=AXIS2_PLACEMENT_3D('',#1604,#1224,#1225);
#1053=AXIS2_PLACEMENT_3D('',#1608,#1227,#1228);
#1054=AXIS2_PLACEMENT_3D('',#1612,#1230,#1231);
#1055=AXIS2_PLACEMENT_3D('',#1615,#1233,#1234);
#1056=AXIS2_PLACEMENT_3D('',#1619,#1236,#1237);
#1057=AXIS2_PLACEMENT_3D('',#1623,#1239,#1240);
#1058=AXIS2_PLACEMENT_3D('',#1626,#1242,#1243);
#1059=AXIS2_PLACEMENT_3D('',#1628,#1244,#1245);
#1060=AXIS2_PLACEMENT_3D('',#1632,#1247,#1248);
#1061=AXIS2_PLACEMENT_3D('',#1636,#1250,#1251);
#1062=AXIS2_PLACEMENT_3D('',#1639,#1253,#1254);
#1063=AXIS2_PLACEMENT_3D('',#1648,#1259,#1260);
#1064=AXIS2_PLACEMENT_3D('',#1654,#1264,#1265);
#1065=AXIS2_PLACEMENT_3D('',#1658,#1268,#1269);
#1066=AXIS2_PLACEMENT_3D('',#1662,#1272,#1273);
#1067=AXIS2_PLACEMENT_3D('',#1664,#1275,#1276);
#1068=AXIS2_PLACEMENT_3D('',#1670,#1280,#1281);
#1069=AXIS2_PLACEMENT_3D('',#1672,#1283,#1284);
#1070=AXIS2_PLACEMENT_3D('',#1674,#1286,#1287);
#1071=AXIS2_PLACEMENT_3D('',#1676,#1289,#1290);
#1072=AXIS2_PLACEMENT_3D('',#1677,#1291,#1292);
#1073=AXIS2_PLACEMENT_3D('',#1680,#1295,#1296);
#1074=AXIS2_PLACEMENT_3D('',#1681,#1297,#1298);
#1075=AXIS2_PLACEMENT_3D('',#1684,#1301,#1302);
#1076=AXIS2_PLACEMENT_3D('',#1686,#1304,#1305);
#1077=AXIS2_PLACEMENT_3D('',#1688,#1307,#1308);
#1078=AXIS2_PLACEMENT_3D('',#1690,#1310,#1311);
#1079=AXIS2_PLACEMENT_3D('',#1692,#1313,#1314);
#1080=AXIS2_PLACEMENT_3D('',#1694,#1316,#1317);
#1081=AXIS2_PLACEMENT_3D('',#1696,#1319,#1320);
#1082=AXIS2_PLACEMENT_3D('',#1697,#1321,#1322);
#1083=AXIS2_PLACEMENT_3D('',#1699,#1324,#1325);
#1084=AXIS2_PLACEMENT_3D('',#1701,#1327,#1328);
#1085=AXIS2_PLACEMENT_3D('',#1703,#1330,#1331);
#1086=AXIS2_PLACEMENT_3D('',#1705,#1333,#1334);
#1087=AXIS2_PLACEMENT_3D('',#1707,#1336,#1337);
#1088=AXIS2_PLACEMENT_3D('',#1709,#1339,#1340);
#1089=AXIS2_PLACEMENT_3D('',#1710,#1341,#1342);
#1090=AXIS2_PLACEMENT_3D('',#1712,#1344,#1345);
#1091=AXIS2_PLACEMENT_3D('',#1714,#1347,#1348);
#1092=AXIS2_PLACEMENT_3D('',#1716,#1350,#1351);
#1093=AXIS2_PLACEMENT_3D('',#1718,#1353,#1354);
#1094=AXIS2_PLACEMENT_3D('',#1720,#1356,#1357);
#1095=AXIS2_PLACEMENT_3D('',#1722,#1359,#1360);
#1096=AXIS2_PLACEMENT_3D('',#1723,#1361,#1362);
#1097=AXIS2_PLACEMENT_3D('',#1725,#1364,#1365);
#1098=AXIS2_PLACEMENT_3D('',#1727,#1367,#1368);
#1099=AXIS2_PLACEMENT_3D('',#1729,#1370,#1371);
#1100=AXIS2_PLACEMENT_3D('',#1731,#1373,#1374);
#1101=DIRECTION('axis',(0.,0.,1.));
#1102=DIRECTION('refdir',(1.,0.,0.));
#1103=DIRECTION('center_axis',(-1.,0.,0.));
#1104=DIRECTION('ref_axis',(0.,-0.707106781186548,-0.707106781186548));
#1105=DIRECTION('',(1.,0.,0.));
#1106=DIRECTION('center_axis',(1.,4.27008855625059E-16,0.));
#1107=DIRECTION('ref_axis',(0.,-0.707106781186548,-0.707106781186548));
#1108=DIRECTION('',(-1.,0.,0.));
#1109=DIRECTION('center_axis',(-1.,4.27008855625059E-16,0.));
#1110=DIRECTION('ref_axis',(0.,-0.707106781186548,-0.707106781186548));
#1111=DIRECTION('center_axis',(0.,0.,1.));
#1112=DIRECTION('ref_axis',(1.,0.,0.));
#1113=DIRECTION('',(-4.27008855625059E-16,1.,0.));
#1114=DIRECTION('center_axis',(0.,0.,1.));
#1115=DIRECTION('ref_axis',(1.,-1.77635683940025E-15,0.));
#1116=DIRECTION('',(-1.,0.,0.));
#1117=DIRECTION('center_axis',(0.,0.,1.));
#1118=DIRECTION('ref_axis',(8.88178419700127E-16,1.,0.));
#1119=DIRECTION('',(-4.27008855625059E-16,-1.,0.));
#1120=DIRECTION('center_axis',(0.,-1.,0.));
#1121=DIRECTION('ref_axis',(0.707106781186548,0.,-0.707106781186548));
#1122=DIRECTION('',(0.,1.,0.));
#1123=DIRECTION('center_axis',(4.27008855625059E-16,1.,0.));
#1124=DIRECTION('ref_axis',(0.707106781186548,0.,-0.707106781186548));
#1125=DIRECTION('',(0.,-1.,0.));
#1126=DIRECTION('center_axis',(0.,-1.,0.));
#1127=DIRECTION('ref_axis',(0.707106781186548,0.,-0.707106781186548));
#1128=DIRECTION('center_axis',(0.,0.,1.));
#1129=DIRECTION('ref_axis',(1.,0.,0.));
#1130=DIRECTION('',(-1.,4.27008855625059E-16,0.));
#1131=DIRECTION('center_axis',(0.,0.,1.));
#1132=DIRECTION('ref_axis',(-8.88178419700124E-16,1.,0.));
#1133=DIRECTION('',(0.,-1.,0.));
#1134=DIRECTION('center_axis',(0.,0.,1.));
#1135=DIRECTION('ref_axis',(-1.,8.88178419700126E-16,0.));
#1136=DIRECTION('',(1.,0.,0.));
#1137=DIRECTION('center_axis',(0.,1.,0.));
#1138=DIRECTION('ref_axis',(-0.707106781186548,0.,-0.707106781186548));
#1139=DIRECTION('',(0.,-1.,0.));
#1140=DIRECTION('center_axis',(0.,-1.,0.));
#1141=DIRECTION('ref_axis',(-0.707106781186548,0.,-0.707106781186548));
#1142=DIRECTION('',(0.,1.,0.));
#1143=DIRECTION('center_axis',(0.,1.,0.));
#1144=DIRECTION('ref_axis',(-0.707106781186548,0.,-0.707106781186548));
#1145=DIRECTION('center_axis',(0.,0.,1.));
#1146=DIRECTION('ref_axis',(1.,0.,0.));
#1147=DIRECTION('',(1.,0.,0.));
#1148=DIRECTION('center_axis',(0.,0.,1.));
#1149=DIRECTION('ref_axis',(-8.88178419700126E-16,-1.,0.));
#1150=DIRECTION('',(0.,1.,0.));
#1151=DIRECTION('center_axis',(0.,0.,1.));
#1152=DIRECTION('ref_axis',(1.,-8.88178419700126E-16,0.));
#1153=DIRECTION('',(-1.,0.,0.));
#1154=DIRECTION('center_axis',(1.,0.,0.));
#1155=DIRECTION('ref_axis',(0.,0.707106781186548,-0.707106781186548));
#1156=DIRECTION('',(-1.,0.,0.));
#1157=DIRECTION('center_axis',(-1.,-4.27008855625059E-16,0.));
#1158=DIRECTION('ref_axis',(0.,0.707106781186548,-0.707106781186548));
#1159=DIRECTION('',(1.,0.,0.));
#1160=DIRECTION('center_axis',(1.,-4.27008855625059E-16,0.));
#1161=DIRECTION('ref_axis',(0.,0.707106781186548,-0.707106781186548));
#1162=DIRECTION('center_axis',(0.,0.,1.));
#1163=DIRECTION('ref_axis',(1.,0.,0.));
#1164=DIRECTION('',(4.27008855625059E-16,-1.,0.));
#1165=DIRECTION('center_axis',(0.,0.,1.));
#1166=DIRECTION('ref_axis',(-1.,1.77635683940025E-15,0.));
#1167=DIRECTION('',(1.,0.,0.));
#1168=DIRECTION('center_axis',(0.,0.,1.));
#1169=DIRECTION('ref_axis',(-8.88178419700127E-16,-1.,0.));
#1170=DIRECTION('',(4.27008855625059E-16,1.,0.));
#1171=DIRECTION('center_axis',(0.,1.,0.));
#1172=DIRECTION('ref_axis',(-1.,0.,0.));
#1173=DIRECTION('',(0.,0.,1.));
#1174=DIRECTION('',(1.,0.,0.));
#1175=DIRECTION('',(0.,0.,1.));
#1176=DIRECTION('',(-1.,0.,0.));
#1177=DIRECTION('',(0.,0.,1.));
#1178=DIRECTION('',(1.,0.,0.));
#1179=DIRECTION('',(0.,0.,1.));
#1180=DIRECTION('center_axis',(1.,0.,0.));
#1181=DIRECTION('ref_axis',(0.,1.,0.));
#1182=DIRECTION('',(0.,0.,1.));
#1183=DIRECTION('',(0.,-1.,0.));
#1184=DIRECTION('',(0.,1.,0.));
#1185=DIRECTION('',(0.,0.,1.));
#1186=DIRECTION('',(0.,-1.,0.));
#1187=DIRECTION('',(0.,0.,1.));
#1188=DIRECTION('center_axis',(0.,-1.,0.));
#1189=DIRECTION('ref_axis',(1.,0.,0.));
#1190=DIRECTION('',(0.,0.,1.));
#1191=DIRECTION('',(-1.,0.,0.));
#1192=DIRECTION('',(1.,0.,0.));
#1193=DIRECTION('',(0.,0.,1.));
#1194=DIRECTION('',(-1.,0.,0.));
#1195=DIRECTION('',(0.,0.,1.));
#1196=DIRECTION('center_axis',(0.,0.,1.));
#1197=DIRECTION('ref_axis',(1.,0.,0.));
#1198=DIRECTION('',(-1.,0.,0.));
#1199=DIRECTION('',(0.,1.,0.));
#1200=DIRECTION('',(1.,0.,0.));
#1201=DIRECTION('',(0.,-1.,0.));
#1202=DIRECTION('center_axis',(0.,-1.,0.));
#1203=DIRECTION('ref_axis',(1.,0.,0.));
#1204=DIRECTION('',(0.,0.,1.));
#1205=DIRECTION('',(1.,0.,0.));
#1206=DIRECTION('',(0.,0.,1.));
#1207=DIRECTION('center_axis',(0.,0.,1.));
#1208=DIRECTION('ref_axis',(1.,0.,0.));
#1209=DIRECTION('center_axis',(0.,0.,1.));
#1210=DIRECTION('ref_axis',(4.93432455388959E-15,1.,0.));
#1211=DIRECTION('',(-4.27008855625059E-16,-1.,0.));
#1212=DIRECTION('center_axis',(0.,0.,1.));
#1213=DIRECTION('ref_axis',(-8.88178419700127E-16,-1.,0.));
#1214=DIRECTION('',(-1.,0.,0.));
#1215=DIRECTION('center_axis',(0.,0.,1.));
#1216=DIRECTION('ref_axis',(-1.,1.77635683940025E-15,0.));
#1217=DIRECTION('',(-4.27008855625059E-16,1.,0.));
#1218=DIRECTION('center_axis',(0.,0.,1.));
#1219=DIRECTION('ref_axis',(1.,0.,0.));
#1220=DIRECTION('',(0.,1.,0.));
#1221=DIRECTION('center_axis',(0.,0.,1.));
#1222=DIRECTION('ref_axis',(1.,-4.93432455388962E-15,0.));
#1223=DIRECTION('',(1.,0.,0.));
#1224=DIRECTION('center_axis',(0.,0.,1.));
#1225=DIRECTION('ref_axis',(-1.,8.88178419700126E-16,0.));
#1226=DIRECTION('',(0.,-1.,0.));
#1227=DIRECTION('center_axis',(0.,0.,1.));
#1228=DIRECTION('ref_axis',(-8.88178419700124E-16,1.,0.));
#1229=DIRECTION('',(-1.,4.27008855625059E-16,0.));
#1230=DIRECTION('center_axis',(0.,0.,1.));
#1231=DIRECTION('ref_axis',(-4.93432455388961E-15,-1.,0.));
#1232=DIRECTION('',(0.,1.,0.));
#1233=DIRECTION('center_axis',(0.,0.,1.));
#1234=DIRECTION('ref_axis',(-4.93432455388959E-15,-1.,0.));
#1235=DIRECTION('',(4.27008855625059E-16,1.,0.));
#1236=DIRECTION('center_axis',(0.,0.,1.));
#1237=DIRECTION('ref_axis',(8.88178419700127E-16,1.,0.));
#1238=DIRECTION('',(1.,0.,0.));
#1239=DIRECTION('center_axis',(0.,0.,1.));
#1240=DIRECTION('ref_axis',(1.,-1.77635683940025E-15,0.));
#1241=DIRECTION('',(4.27008855625059E-16,-1.,0.));
#1242=DIRECTION('center_axis',(0.,0.,1.));
#1243=DIRECTION('ref_axis',(-1.,0.,0.));
#1244=DIRECTION('center_axis',(0.,0.,1.));
#1245=DIRECTION('ref_axis',(-1.,4.93432455388962E-15,0.));
#1246=DIRECTION('',(-1.,0.,0.));
#1247=DIRECTION('center_axis',(0.,0.,1.));
#1248=DIRECTION('ref_axis',(1.,-8.88178419700126E-16,0.));
#1249=DIRECTION('',(0.,1.,0.));
#1250=DIRECTION('center_axis',(0.,0.,1.));
#1251=DIRECTION('ref_axis',(-8.88178419700126E-16,-1.,0.));
#1252=DIRECTION('',(1.,0.,0.));
#1253=DIRECTION('center_axis',(0.,0.,1.));
#1254=DIRECTION('ref_axis',(4.93432455388961E-15,1.,0.));
#1255=DIRECTION('',(1.,0.,0.));
#1256=DIRECTION('',(0.,1.,0.));
#1257=DIRECTION('',(-1.,0.,0.));
#1258=DIRECTION('',(0.,-1.,0.));
#1259=DIRECTION('center_axis',(0.,-1.,0.));
#1260=DIRECTION('ref_axis',(1.,0.,0.));
#1261=DIRECTION('',(0.,0.,1.));
#1262=DIRECTION('',(-1.,0.,0.));
#1263=DIRECTION('',(0.,0.,1.));
#1264=DIRECTION('center_axis',(-1.,0.,0.));
#1265=DIRECTION('ref_axis',(0.,-1.,0.));
#1266=DIRECTION('',(0.,0.,1.));
#1267=DIRECTION('',(0.,1.,0.));
#1268=DIRECTION('center_axis',(0.,1.,0.));
#1269=DIRECTION('ref_axis',(-1.,0.,0.));
#1270=DIRECTION('',(0.,0.,1.));
#1271=DIRECTION('',(1.,0.,0.));
#1272=DIRECTION('center_axis',(1.,0.,0.));
#1273=DIRECTION('ref_axis',(0.,1.,0.));
#1274=DIRECTION('',(0.,-1.,0.));
#1275=DIRECTION('center_axis',(0.,0.,1.));
#1276=DIRECTION('ref_axis',(1.,0.,0.));
#1277=DIRECTION('',(0.,1.,0.));
#1278=DIRECTION('',(-1.,0.,0.));
#1279=DIRECTION('',(0.,-1.,0.));
#1280=DIRECTION('center_axis',(1.,0.,0.));
#1281=DIRECTION('ref_axis',(0.,1.,0.));
#1282=DIRECTION('',(0.,0.,1.));
#1283=DIRECTION('center_axis',(0.,0.,1.));
#1284=DIRECTION('ref_axis',(1.,0.,0.));
#1285=DIRECTION('',(0.,-1.,0.));
#1286=DIRECTION('center_axis',(0.,1.,0.));
#1287=DIRECTION('ref_axis',(-1.,0.,0.));
#1288=DIRECTION('',(0.,0.,1.));
#1289=DIRECTION('center_axis',(-1.,0.,0.));
#1290=DIRECTION('ref_axis',(0.,-1.,0.));
#1291=DIRECTION('center_axis',(-1.,-4.27008855625059E-16,0.));
#1292=DIRECTION('ref_axis',(4.27008855625059E-16,-1.,0.));
#1293=DIRECTION('',(0.,0.,1.));
#1294=DIRECTION('',(0.,0.,1.));
#1295=DIRECTION('center_axis',(0.,0.,1.));
#1296=DIRECTION('ref_axis',(1.,0.,0.));
#1297=DIRECTION('center_axis',(-1.,0.,0.));
#1298=DIRECTION('ref_axis',(0.,-1.,0.));
#1299=DIRECTION('',(0.,0.,1.));
#1300=DIRECTION('',(0.,0.,1.));
#1301=DIRECTION('center_axis',(0.,0.,1.));
#1302=DIRECTION('ref_axis',(1.,-4.93432455388962E-15,0.));
#1303=DIRECTION('',(0.,0.,1.));
#1304=DIRECTION('center_axis',(0.,-1.,0.));
#1305=DIRECTION('ref_axis',(1.,0.,0.));
#1306=DIRECTION('',(0.,0.,1.));
#1307=DIRECTION('center_axis',(0.,0.,1.));
#1308=DIRECTION('ref_axis',(-1.,8.88178419700126E-16,0.));
#1309=DIRECTION('',(0.,0.,1.));
#1310=DIRECTION('center_axis',(-1.,0.,0.));
#1311=DIRECTION('ref_axis',(0.,-1.,0.));
#1312=DIRECTION('',(0.,0.,1.));
#1313=DIRECTION('center_axis',(0.,0.,1.));
#1314=DIRECTION('ref_axis',(-8.88178419700124E-16,1.,0.));
#1315=DIRECTION('',(0.,0.,1.));
#1316=DIRECTION('center_axis',(4.27008855625059E-16,1.,0.));
#1317=DIRECTION('ref_axis',(-1.,4.27008855625059E-16,0.));
#1318=DIRECTION('',(0.,0.,1.));
#1319=DIRECTION('center_axis',(0.,0.,1.));
#1320=DIRECTION('ref_axis',(-4.93432455388961E-15,-1.,0.));
#1321=DIRECTION('center_axis',(0.,0.,1.));
#1322=DIRECTION('ref_axis',(-4.93432455388959E-15,-1.,0.));
#1323=DIRECTION('',(0.,0.,1.));
#1324=DIRECTION('center_axis',(-1.,4.27008855625059E-16,0.));
#1325=DIRECTION('ref_axis',(-4.27008855625059E-16,-1.,0.));
#1326=DIRECTION('',(0.,0.,1.));
#1327=DIRECTION('center_axis',(0.,0.,1.));
#1328=DIRECTION('ref_axis',(8.88178419700127E-16,1.,0.));
#1329=DIRECTION('',(0.,0.,1.));
#1330=DIRECTION('center_axis',(0.,1.,0.));
#1331=DIRECTION('ref_axis',(-1.,0.,0.));
#1332=DIRECTION('',(0.,0.,1.));
#1333=DIRECTION('center_axis',(0.,0.,1.));
#1334=DIRECTION('ref_axis',(1.,-1.77635683940025E-15,0.));
#1335=DIRECTION('',(0.,0.,1.));
#1336=DIRECTION('center_axis',(1.,4.27008855625059E-16,0.));
#1337=DIRECTION('ref_axis',(-4.27008855625059E-16,1.,0.));
#1338=DIRECTION('',(0.,0.,1.));
#1339=DIRECTION('center_axis',(0.,0.,1.));
#1340=DIRECTION('ref_axis',(-1.,0.,0.));
#1341=DIRECTION('center_axis',(0.,0.,1.));
#1342=DIRECTION('ref_axis',(-1.,4.93432455388962E-15,0.));
#1343=DIRECTION('',(0.,0.,1.));
#1344=DIRECTION('center_axis',(0.,1.,0.));
#1345=DIRECTION('ref_axis',(-1.,0.,0.));
#1346=DIRECTION('',(0.,0.,1.));
#1347=DIRECTION('center_axis',(0.,0.,1.));
#1348=DIRECTION('ref_axis',(1.,-8.88178419700126E-16,0.));
#1349=DIRECTION('',(0.,0.,1.));
#1350=DIRECTION('center_axis',(1.,0.,0.));
#1351=DIRECTION('ref_axis',(0.,1.,0.));
#1352=DIRECTION('',(0.,0.,1.));
#1353=DIRECTION('center_axis',(0.,0.,1.));
#1354=DIRECTION('ref_axis',(-8.88178419700126E-16,-1.,0.));
#1355=DIRECTION('',(0.,0.,1.));
#1356=DIRECTION('center_axis',(0.,-1.,0.));
#1357=DIRECTION('ref_axis',(1.,0.,0.));
#1358=DIRECTION('',(0.,0.,1.));
#1359=DIRECTION('center_axis',(0.,0.,1.));
#1360=DIRECTION('ref_axis',(4.93432455388961E-15,1.,0.));
#1361=DIRECTION('center_axis',(0.,0.,1.));
#1362=DIRECTION('ref_axis',(4.93432455388959E-15,1.,0.));
#1363=DIRECTION('',(0.,0.,1.));
#1364=DIRECTION('center_axis',(1.,-4.27008855625059E-16,0.));
#1365=DIRECTION('ref_axis',(4.27008855625059E-16,1.,0.));
#1366=DIRECTION('',(0.,0.,1.));
#1367=DIRECTION('center_axis',(0.,0.,1.));
#1368=DIRECTION('ref_axis',(-8.88178419700127E-16,-1.,0.));
#1369=DIRECTION('',(0.,0.,1.));
#1370=DIRECTION('center_axis',(0.,-1.,0.));
#1371=DIRECTION('ref_axis',(1.,0.,0.));
#1372=DIRECTION('',(0.,0.,1.));
#1373=DIRECTION('center_axis',(0.,0.,1.));
#1374=DIRECTION('ref_axis',(-1.,1.77635683940025E-15,0.));
#1375=CARTESIAN_POINT('',(0.,0.,0.));
#1376=CARTESIAN_POINT('Origin',(-1.09,4.8,1.));
#1377=CARTESIAN_POINT('',(-2.18,4.3,1.));
#1378=CARTESIAN_POINT('',(-2.,4.48,0.61581254575403));
#1379=CARTESIAN_POINT('Ctrl Pts',(-2.,4.48,0.615812545754029));
#1380=CARTESIAN_POINT('Ctrl Pts',(-2.,4.45387352571129,0.637573984551645));
#1381=CARTESIAN_POINT('Ctrl Pts',(-2.00589591049512,4.42844266448699,0.663557767055126));
#1382=CARTESIAN_POINT('Ctrl Pts',(-2.02536488257478,4.38482446998179,0.719148625094379));
#1383=CARTESIAN_POINT('Ctrl Pts',(-2.03884621314666,4.36659534562618,0.748754990385741));
#1384=CARTESIAN_POINT('Ctrl Pts',(-2.06970328191682,4.33573827685603,0.8105144481805));
#1385=CARTESIAN_POINT('Ctrl Pts',(-2.09069827166959,4.32188829399895,0.848452168060881));
#1386=CARTESIAN_POINT('Ctrl Pts',(-2.13516912948439,4.30403320336004,0.925337596333689));
#1387=CARTESIAN_POINT('Ctrl Pts',(-2.15858728672416,4.3,0.964312144540274));
#1388=CARTESIAN_POINT('Ctrl Pts',(-2.18,4.3,1.));
#1389=CARTESIAN_POINT('',(2.18,4.3,1.));
#1390=CARTESIAN_POINT('',(-1.09,4.3,1.));
#1391=CARTESIAN_POINT('',(2.,4.48,0.61581254575403));
#1392=CARTESIAN_POINT('Ctrl Pts',(2.18,4.3,1.));
#1393=CARTESIAN_POINT('Ctrl Pts',(2.13958846111621,4.3,0.932647435193687));
#1394=CARTESIAN_POINT('Ctrl Pts',(2.09615037557889,4.31425015996868,0.860691749093017));
#1395=CARTESIAN_POINT('Ctrl Pts',(2.04433392968003,4.35949970398274,0.760626110301064));
#1396=CARTESIAN_POINT('Ctrl Pts',(2.02929857352816,4.37840464020277,0.728589875924682));
#1397=CARTESIAN_POINT('Ctrl Pts',(2.00722316606323,4.42360227436936,0.668743520048419));
#1398=CARTESIAN_POINT('Ctrl Pts',(2.,4.4498236456139,0.640947237938353));
#1399=CARTESIAN_POINT('Ctrl Pts',(2.,4.48,0.615812545754029));
#1400=CARTESIAN_POINT('',(2.,4.8,0.5));
#1401=CARTESIAN_POINT('Origin',(2.,4.8,1.));
#1402=CARTESIAN_POINT('',(-2.,4.8,0.5));
#1403=CARTESIAN_POINT('',(-1.09,4.8,0.5));
#1404=CARTESIAN_POINT('Origin',(-2.,4.8,1.));
#1405=CARTESIAN_POINT('Origin',(0.,0.,0.5));
#1406=CARTESIAN_POINT('',(2.,5.,0.5));
#1407=CARTESIAN_POINT('',(2.,5.,0.5));
#1408=CARTESIAN_POINT('',(1.,6.,0.5));
#1409=CARTESIAN_POINT('Origin',(1.,5.,0.5));
#1410=CARTESIAN_POINT('',(-1.,6.,0.5));
#1411=CARTESIAN_POINT('',(-1.,6.,0.5));
#1412=CARTESIAN_POINT('',(-2.,5.,0.5));
#1413=CARTESIAN_POINT('Origin',(-1.,5.,0.5));
#1414=CARTESIAN_POINT('',(-2.,4.48,0.5));
#1415=CARTESIAN_POINT('Origin',(-5.8,-0.84,1.));
#1416=CARTESIAN_POINT('',(-5.3,-1.68,1.));
#1417=CARTESIAN_POINT('',(-5.48,-1.5,0.61581254575403));
#1418=CARTESIAN_POINT('Ctrl Pts',(-5.48,-1.5,0.61581254575403));
#1419=CARTESIAN_POINT('Ctrl Pts',(-5.45387352571129,-1.5,0.637573984551646));
#1420=CARTESIAN_POINT('Ctrl Pts',(-5.42844266448699,-1.50589591049512,0.663557767055127));
#1421=CARTESIAN_POINT('Ctrl Pts',(-5.38482446998179,-1.52536488257478,0.719148625094379));
#1422=CARTESIAN_POINT('Ctrl Pts',(-5.36659534562618,-1.53884621314666,0.748754990385742));
#1423=CARTESIAN_POINT('Ctrl Pts',(-5.33573827685603,-1.56970328191682,0.8105144481805));
#1424=CARTESIAN_POINT('Ctrl Pts',(-5.32188829399895,-1.59069827166959,0.848452168060881));
#1425=CARTESIAN_POINT('Ctrl Pts',(-5.30403320336004,-1.63516912948439,0.925337596333689));
#1426=CARTESIAN_POINT('Ctrl Pts',(-5.3,-1.65858728672416,0.964312144540274));
#1427=CARTESIAN_POINT('Ctrl Pts',(-5.3,-1.68,1.));
#1428=CARTESIAN_POINT('',(-5.3,1.68,1.));
#1429=CARTESIAN_POINT('',(-5.3,-0.84,1.));
#1430=CARTESIAN_POINT('',(-5.48,1.5,0.61581254575403));
#1431=CARTESIAN_POINT('Ctrl Pts',(-5.3,1.68,1.));
#1432=CARTESIAN_POINT('Ctrl Pts',(-5.3,1.63958846111621,0.932647435193687));
#1433=CARTESIAN_POINT('Ctrl Pts',(-5.31425015996868,1.59615037557889,0.860691749093019));
#1434=CARTESIAN_POINT('Ctrl Pts',(-5.35949970398274,1.54433392968003,0.760626110301066));
#1435=CARTESIAN_POINT('Ctrl Pts',(-5.37840464020277,1.52929857352815,0.728589875924684));
#1436=CARTESIAN_POINT('Ctrl Pts',(-5.42360227436936,1.50722316606323,0.66874352004842));
#1437=CARTESIAN_POINT('Ctrl Pts',(-5.4498236456139,1.5,0.640947237938354));
#1438=CARTESIAN_POINT('Ctrl Pts',(-5.48,1.5,0.61581254575403));
#1439=CARTESIAN_POINT('',(-5.8,1.5,0.5));
#1440=CARTESIAN_POINT('Origin',(-5.8,1.5,1.));
#1441=CARTESIAN_POINT('',(-5.8,-1.5,0.5));
#1442=CARTESIAN_POINT('',(-5.8,-0.84,0.5));
#1443=CARTESIAN_POINT('Origin',(-5.8,-1.5,1.));
#1444=CARTESIAN_POINT('Origin',(0.,0.,0.5));
#1445=CARTESIAN_POINT('',(-6.,1.5,0.5));
#1446=CARTESIAN_POINT('',(-5.48,1.5,0.5));
#1447=CARTESIAN_POINT('',(-7.,0.5,0.5));
#1448=CARTESIAN_POINT('Origin',(-6.,0.499999999999999,0.5));
#1449=CARTESIAN_POINT('',(-7.,-0.5,0.5));
#1450=CARTESIAN_POINT('',(-7.,0.5,0.5));
#1451=CARTESIAN_POINT('',(-6.,-1.5,0.5));
#1452=CARTESIAN_POINT('Origin',(-6.,-0.500000000000001,0.5));
#1453=CARTESIAN_POINT('',(-6.,-1.5,0.5));
#1454=CARTESIAN_POINT('Origin',(5.8,-2.15,1.));
#1455=CARTESIAN_POINT('',(5.3,1.68,1.));
#1456=CARTESIAN_POINT('',(5.48,1.5,0.61581254575403));
#1457=CARTESIAN_POINT('Ctrl Pts',(5.48,1.5,0.61581254575403));
#1458=CARTESIAN_POINT('Ctrl Pts',(5.45387352571129,1.5,0.637573984551646));
#1459=CARTESIAN_POINT('Ctrl Pts',(5.42844266448699,1.50589591049512,0.663557767055127));
#1460=CARTESIAN_POINT('Ctrl Pts',(5.38482446998179,1.52536488257478,0.719148625094379));
#1461=CARTESIAN_POINT('Ctrl Pts',(5.36659534562618,1.53884621314666,0.748754990385742));
#1462=CARTESIAN_POINT('Ctrl Pts',(5.33573827685603,1.56970328191682,0.8105144481805));
#1463=CARTESIAN_POINT('Ctrl Pts',(5.32188829399895,1.59069827166959,0.848452168060882));
#1464=CARTESIAN_POINT('Ctrl Pts',(5.30403320336004,1.63516912948439,0.925337596333689));
#1465=CARTESIAN_POINT('Ctrl Pts',(5.3,1.65858728672416,0.964312144540274));
#1466=CARTESIAN_POINT('Ctrl Pts',(5.3,1.68,1.));
#1467=CARTESIAN_POINT('',(5.3,-1.68,1.));
#1468=CARTESIAN_POINT('',(5.3,-2.15,1.));
#1469=CARTESIAN_POINT('',(5.48,-1.5,0.61581254575403));
#1470=CARTESIAN_POINT('Ctrl Pts',(5.3,-1.68,1.));
#1471=CARTESIAN_POINT('Ctrl Pts',(5.3,-1.63958846111621,0.932647435193687));
#1472=CARTESIAN_POINT('Ctrl Pts',(5.31425015996868,-1.59615037557889,0.860691749093019));
#1473=CARTESIAN_POINT('Ctrl Pts',(5.35949970398274,-1.54433392968003,0.760626110301065));
#1474=CARTESIAN_POINT('Ctrl Pts',(5.37840464020277,-1.52929857352815,0.728589875924684));
#1475=CARTESIAN_POINT('Ctrl Pts',(5.42360227436936,-1.50722316606323,0.66874352004842));
#1476=CARTESIAN_POINT('Ctrl Pts',(5.4498236456139,-1.5,0.640947237938354));
#1477=CARTESIAN_POINT('Ctrl Pts',(5.48,-1.5,0.61581254575403));
#1478=CARTESIAN_POINT('',(5.8,-1.5,0.5));
#1479=CARTESIAN_POINT('Origin',(5.8,-1.5,1.));
#1480=CARTESIAN_POINT('',(5.8,1.5,0.5));
#1481=CARTESIAN_POINT('',(5.8,-2.15,0.5));
#1482=CARTESIAN_POINT('Origin',(5.8,1.5,1.));
#1483=CARTESIAN_POINT('Origin',(0.,0.,0.5));
#1484=CARTESIAN_POINT('',(6.,-1.5,0.5));
#1485=CARTESIAN_POINT('',(5.48,-1.5,0.5));
#1486=CARTESIAN_POINT('',(7.,-0.5,0.5));
#1487=CARTESIAN_POINT('Origin',(6.,-0.500000000000001,0.5));
#1488=CARTESIAN_POINT('',(7.,0.5,0.5));
#1489=CARTESIAN_POINT('',(7.,-0.5,0.5));
#1490=CARTESIAN_POINT('',(6.,1.5,0.5));
#1491=CARTESIAN_POINT('Origin',(6.,0.500000000000001,0.5));
#1492=CARTESIAN_POINT('',(6.,1.5,0.5));
#1493=CARTESIAN_POINT('Origin',(-2.65,-4.8,1.));
#1494=CARTESIAN_POINT('',(2.18,-4.3,1.));
#1495=CARTESIAN_POINT('',(2.,-4.48,0.615812545754029));
#1496=CARTESIAN_POINT('Ctrl Pts',(2.,-4.48,0.615812545754029));
#1497=CARTESIAN_POINT('Ctrl Pts',(2.,-4.45387352571129,0.637573984551645));
#1498=CARTESIAN_POINT('Ctrl Pts',(2.00589591049512,-4.42844266448699,0.663557767055125));
#1499=CARTESIAN_POINT('Ctrl Pts',(2.02536488257478,-4.38482446998179,0.719148625094378));
#1500=CARTESIAN_POINT('Ctrl Pts',(2.03884621314666,-4.36659534562618,0.748754990385741));
#1501=CARTESIAN_POINT('Ctrl Pts',(2.06970328191682,-4.33573827685603,0.8105144481805));
#1502=CARTESIAN_POINT('Ctrl Pts',(2.09069827166959,-4.32188829399895,0.848452168060881));
#1503=CARTESIAN_POINT('Ctrl Pts',(2.13516912948439,-4.30403320336004,0.925337596333689));
#1504=CARTESIAN_POINT('Ctrl Pts',(2.15858728672416,-4.3,0.964312144540274));
#1505=CARTESIAN_POINT('Ctrl Pts',(2.18,-4.3,1.));
#1506=CARTESIAN_POINT('',(-2.18,-4.3,1.));
#1507=CARTESIAN_POINT('',(-2.65,-4.3,1.));
#1508=CARTESIAN_POINT('',(-2.,-4.48,0.61581254575403));
#1509=CARTESIAN_POINT('Ctrl Pts',(-2.18,-4.3,1.));
#1510=CARTESIAN_POINT('Ctrl Pts',(-2.13958846111621,-4.3,0.932647435193687));
#1511=CARTESIAN_POINT('Ctrl Pts',(-2.09615037557889,-4.31425015996868,0.860691749093017));
#1512=CARTESIAN_POINT('Ctrl Pts',(-2.04433392968003,-4.35949970398274,0.760626110301064));
#1513=CARTESIAN_POINT('Ctrl Pts',(-2.02929857352816,-4.37840464020277,0.728589875924682));
#1514=CARTESIAN_POINT('Ctrl Pts',(-2.00722316606323,-4.42360227436936,0.668743520048419));
#1515=CARTESIAN_POINT('Ctrl Pts',(-2.,-4.4498236456139,0.640947237938353));
#1516=CARTESIAN_POINT('Ctrl Pts',(-2.,-4.48,0.615812545754029));
#1517=CARTESIAN_POINT('',(-2.,-4.8,0.5));
#1518=CARTESIAN_POINT('Origin',(-2.,-4.8,1.));
#1519=CARTESIAN_POINT('',(2.,-4.8,0.5));
#1520=CARTESIAN_POINT('',(-2.65,-4.8,0.5));
#1521=CARTESIAN_POINT('Origin',(2.,-4.8,1.));
#1522=CARTESIAN_POINT('Origin',(0.,0.,0.5));
#1523=CARTESIAN_POINT('',(-2.,-5.,0.5));
#1524=CARTESIAN_POINT('',(-2.,-5.,0.5));
#1525=CARTESIAN_POINT('',(-1.,-6.,0.5));
#1526=CARTESIAN_POINT('Origin',(-1.,-5.,0.5));
#1527=CARTESIAN_POINT('',(1.,-6.,0.5));
#1528=CARTESIAN_POINT('',(1.,-6.,0.5));
#1529=CARTESIAN_POINT('',(2.,-5.,0.5));
#1530=CARTESIAN_POINT('Origin',(1.,-5.,0.5));
#1531=CARTESIAN_POINT('',(2.,-4.48,0.5));
#1532=CARTESIAN_POINT('Origin',(-2.18,4.3,0.));
#1533=CARTESIAN_POINT('',(-2.18,4.3,0.));
#1534=CARTESIAN_POINT('',(-2.18,4.3,0.));
#1535=CARTESIAN_POINT('',(-5.3,4.3,0.));
#1536=CARTESIAN_POINT('',(-5.3,4.3,0.));
#1537=CARTESIAN_POINT('',(-5.3,4.3,3.));
#1538=CARTESIAN_POINT('',(-5.3,4.3,0.));
#1539=CARTESIAN_POINT('',(5.3,4.3,3.));
#1540=CARTESIAN_POINT('',(2.18,4.3,3.));
#1541=CARTESIAN_POINT('',(5.3,4.3,0.));
#1542=CARTESIAN_POINT('',(5.3,4.3,0.));
#1543=CARTESIAN_POINT('',(2.18,4.3,0.));
#1544=CARTESIAN_POINT('',(2.18,4.3,0.));
#1545=CARTESIAN_POINT('',(2.18,4.3,0.));
#1546=CARTESIAN_POINT('Origin',(5.3,-4.3,0.));
#1547=CARTESIAN_POINT('',(5.3,1.68,0.));
#1548=CARTESIAN_POINT('',(5.3,1.68,0.));
#1549=CARTESIAN_POINT('',(5.3,4.3,0.));
#1550=CARTESIAN_POINT('',(5.3,-4.3,3.));
#1551=CARTESIAN_POINT('',(5.3,-1.68,3.));
#1552=CARTESIAN_POINT('',(5.3,-4.3,0.));
#1553=CARTESIAN_POINT('',(5.3,-4.3,0.));
#1554=CARTESIAN_POINT('',(5.3,-1.68,0.));
#1555=CARTESIAN_POINT('',(5.3,-1.68,0.));
#1556=CARTESIAN_POINT('',(5.3,-1.68,0.));
#1557=CARTESIAN_POINT('Origin',(-5.3,-4.3,0.));
#1558=CARTESIAN_POINT('',(2.18,-4.3,0.));
#1559=CARTESIAN_POINT('',(2.18,-4.3,0.));
#1560=CARTESIAN_POINT('',(5.3,-4.3,0.));
#1561=CARTESIAN_POINT('',(-5.3,-4.3,3.));
#1562=CARTESIAN_POINT('',(-2.18,-4.3,3.));
#1563=CARTESIAN_POINT('',(-5.3,-4.3,0.));
#1564=CARTESIAN_POINT('',(-5.3,-4.3,0.));
#1565=CARTESIAN_POINT('',(-2.18,-4.3,0.));
#1566=CARTESIAN_POINT('',(-2.18,-4.3,0.));
#1567=CARTESIAN_POINT('',(-2.18,-4.3,0.));
#1568=CARTESIAN_POINT('Origin',(0.,0.,2.7));
#1569=CARTESIAN_POINT('',(5.,4.,2.7));
#1570=CARTESIAN_POINT('',(-5.,4.,2.7));
#1571=CARTESIAN_POINT('',(-2.5,4.,2.7));
#1572=CARTESIAN_POINT('',(5.,-4.,2.7));
#1573=CARTESIAN_POINT('',(5.,2.,2.7));
#1574=CARTESIAN_POINT('',(-5.,-4.,2.7));
#1575=CARTESIAN_POINT('',(2.5,-4.,2.7));
#1576=CARTESIAN_POINT('',(-5.,-2.,2.7));
#1577=CARTESIAN_POINT('Origin',(-5.,4.,0.));
#1578=CARTESIAN_POINT('',(-5.,4.,0.3));
#1579=CARTESIAN_POINT('',(-5.,4.,0.));
#1580=CARTESIAN_POINT('',(5.,4.,0.3));
#1581=CARTESIAN_POINT('',(-2.5,4.,0.3));
#1582=CARTESIAN_POINT('',(5.,4.,0.));
#1583=CARTESIAN_POINT('Origin',(0.,0.,0.));
#1584=CARTESIAN_POINT('',(2.,-4.48,0.));
#1585=CARTESIAN_POINT('Origin',(2.18,-4.48,0.));
#1586=CARTESIAN_POINT('',(2.,-5.,0.));
#1587=CARTESIAN_POINT('',(2.,-4.48,0.));
#1588=CARTESIAN_POINT('',(1.,-6.,0.));
#1589=CARTESIAN_POINT('Origin',(1.,-5.,0.));
#1590=CARTESIAN_POINT('',(-1.,-6.,0.));
#1591=CARTESIAN_POINT('',(1.,-6.,0.));
#1592=CARTESIAN_POINT('',(-2.,-5.,0.));
#1593=CARTESIAN_POINT('Origin',(-1.,-5.,0.));
#1594=CARTESIAN_POINT('',(-2.,-4.48,0.));
#1595=CARTESIAN_POINT('',(-2.,-5.,0.));
#1596=CARTESIAN_POINT('Origin',(-2.18,-4.48,0.));
#1597=CARTESIAN_POINT('',(-5.3,-1.68,0.));
#1598=CARTESIAN_POINT('',(-5.3,-4.3,0.));
#1599=CARTESIAN_POINT('',(-5.48,-1.5,0.));
#1600=CARTESIAN_POINT('Origin',(-5.48,-1.68,0.));
#1601=CARTESIAN_POINT('',(-6.,-1.5,0.));
#1602=CARTESIAN_POINT('',(-6.,-1.5,0.));
#1603=CARTESIAN_POINT('',(-7.,-0.5,0.));
#1604=CARTESIAN_POINT('Origin',(-6.,-0.500000000000001,0.));
#1605=CARTESIAN_POINT('',(-7.,0.5,0.));
#1606=CARTESIAN_POINT('',(-7.,0.5,0.));
#1607=CARTESIAN_POINT('',(-6.,1.5,0.));
#1608=CARTESIAN_POINT('Origin',(-6.,0.499999999999999,0.));
#1609=CARTESIAN_POINT('',(-5.48,1.5,0.));
#1610=CARTESIAN_POINT('',(-5.48,1.5,0.));
#1611=CARTESIAN_POINT('',(-5.3,1.68,0.));
#1612=CARTESIAN_POINT('Origin',(-5.48,1.68,0.));
#1613=CARTESIAN_POINT('',(-5.3,1.68,0.));
#1614=CARTESIAN_POINT('',(-2.,4.48,0.));
#1615=CARTESIAN_POINT('Origin',(-2.18,4.48,0.));
#1616=CARTESIAN_POINT('',(-2.,5.,0.));
#1617=CARTESIAN_POINT('',(-2.,4.48,0.));
#1618=CARTESIAN_POINT('',(-1.,6.,0.));
#1619=CARTESIAN_POINT('Origin',(-1.,5.,0.));
#1620=CARTESIAN_POINT('',(1.,6.,0.));
#1621=CARTESIAN_POINT('',(-1.,6.,0.));
#1622=CARTESIAN_POINT('',(2.,5.,0.));
#1623=CARTESIAN_POINT('Origin',(1.,5.,0.));
#1624=CARTESIAN_POINT('',(2.,4.48,0.));
#1625=CARTESIAN_POINT('',(2.,5.,0.));
#1626=CARTESIAN_POINT('Origin',(2.18,4.48,0.));
#1627=CARTESIAN_POINT('',(5.48,1.5,0.));
#1628=CARTESIAN_POINT('Origin',(5.48,1.68,0.));
#1629=CARTESIAN_POINT('',(6.,1.5,0.));
#1630=CARTESIAN_POINT('',(6.,1.5,0.));
#1631=CARTESIAN_POINT('',(7.,0.5,0.));
#1632=CARTESIAN_POINT('Origin',(6.,0.500000000000001,0.));
#1633=CARTESIAN_POINT('',(7.,-0.5,0.));
#1634=CARTESIAN_POINT('',(7.,-0.5,0.));
#1635=CARTESIAN_POINT('',(6.,-1.5,0.));
#1636=CARTESIAN_POINT('Origin',(6.,-0.500000000000001,0.));
#1637=CARTESIAN_POINT('',(5.48,-1.5,0.));
#1638=CARTESIAN_POINT('',(5.48,-1.5,0.));
#1639=CARTESIAN_POINT('Origin',(5.48,-1.68,0.));
#1640=CARTESIAN_POINT('',(-5.15,-4.15,0.));
#1641=CARTESIAN_POINT('',(5.15,-4.15,0.));
#1642=CARTESIAN_POINT('',(-2.575,-4.15,0.));
#1643=CARTESIAN_POINT('',(5.15,4.15,0.));
#1644=CARTESIAN_POINT('',(5.15,-2.075,0.));
#1645=CARTESIAN_POINT('',(-5.15,4.15,0.));
#1646=CARTESIAN_POINT('',(2.575,4.15,0.));
#1647=CARTESIAN_POINT('',(-5.15,2.075,0.));
#1648=CARTESIAN_POINT('Origin',(-5.15,-4.15,0.));
#1649=CARTESIAN_POINT('',(-5.15,-4.15,0.3));
#1650=CARTESIAN_POINT('',(-5.15,-4.15,0.));
#1651=CARTESIAN_POINT('',(5.15,-4.15,0.3));
#1652=CARTESIAN_POINT('',(-2.575,-4.15,0.3));
#1653=CARTESIAN_POINT('',(5.15,-4.15,0.));
#1654=CARTESIAN_POINT('Origin',(-5.15,4.15,0.));
#1655=CARTESIAN_POINT('',(-5.15,4.15,0.3));
#1656=CARTESIAN_POINT('',(-5.15,4.15,0.));
#1657=CARTESIAN_POINT('',(-5.15,2.075,0.3));
#1658=CARTESIAN_POINT('Origin',(5.15,4.15,0.));
#1659=CARTESIAN_POINT('',(5.15,4.15,0.3));
#1660=CARTESIAN_POINT('',(5.15,4.15,0.));
#1661=CARTESIAN_POINT('',(2.575,4.15,0.3));
#1662=CARTESIAN_POINT('Origin',(5.15,-4.15,0.));
#1663=CARTESIAN_POINT('',(5.15,-2.075,0.3));
#1664=CARTESIAN_POINT('Origin',(0.,0.,0.3));
#1665=CARTESIAN_POINT('',(-5.,-4.,0.3));
#1666=CARTESIAN_POINT('',(-5.,-2.,0.3));
#1667=CARTESIAN_POINT('',(5.,-4.,0.3));
#1668=CARTESIAN_POINT('',(2.5,-4.,0.3));
#1669=CARTESIAN_POINT('',(5.,2.,0.3));
#1670=CARTESIAN_POINT('Origin',(-5.,-4.,0.));
#1671=CARTESIAN_POINT('',(-5.,-4.,0.));
#1672=CARTESIAN_POINT('Origin',(0.,0.,3.));
#1673=CARTESIAN_POINT('',(-5.3,1.68,3.));
#1674=CARTESIAN_POINT('Origin',(5.,-4.,0.));
#1675=CARTESIAN_POINT('',(5.,-4.,0.));
#1676=CARTESIAN_POINT('Origin',(5.,4.,0.));
#1677=CARTESIAN_POINT('Origin',(-2.,-4.48,0.));
#1678=CARTESIAN_POINT('',(-2.,-5.,0.));
#1679=CARTESIAN_POINT('',(-2.,-4.48,0.));
#1680=CARTESIAN_POINT('Origin',(-2.18,-4.48,0.));
#1681=CARTESIAN_POINT('Origin',(-5.3,-1.68,0.));
#1682=CARTESIAN_POINT('',(-5.3,-1.68,0.));
#1683=CARTESIAN_POINT('',(-5.3,1.68,0.));
#1684=CARTESIAN_POINT('Origin',(-5.48,-1.68,0.));
#1685=CARTESIAN_POINT('',(-5.48,-1.5,0.));
#1686=CARTESIAN_POINT('Origin',(-6.,-1.5,0.));
#1687=CARTESIAN_POINT('',(-6.,-1.5,0.));
#1688=CARTESIAN_POINT('Origin',(-6.,-0.500000000000001,0.));
#1689=CARTESIAN_POINT('',(-7.,-0.5,0.));
#1690=CARTESIAN_POINT('Origin',(-7.,0.5,0.));
#1691=CARTESIAN_POINT('',(-7.,0.5,0.));
#1692=CARTESIAN_POINT('Origin',(-6.,0.499999999999999,0.));
#1693=CARTESIAN_POINT('',(-6.,1.5,0.));
#1694=CARTESIAN_POINT('Origin',(-5.48,1.5,0.));
#1695=CARTESIAN_POINT('',(-5.48,1.5,0.));
#1696=CARTESIAN_POINT('Origin',(-5.48,1.68,0.));
#1697=CARTESIAN_POINT('Origin',(-2.18,4.48,0.));
#1698=CARTESIAN_POINT('',(-2.,4.48,0.));
#1699=CARTESIAN_POINT('Origin',(-2.,5.,0.));
#1700=CARTESIAN_POINT('',(-2.,5.,0.));
#1701=CARTESIAN_POINT('Origin',(-1.,5.,0.));
#1702=CARTESIAN_POINT('',(-1.,6.,0.));
#1703=CARTESIAN_POINT('Origin',(1.,6.,0.));
#1704=CARTESIAN_POINT('',(1.,6.,0.));
#1705=CARTESIAN_POINT('Origin',(1.,5.,0.));
#1706=CARTESIAN_POINT('',(2.,5.,0.));
#1707=CARTESIAN_POINT('Origin',(2.,4.48,0.));
#1708=CARTESIAN_POINT('',(2.,4.48,0.));
#1709=CARTESIAN_POINT('Origin',(2.18,4.48,0.));
#1710=CARTESIAN_POINT('Origin',(5.48,1.68,0.));
#1711=CARTESIAN_POINT('',(5.48,1.5,0.));
#1712=CARTESIAN_POINT('Origin',(6.,1.5,0.));
#1713=CARTESIAN_POINT('',(6.,1.5,0.));
#1714=CARTESIAN_POINT('Origin',(6.,0.500000000000001,0.));
#1715=CARTESIAN_POINT('',(7.,0.5,0.));
#1716=CARTESIAN_POINT('Origin',(7.,-0.5,0.));
#1717=CARTESIAN_POINT('',(7.,-0.5,0.));
#1718=CARTESIAN_POINT('Origin',(6.,-0.500000000000001,0.));
#1719=CARTESIAN_POINT('',(6.,-1.5,0.));
#1720=CARTESIAN_POINT('Origin',(5.48,-1.5,0.));
#1721=CARTESIAN_POINT('',(5.48,-1.5,0.));
#1722=CARTESIAN_POINT('Origin',(5.48,-1.68,0.));
#1723=CARTESIAN_POINT('Origin',(2.18,-4.48,0.));
#1724=CARTESIAN_POINT('',(2.,-4.48,0.));
#1725=CARTESIAN_POINT('Origin',(2.,-5.,0.));
#1726=CARTESIAN_POINT('',(2.,-5.,0.));
#1727=CARTESIAN_POINT('Origin',(1.,-5.,0.));
#1728=CARTESIAN_POINT('',(1.,-6.,0.));
#1729=CARTESIAN_POINT('Origin',(-1.,-6.,0.));
#1730=CARTESIAN_POINT('',(-1.,-6.,0.));
#1731=CARTESIAN_POINT('Origin',(-1.,-5.,0.));
#1732=UNCERTAINTY_MEASURE_WITH_UNIT(LENGTH_MEASURE(0.001),#1736,
'DISTANCE_ACCURACY_VALUE',
'Maximum model space distance between geometric entities at asserted c
onnectivities');
#1733=UNCERTAINTY_MEASURE_WITH_UNIT(LENGTH_MEASURE(0.001),#1736,
'DISTANCE_ACCURACY_VALUE',
'Maximum model space distance between geometric entities at asserted c
onnectivities');
#1734=(
GEOMETRIC_REPRESENTATION_CONTEXT(3)
GLOBAL_UNCERTAINTY_ASSIGNED_CONTEXT((#1732))
GLOBAL_UNIT_ASSIGNED_CONTEXT((#1736,#1738,#1739))
REPRESENTATION_CONTEXT('','3D')
);
#1735=(
GEOMETRIC_REPRESENTATION_CONTEXT(3)
GLOBAL_UNCERTAINTY_ASSIGNED_CONTEXT((#1733))
GLOBAL_UNIT_ASSIGNED_CONTEXT((#1736,#1738,#1739))
REPRESENTATION_CONTEXT('','3D')
);
#1736=(
LENGTH_UNIT()
NAMED_UNIT(*)
SI_UNIT(.CENTI.,.METRE.)
);
#1737=(
LENGTH_UNIT()
NAMED_UNIT(*)
SI_UNIT($,.METRE.)
);
#1738=(
NAMED_UNIT(*)
PLANE_ANGLE_UNIT()
SI_UNIT($,.RADIAN.)
);
#1739=(
NAMED_UNIT(*)
SI_UNIT($,.STERADIAN.)
SOLID_ANGLE_UNIT()
);
#1740=SHAPE_DEFINITION_REPRESENTATION(#1741,#1742);
#1741=PRODUCT_DEFINITION_SHAPE('',$,#1744);
#1742=SHAPE_REPRESENTATION('',(#1016),#1734);
#1743=PRODUCT_DEFINITION_CONTEXT('part definition',#1748,'design');
#1744=PRODUCT_DEFINITION('mold box top','mold box top v3',#1745,#1743);
#1745=PRODUCT_DEFINITION_FORMATION('',$,#1750);
#1746=PRODUCT_RELATED_PRODUCT_CATEGORY('mold box top v3',
'mold box top v3',(#1750));
#1747=APPLICATION_PROTOCOL_DEFINITION('international standard',
'automotive_design',2009,#1748);
#1748=APPLICATION_CONTEXT(
'Core Data for Automotive Mechanical Design Process');
#1749=PRODUCT_CONTEXT('part definition',#1748,'mechanical');
#1750=PRODUCT('mold box top','mold box top v3',$,(#1749));
#1751=PRESENTATION_STYLE_ASSIGNMENT((#1752));
#1752=SURFACE_STYLE_USAGE(.BOTH.,#1753);
#1753=SURFACE_SIDE_STYLE('',(#1754));
#1754=SURFACE_STYLE_FILL_AREA(#1755);
#1755=FILL_AREA_STYLE('Steel - Satin',(#1756));
#1756=FILL_AREA_STYLE_COLOUR('Steel - Satin',#1757);
#1757=COLOUR_RGB('Steel - Satin',0.627450980392157,0.627450980392157,0.627450980392157);
ENDSEC;
END-ISO-10303-21;
