ISO-10303-21;
HEADER;
/* Generated by software containing ST-Developer
 * from STEP Tools, Inc. (www.steptools.com) 
 */

FILE_DESCRIPTION(
/* description */ (''),
/* implementation_level */ '2;1');

FILE_NAME(
/* name */ 'mold box down.step',
/* time_stamp */ '2026-07-17T20:28:13Z',
/* author */ (''),
/* organization */ (''),
/* preprocessor_version */ 'ST-DEVELOPER v20.1',
/* originating_system */ 'Autodesk Translation Framework v15.8.0.0',
/* authorisation */ '');

FILE_SCHEMA (('AUTOMOTIVE_DESIGN { 1 0 10303 214 3 1 1 }'));
ENDSEC;

DATA;
#10=MECHANICAL_DESIGN_GEOMETRIC_PRESENTATION_REPRESENTATION('',(#13),#2071);
#11=SHAPE_REPRESENTATION_RELATIONSHIP('SRR','None',#2078,#12);
#12=ADVANCED_BREP_SHAPE_REPRESENTATION('',(#14),#2070);
#13=STYLED_ITEM('',(#2087),#14);
#14=MANIFOLD_SOLID_BREP('Body1',#1195);
#15=B_SPLINE_CURVE_WITH_KNOTS('',3,(#1715,#1716,#1717,#1718,#1719,#1720,
#1721,#1722,#1723,#1724),.UNSPECIFIED.,.F.,.F.,(4,2,2,2,4),(1.05809616506248,
1.1601029094263,1.26210965379013,1.38696615483964,1.51182265588915),
 .UNSPECIFIED.);
#16=B_SPLINE_CURVE_WITH_KNOTS('',3,(#1728,#1729,#1730,#1731,#1732,#1733,
#1734,#1735),.UNSPECIFIED.,.F.,.F.,(4,2,2,4),(0.,0.235637739228036,0.353456608842055,
0.471275478456073),.UNSPECIFIED.);
#17=B_SPLINE_CURVE_WITH_KNOTS('',3,(#1754,#1755,#1756,#1757,#1758,#1759,
#1760,#1761,#1762,#1763),.UNSPECIFIED.,.F.,.F.,(4,2,2,2,4),(1.05809616506248,
1.16010290942631,1.26210965379013,1.38696615483964,1.51182265588916),
 .UNSPECIFIED.);
#18=B_SPLINE_CURVE_WITH_KNOTS('',3,(#1767,#1768,#1769,#1770,#1771,#1772,
#1773,#1774),.UNSPECIFIED.,.F.,.F.,(4,2,2,4),(0.,0.235637739228037,0.353456608842056,
0.471275478456074),.UNSPECIFIED.);
#19=B_SPLINE_CURVE_WITH_KNOTS('',3,(#1793,#1794,#1795,#1796,#1797,#1798,
#1799,#1800,#1801,#1802),.UNSPECIFIED.,.F.,.F.,(4,2,2,2,4),(1.05809616506248,
1.1601029094263,1.26210965379013,1.38696615483964,1.51182265588915),
 .UNSPECIFIED.);
#20=B_SPLINE_CURVE_WITH_KNOTS('',3,(#1806,#1807,#1808,#1809,#1810,#1811,
#1812,#1813),.UNSPECIFIED.,.F.,.F.,(4,2,2,4),(0.,0.235637739228036,0.353456608842055,
0.471275478456073),.UNSPECIFIED.);
#21=B_SPLINE_CURVE_WITH_KNOTS('',3,(#1832,#1833,#1834,#1835,#1836,#1837,
#1838,#1839,#1840,#1841),.UNSPECIFIED.,.F.,.F.,(4,2,2,2,4),(1.05809616506248,
1.16010290942631,1.26210965379013,1.38696615483964,1.51182265588916),
 .UNSPECIFIED.);
#22=B_SPLINE_CURVE_WITH_KNOTS('',3,(#1845,#1846,#1847,#1848,#1849,#1850,
#1851,#1852),.UNSPECIFIED.,.F.,.F.,(4,2,2,4),(0.,0.235637739228037,0.353456608842056,
0.471275478456074),.UNSPECIFIED.);
#23=LINE('',#1668,#135);
#24=LINE('',#1671,#136);
#25=LINE('',#1681,#137);
#26=LINE('',#1684,#138);
#27=LINE('',#1694,#139);
#28=LINE('',#1697,#140);
#29=LINE('',#1707,#141);
#30=LINE('',#1710,#142);
#31=LINE('',#1726,#143);
#32=LINE('',#1739,#144);
#33=LINE('',#1743,#145);
#34=LINE('',#1747,#146);
#35=LINE('',#1750,#147);
#36=LINE('',#1765,#148);
#37=LINE('',#1778,#149);
#38=LINE('',#1782,#150);
#39=LINE('',#1786,#151);
#40=LINE('',#1789,#152);
#41=LINE('',#1804,#153);
#42=LINE('',#1817,#154);
#43=LINE('',#1821,#155);
#44=LINE('',#1825,#156);
#45=LINE('',#1828,#157);
#46=LINE('',#1843,#158);
#47=LINE('',#1856,#159);
#48=LINE('',#1860,#160);
#49=LINE('',#1864,#161);
#50=LINE('',#1867,#162);
#51=LINE('',#1870,#163);
#52=LINE('',#1872,#164);
#53=LINE('',#1873,#165);
#54=LINE('',#1876,#166);
#55=LINE('',#1880,#167);
#56=LINE('',#1881,#168);
#57=LINE('',#1884,#169);
#58=LINE('',#1888,#170);
#59=LINE('',#1891,#171);
#60=LINE('',#1894,#172);
#61=LINE('',#1895,#173);
#62=LINE('',#1898,#174);
#63=LINE('',#1902,#175);
#64=LINE('',#1903,#176);
#65=LINE('',#1906,#177);
#66=LINE('',#1910,#178);
#67=LINE('',#1912,#179);
#68=LINE('',#1913,#180);
#69=LINE('',#1916,#181);
#70=LINE('',#1920,#182);
#71=LINE('',#1921,#183);
#72=LINE('',#1924,#184);
#73=LINE('',#1928,#185);
#74=LINE('',#1931,#186);
#75=LINE('',#1934,#187);
#76=LINE('',#1935,#188);
#77=LINE('',#1938,#189);
#78=LINE('',#1942,#190);
#79=LINE('',#1943,#191);
#80=LINE('',#1946,#192);
#81=LINE('',#1951,#193);
#82=LINE('',#1953,#194);
#83=LINE('',#1955,#195);
#84=LINE('',#1956,#196);
#85=LINE('',#1959,#197);
#86=LINE('',#1961,#198);
#87=LINE('',#1962,#199);
#88=LINE('',#1965,#200);
#89=LINE('',#1966,#201);
#90=LINE('',#1969,#202);
#91=LINE('',#1971,#203);
#92=LINE('',#1973,#204);
#93=LINE('',#1974,#205);
#94=LINE('',#1977,#206);
#95=LINE('',#1978,#207);
#96=LINE('',#1980,#208);
#97=LINE('',#1983,#209);
#98=LINE('',#1985,#210);
#99=LINE('',#1986,#211);
#100=LINE('',#1989,#212);
#101=LINE('',#1990,#213);
#102=LINE('',#1993,#214);
#103=LINE('',#1994,#215);
#104=LINE('',#1996,#216);
#105=LINE('',#2000,#217);
#106=LINE('',#2004,#218);
#107=LINE('',#2006,#219);
#108=LINE('',#2009,#220);
#109=LINE('',#2013,#221);
#110=LINE('',#2014,#222);
#111=LINE('',#2016,#223);
#112=LINE('',#2020,#224);
#113=LINE('',#2021,#225);
#114=LINE('',#2023,#226);
#115=LINE('',#2027,#227);
#116=LINE('',#2029,#228);
#117=LINE('',#2033,#229);
#118=LINE('',#2035,#230);
#119=LINE('',#2036,#231);
#120=LINE('',#2037,#232);
#121=LINE('',#2039,#233);
#122=LINE('',#2040,#234);
#123=LINE('',#2043,#235);
#124=LINE('',#2046,#236);
#125=LINE('',#2047,#237);
#126=LINE('',#2049,#238);
#127=LINE('',#2050,#239);
#128=LINE('',#2053,#240);
#129=LINE('',#2057,#241);
#130=LINE('',#2058,#242);
#131=LINE('',#2059,#243);
#132=LINE('',#2061,#244);
#133=LINE('',#2064,#245);
#134=LINE('',#2065,#246);
#135=VECTOR('',#1333,0.21);
#136=VECTOR('',#1336,0.18);
#137=VECTOR('',#1349,0.21);
#138=VECTOR('',#1352,0.18);
#139=VECTOR('',#1365,0.21);
#140=VECTOR('',#1368,0.18);
#141=VECTOR('',#1381,0.21);
#142=VECTOR('',#1384,0.18);
#143=VECTOR('',#1389,1.);
#144=VECTOR('',#1392,1.);
#145=VECTOR('',#1397,1.);
#146=VECTOR('',#1400,1.);
#147=VECTOR('',#1403,1.);
#148=VECTOR('',#1406,1.);
#149=VECTOR('',#1409,1.);
#150=VECTOR('',#1414,1.);
#151=VECTOR('',#1417,1.);
#152=VECTOR('',#1420,1.);
#153=VECTOR('',#1423,1.);
#154=VECTOR('',#1426,1.);
#155=VECTOR('',#1431,1.);
#156=VECTOR('',#1434,1.);
#157=VECTOR('',#1437,1.);
#158=VECTOR('',#1440,1.);
#159=VECTOR('',#1443,1.);
#160=VECTOR('',#1448,1.);
#161=VECTOR('',#1451,1.);
#162=VECTOR('',#1454,1.);
#163=VECTOR('',#1457,1.);
#164=VECTOR('',#1458,1.);
#165=VECTOR('',#1459,1.);
#166=VECTOR('',#1462,1.);
#167=VECTOR('',#1467,1.);
#168=VECTOR('',#1468,1.);
#169=VECTOR('',#1471,1.);
#170=VECTOR('',#1476,1.);
#171=VECTOR('',#1479,1.);
#172=VECTOR('',#1482,1.);
#173=VECTOR('',#1483,1.);
#174=VECTOR('',#1486,1.);
#175=VECTOR('',#1491,1.);
#176=VECTOR('',#1492,1.);
#177=VECTOR('',#1495,1.);
#178=VECTOR('',#1500,1.);
#179=VECTOR('',#1501,1.);
#180=VECTOR('',#1502,1.);
#181=VECTOR('',#1505,1.);
#182=VECTOR('',#1510,1.);
#183=VECTOR('',#1511,1.);
#184=VECTOR('',#1514,1.);
#185=VECTOR('',#1519,1.);
#186=VECTOR('',#1522,1.);
#187=VECTOR('',#1525,1.);
#188=VECTOR('',#1526,1.);
#189=VECTOR('',#1529,1.);
#190=VECTOR('',#1534,1.);
#191=VECTOR('',#1535,1.);
#192=VECTOR('',#1538,1.);
#193=VECTOR('',#1543,1.);
#194=VECTOR('',#1544,1.);
#195=VECTOR('',#1545,1.);
#196=VECTOR('',#1546,1.);
#197=VECTOR('',#1549,1.);
#198=VECTOR('',#1550,1.);
#199=VECTOR('',#1551,1.);
#200=VECTOR('',#1554,1.);
#201=VECTOR('',#1555,1.);
#202=VECTOR('',#1556,1.);
#203=VECTOR('',#1557,1.);
#204=VECTOR('',#1558,1.);
#205=VECTOR('',#1559,1.);
#206=VECTOR('',#1562,1.);
#207=VECTOR('',#1563,1.);
#208=VECTOR('',#1566,1.);
#209=VECTOR('',#1569,1.);
#210=VECTOR('',#1570,1.);
#211=VECTOR('',#1571,1.);
#212=VECTOR('',#1574,1.);
#213=VECTOR('',#1575,1.);
#214=VECTOR('',#1578,1.);
#215=VECTOR('',#1579,1.);
#216=VECTOR('',#1582,1.);
#217=VECTOR('',#1587,1.);
#218=VECTOR('',#1590,1.);
#219=VECTOR('',#1591,1.);
#220=VECTOR('',#1594,1.);
#221=VECTOR('',#1597,1.);
#222=VECTOR('',#1598,1.);
#223=VECTOR('',#1599,1.);
#224=VECTOR('',#1602,1.);
#225=VECTOR('',#1603,1.);
#226=VECTOR('',#1604,1.);
#227=VECTOR('',#1607,1.);
#228=VECTOR('',#1608,1.);
#229=VECTOR('',#1613,1.);
#230=VECTOR('',#1614,1.);
#231=VECTOR('',#1615,1.);
#232=VECTOR('',#1616,1.);
#233=VECTOR('',#1619,1.);
#234=VECTOR('',#1620,1.);
#235=VECTOR('',#1625,1.);
#236=VECTOR('',#1628,1.);
#237=VECTOR('',#1629,1.);
#238=VECTOR('',#1632,1.);
#239=VECTOR('',#1633,1.);
#240=VECTOR('',#1638,1.);
#241=VECTOR('',#1643,1.);
#242=VECTOR('',#1644,1.);
#243=VECTOR('',#1645,1.);
#244=VECTOR('',#1648,1.);
#245=VECTOR('',#1653,1.);
#246=VECTOR('',#1654,1.);
#247=CYLINDRICAL_SURFACE('',#1212,0.21);
#248=CYLINDRICAL_SURFACE('',#1214,0.18);
#249=CYLINDRICAL_SURFACE('',#1219,0.21);
#250=CYLINDRICAL_SURFACE('',#1221,0.18);
#251=CYLINDRICAL_SURFACE('',#1226,0.21);
#252=CYLINDRICAL_SURFACE('',#1228,0.18);
#253=CYLINDRICAL_SURFACE('',#1233,0.21);
#254=CYLINDRICAL_SURFACE('',#1235,0.18);
#255=CYLINDRICAL_SURFACE('',#1237,0.5);
#256=CYLINDRICAL_SURFACE('',#1243,0.5);
#257=CYLINDRICAL_SURFACE('',#1249,0.5);
#258=CYLINDRICAL_SURFACE('',#1255,0.5);
#259=CYLINDRICAL_SURFACE('',#1262,0.999999999999998);
#260=CYLINDRICAL_SURFACE('',#1265,0.999999999999998);
#261=CYLINDRICAL_SURFACE('',#1267,0.179999999999999);
#262=CYLINDRICAL_SURFACE('',#1270,0.999999999999999);
#263=CYLINDRICAL_SURFACE('',#1273,0.999999999999999);
#264=CYLINDRICAL_SURFACE('',#1276,0.999999999999999);
#265=CYLINDRICAL_SURFACE('',#1279,1.);
#266=CYLINDRICAL_SURFACE('',#1281,0.18);
#267=CYLINDRICAL_SURFACE('',#1284,0.999999999999998);
#268=CYLINDRICAL_SURFACE('',#1287,0.999999999999998);
#269=CYLINDRICAL_SURFACE('',#1307,0.179999999999999);
#270=CYLINDRICAL_SURFACE('',#1309,0.179999999999999);
#271=CYLINDRICAL_SURFACE('',#1311,0.179999999999999);
#272=CYLINDRICAL_SURFACE('',#1314,0.179999999999999);
#273=CYLINDRICAL_SURFACE('',#1317,0.179999999999999);
#274=CYLINDRICAL_SURFACE('',#1319,0.18);
#275=FACE_BOUND('',#354,.T.);
#276=FACE_BOUND('',#358,.T.);
#277=FACE_BOUND('',#362,.T.);
#278=FACE_BOUND('',#366,.T.);
#279=FACE_BOUND('',#371,.T.);
#280=FACE_BOUND('',#374,.T.);
#281=FACE_BOUND('',#377,.T.);
#282=FACE_BOUND('',#380,.T.);
#283=FACE_BOUND('',#402,.T.);
#284=FACE_BOUND('',#411,.T.);
#285=FACE_BOUND('',#412,.T.);
#286=FACE_BOUND('',#413,.T.);
#287=FACE_BOUND('',#414,.T.);
#288=FACE_BOUND('',#415,.T.);
#289=FACE_OUTER_BOUND('',#353,.T.);
#290=FACE_OUTER_BOUND('',#355,.T.);
#291=FACE_OUTER_BOUND('',#356,.T.);
#292=FACE_OUTER_BOUND('',#357,.T.);
#293=FACE_OUTER_BOUND('',#359,.T.);
#294=FACE_OUTER_BOUND('',#360,.T.);
#295=FACE_OUTER_BOUND('',#361,.T.);
#296=FACE_OUTER_BOUND('',#363,.T.);
#297=FACE_OUTER_BOUND('',#364,.T.);
#298=FACE_OUTER_BOUND('',#365,.T.);
#299=FACE_OUTER_BOUND('',#367,.T.);
#300=FACE_OUTER_BOUND('',#368,.T.);
#301=FACE_OUTER_BOUND('',#369,.T.);
#302=FACE_OUTER_BOUND('',#370,.T.);
#303=FACE_OUTER_BOUND('',#372,.T.);
#304=FACE_OUTER_BOUND('',#373,.T.);
#305=FACE_OUTER_BOUND('',#375,.T.);
#306=FACE_OUTER_BOUND('',#376,.T.);
#307=FACE_OUTER_BOUND('',#378,.T.);
#308=FACE_OUTER_BOUND('',#379,.T.);
#309=FACE_OUTER_BOUND('',#381,.T.);
#310=FACE_OUTER_BOUND('',#382,.T.);
#311=FACE_OUTER_BOUND('',#383,.T.);
#312=FACE_OUTER_BOUND('',#384,.T.);
#313=FACE_OUTER_BOUND('',#385,.T.);
#314=FACE_OUTER_BOUND('',#386,.T.);
#315=FACE_OUTER_BOUND('',#387,.T.);
#316=FACE_OUTER_BOUND('',#388,.T.);
#317=FACE_OUTER_BOUND('',#389,.T.);
#318=FACE_OUTER_BOUND('',#390,.T.);
#319=FACE_OUTER_BOUND('',#391,.T.);
#320=FACE_OUTER_BOUND('',#392,.T.);
#321=FACE_OUTER_BOUND('',#393,.T.);
#322=FACE_OUTER_BOUND('',#394,.T.);
#323=FACE_OUTER_BOUND('',#395,.T.);
#324=FACE_OUTER_BOUND('',#396,.T.);
#325=FACE_OUTER_BOUND('',#397,.T.);
#326=FACE_OUTER_BOUND('',#398,.T.);
#327=FACE_OUTER_BOUND('',#399,.T.);
#328=FACE_OUTER_BOUND('',#400,.T.);
#329=FACE_OUTER_BOUND('',#401,.T.);
#330=FACE_OUTER_BOUND('',#403,.T.);
#331=FACE_OUTER_BOUND('',#404,.T.);
#332=FACE_OUTER_BOUND('',#405,.T.);
#333=FACE_OUTER_BOUND('',#406,.T.);
#334=FACE_OUTER_BOUND('',#407,.T.);
#335=FACE_OUTER_BOUND('',#408,.T.);
#336=FACE_OUTER_BOUND('',#409,.T.);
#337=FACE_OUTER_BOUND('',#410,.T.);
#338=FACE_OUTER_BOUND('',#416,.T.);
#339=FACE_OUTER_BOUND('',#417,.T.);
#340=FACE_OUTER_BOUND('',#418,.T.);
#341=FACE_OUTER_BOUND('',#419,.T.);
#342=FACE_OUTER_BOUND('',#420,.T.);
#343=FACE_OUTER_BOUND('',#421,.T.);
#344=FACE_OUTER_BOUND('',#422,.T.);
#345=FACE_OUTER_BOUND('',#423,.T.);
#346=FACE_OUTER_BOUND('',#424,.T.);
#347=FACE_OUTER_BOUND('',#425,.T.);
#348=FACE_OUTER_BOUND('',#426,.T.);
#349=FACE_OUTER_BOUND('',#427,.T.);
#350=FACE_OUTER_BOUND('',#428,.T.);
#351=FACE_OUTER_BOUND('',#429,.T.);
#352=FACE_OUTER_BOUND('',#430,.T.);
#353=EDGE_LOOP('',(#759));
#354=EDGE_LOOP('',(#760));
#355=EDGE_LOOP('',(#761,#762,#763,#764));
#356=EDGE_LOOP('',(#765,#766,#767,#768));
#357=EDGE_LOOP('',(#769));
#358=EDGE_LOOP('',(#770));
#359=EDGE_LOOP('',(#771,#772,#773,#774));
#360=EDGE_LOOP('',(#775,#776,#777,#778));
#361=EDGE_LOOP('',(#779));
#362=EDGE_LOOP('',(#780));
#363=EDGE_LOOP('',(#781,#782,#783,#784));
#364=EDGE_LOOP('',(#785,#786,#787,#788));
#365=EDGE_LOOP('',(#789));
#366=EDGE_LOOP('',(#790));
#367=EDGE_LOOP('',(#791,#792,#793,#794));
#368=EDGE_LOOP('',(#795,#796,#797,#798));
#369=EDGE_LOOP('',(#799,#800,#801,#802,#803,#804));
#370=EDGE_LOOP('',(#805,#806,#807,#808,#809,#810));
#371=EDGE_LOOP('',(#811));
#372=EDGE_LOOP('',(#812,#813,#814,#815,#816,#817));
#373=EDGE_LOOP('',(#818,#819,#820,#821,#822,#823));
#374=EDGE_LOOP('',(#824));
#375=EDGE_LOOP('',(#825,#826,#827,#828,#829,#830));
#376=EDGE_LOOP('',(#831,#832,#833,#834,#835,#836));
#377=EDGE_LOOP('',(#837));
#378=EDGE_LOOP('',(#838,#839,#840,#841,#842,#843));
#379=EDGE_LOOP('',(#844,#845,#846,#847,#848,#849));
#380=EDGE_LOOP('',(#850));
#381=EDGE_LOOP('',(#851,#852,#853,#854,#855));
#382=EDGE_LOOP('',(#856,#857,#858,#859));
#383=EDGE_LOOP('',(#860,#861,#862,#863));
#384=EDGE_LOOP('',(#864,#865,#866,#867));
#385=EDGE_LOOP('',(#868,#869,#870,#871));
#386=EDGE_LOOP('',(#872,#873,#874,#875,#876));
#387=EDGE_LOOP('',(#877,#878,#879,#880));
#388=EDGE_LOOP('',(#881,#882,#883,#884));
#389=EDGE_LOOP('',(#885,#886,#887,#888));
#390=EDGE_LOOP('',(#889,#890,#891,#892,#893));
#391=EDGE_LOOP('',(#894,#895,#896,#897));
#392=EDGE_LOOP('',(#898,#899,#900,#901));
#393=EDGE_LOOP('',(#902,#903,#904,#905));
#394=EDGE_LOOP('',(#906,#907,#908,#909));
#395=EDGE_LOOP('',(#910,#911,#912,#913,#914));
#396=EDGE_LOOP('',(#915,#916,#917,#918));
#397=EDGE_LOOP('',(#919,#920,#921,#922));
#398=EDGE_LOOP('',(#923,#924,#925,#926));
#399=EDGE_LOOP('',(#927,#928,#929,#930));
#400=EDGE_LOOP('',(#931,#932,#933,#934));
#401=EDGE_LOOP('',(#935,#936,#937,#938));
#402=EDGE_LOOP('',(#939,#940,#941,#942));
#403=EDGE_LOOP('',(#943,#944,#945,#946));
#404=EDGE_LOOP('',(#947,#948,#949,#950));
#405=EDGE_LOOP('',(#951,#952,#953,#954));
#406=EDGE_LOOP('',(#955,#956,#957,#958));
#407=EDGE_LOOP('',(#959,#960,#961,#962));
#408=EDGE_LOOP('',(#963,#964,#965,#966));
#409=EDGE_LOOP('',(#967,#968,#969,#970));
#410=EDGE_LOOP('',(#971,#972,#973,#974,#975,#976,#977,#978,#979,#980,#981,
#982,#983,#984,#985,#986,#987,#988,#989,#990,#991,#992,#993,#994,#995,#996,
#997,#998,#999,#1000,#1001,#1002,#1003,#1004,#1005,#1006));
#411=EDGE_LOOP('',(#1007));
#412=EDGE_LOOP('',(#1008));
#413=EDGE_LOOP('',(#1009));
#414=EDGE_LOOP('',(#1010));
#415=EDGE_LOOP('',(#1011,#1012,#1013,#1014));
#416=EDGE_LOOP('',(#1015,#1016,#1017,#1018,#1019,#1020,#1021,#1022));
#417=EDGE_LOOP('',(#1023,#1024,#1025,#1026));
#418=EDGE_LOOP('',(#1027,#1028,#1029,#1030,#1031));
#419=EDGE_LOOP('',(#1032,#1033,#1034,#1035));
#420=EDGE_LOOP('',(#1036,#1037,#1038,#1039,#1040,#1041,#1042,#1043));
#421=EDGE_LOOP('',(#1044,#1045,#1046,#1047));
#422=EDGE_LOOP('',(#1048,#1049,#1050,#1051,#1052));
#423=EDGE_LOOP('',(#1053,#1054,#1055,#1056,#1057));
#424=EDGE_LOOP('',(#1058,#1059,#1060,#1061));
#425=EDGE_LOOP('',(#1062,#1063,#1064,#1065,#1066,#1067,#1068,#1069));
#426=EDGE_LOOP('',(#1070,#1071,#1072,#1073,#1074));
#427=EDGE_LOOP('',(#1075,#1076,#1077,#1078));
#428=EDGE_LOOP('',(#1079,#1080,#1081,#1082,#1083,#1084,#1085,#1086));
#429=EDGE_LOOP('',(#1087,#1088,#1089,#1090));
#430=EDGE_LOOP('',(#1091,#1092,#1093,#1094));
#431=CIRCLE('',#1210,0.21);
#432=CIRCLE('',#1211,0.18);
#433=CIRCLE('',#1213,0.21);
#434=CIRCLE('',#1215,0.18);
#435=CIRCLE('',#1217,0.21);
#436=CIRCLE('',#1218,0.18);
#437=CIRCLE('',#1220,0.21);
#438=CIRCLE('',#1222,0.18);
#439=CIRCLE('',#1224,0.21);
#440=CIRCLE('',#1225,0.18);
#441=CIRCLE('',#1227,0.21);
#442=CIRCLE('',#1229,0.18);
#443=CIRCLE('',#1231,0.21);
#444=CIRCLE('',#1232,0.18);
#445=CIRCLE('',#1234,0.21);
#446=CIRCLE('',#1236,0.18);
#447=CIRCLE('',#1238,0.5);
#448=CIRCLE('',#1239,0.5);
#449=CIRCLE('',#1241,1.);
#450=CIRCLE('',#1242,0.999999999999999);
#451=CIRCLE('',#1244,0.5);
#452=CIRCLE('',#1245,0.5);
#453=CIRCLE('',#1247,0.999999999999998);
#454=CIRCLE('',#1248,0.999999999999998);
#455=CIRCLE('',#1250,0.5);
#456=CIRCLE('',#1251,0.5);
#457=CIRCLE('',#1253,0.999999999999999);
#458=CIRCLE('',#1254,0.999999999999999);
#459=CIRCLE('',#1256,0.5);
#460=CIRCLE('',#1257,0.5);
#461=CIRCLE('',#1259,0.999999999999998);
#462=CIRCLE('',#1260,0.999999999999998);
#463=CIRCLE('',#1263,0.999999999999998);
#464=CIRCLE('',#1266,0.999999999999998);
#465=CIRCLE('',#1268,0.179999999999999);
#466=CIRCLE('',#1271,0.999999999999999);
#467=CIRCLE('',#1274,0.999999999999999);
#468=CIRCLE('',#1277,0.999999999999999);
#469=CIRCLE('',#1280,1.);
#470=CIRCLE('',#1282,0.18);
#471=CIRCLE('',#1285,0.999999999999998);
#472=CIRCLE('',#1288,0.999999999999998);
#473=CIRCLE('',#1300,0.179999999999999);
#474=CIRCLE('',#1301,0.179999999999999);
#475=CIRCLE('',#1302,0.179999999999999);
#476=CIRCLE('',#1303,0.179999999999999);
#477=CIRCLE('',#1304,0.179999999999999);
#478=CIRCLE('',#1305,0.18);
#479=VERTEX_POINT('',#1661);
#480=VERTEX_POINT('',#1663);
#481=VERTEX_POINT('',#1666);
#482=VERTEX_POINT('',#1670);
#483=VERTEX_POINT('',#1674);
#484=VERTEX_POINT('',#1676);
#485=VERTEX_POINT('',#1679);
#486=VERTEX_POINT('',#1683);
#487=VERTEX_POINT('',#1687);
#488=VERTEX_POINT('',#1689);
#489=VERTEX_POINT('',#1692);
#490=VERTEX_POINT('',#1696);
#491=VERTEX_POINT('',#1700);
#492=VERTEX_POINT('',#1702);
#493=VERTEX_POINT('',#1705);
#494=VERTEX_POINT('',#1709);
#495=VERTEX_POINT('',#1713);
#496=VERTEX_POINT('',#1714);
#497=VERTEX_POINT('',#1725);
#498=VERTEX_POINT('',#1727);
#499=VERTEX_POINT('',#1736);
#500=VERTEX_POINT('',#1738);
#501=VERTEX_POINT('',#1742);
#502=VERTEX_POINT('',#1744);
#503=VERTEX_POINT('',#1746);
#504=VERTEX_POINT('',#1748);
#505=VERTEX_POINT('',#1752);
#506=VERTEX_POINT('',#1753);
#507=VERTEX_POINT('',#1764);
#508=VERTEX_POINT('',#1766);
#509=VERTEX_POINT('',#1775);
#510=VERTEX_POINT('',#1777);
#511=VERTEX_POINT('',#1781);
#512=VERTEX_POINT('',#1783);
#513=VERTEX_POINT('',#1785);
#514=VERTEX_POINT('',#1787);
#515=VERTEX_POINT('',#1791);
#516=VERTEX_POINT('',#1792);
#517=VERTEX_POINT('',#1803);
#518=VERTEX_POINT('',#1805);
#519=VERTEX_POINT('',#1814);
#520=VERTEX_POINT('',#1816);
#521=VERTEX_POINT('',#1820);
#522=VERTEX_POINT('',#1822);
#523=VERTEX_POINT('',#1824);
#524=VERTEX_POINT('',#1826);
#525=VERTEX_POINT('',#1830);
#526=VERTEX_POINT('',#1831);
#527=VERTEX_POINT('',#1842);
#528=VERTEX_POINT('',#1844);
#529=VERTEX_POINT('',#1853);
#530=VERTEX_POINT('',#1855);
#531=VERTEX_POINT('',#1859);
#532=VERTEX_POINT('',#1861);
#533=VERTEX_POINT('',#1863);
#534=VERTEX_POINT('',#1865);
#535=VERTEX_POINT('',#1869);
#536=VERTEX_POINT('',#1871);
#537=VERTEX_POINT('',#1875);
#538=VERTEX_POINT('',#1879);
#539=VERTEX_POINT('',#1883);
#540=VERTEX_POINT('',#1887);
#541=VERTEX_POINT('',#1889);
#542=VERTEX_POINT('',#1893);
#543=VERTEX_POINT('',#1897);
#544=VERTEX_POINT('',#1901);
#545=VERTEX_POINT('',#1905);
#546=VERTEX_POINT('',#1909);
#547=VERTEX_POINT('',#1911);
#548=VERTEX_POINT('',#1915);
#549=VERTEX_POINT('',#1919);
#550=VERTEX_POINT('',#1923);
#551=VERTEX_POINT('',#1927);
#552=VERTEX_POINT('',#1929);
#553=VERTEX_POINT('',#1933);
#554=VERTEX_POINT('',#1937);
#555=VERTEX_POINT('',#1941);
#556=VERTEX_POINT('',#1945);
#557=VERTEX_POINT('',#1949);
#558=VERTEX_POINT('',#1950);
#559=VERTEX_POINT('',#1952);
#560=VERTEX_POINT('',#1954);
#561=VERTEX_POINT('',#1958);
#562=VERTEX_POINT('',#1960);
#563=VERTEX_POINT('',#1964);
#564=VERTEX_POINT('',#1967);
#565=VERTEX_POINT('',#1968);
#566=VERTEX_POINT('',#1970);
#567=VERTEX_POINT('',#1972);
#568=VERTEX_POINT('',#1976);
#569=VERTEX_POINT('',#1982);
#570=VERTEX_POINT('',#1984);
#571=VERTEX_POINT('',#1988);
#572=VERTEX_POINT('',#1992);
#573=VERTEX_POINT('',#1999);
#574=VERTEX_POINT('',#2001);
#575=VERTEX_POINT('',#2003);
#576=VERTEX_POINT('',#2005);
#577=VERTEX_POINT('',#2008);
#578=VERTEX_POINT('',#2010);
#579=VERTEX_POINT('',#2012);
#580=VERTEX_POINT('',#2015);
#581=VERTEX_POINT('',#2017);
#582=VERTEX_POINT('',#2019);
#583=VERTEX_POINT('',#2022);
#584=VERTEX_POINT('',#2024);
#585=VERTEX_POINT('',#2026);
#586=VERTEX_POINT('',#2028);
#587=VERTEX_POINT('',#2032);
#588=VERTEX_POINT('',#2034);
#589=VERTEX_POINT('',#2045);
#590=VERTEX_POINT('',#2056);
#591=EDGE_CURVE('',#479,#479,#431,.T.);
#592=EDGE_CURVE('',#480,#480,#432,.T.);
#593=EDGE_CURVE('',#481,#481,#433,.T.);
#594=EDGE_CURVE('',#481,#479,#23,.T.);
#595=EDGE_CURVE('',#480,#482,#24,.T.);
#596=EDGE_CURVE('',#482,#482,#434,.T.);
#597=EDGE_CURVE('',#483,#483,#435,.T.);
#598=EDGE_CURVE('',#484,#484,#436,.T.);
#599=EDGE_CURVE('',#485,#485,#437,.T.);
#600=EDGE_CURVE('',#485,#483,#25,.T.);
#601=EDGE_CURVE('',#484,#486,#26,.T.);
#602=EDGE_CURVE('',#486,#486,#438,.T.);
#603=EDGE_CURVE('',#487,#487,#439,.T.);
#604=EDGE_CURVE('',#488,#488,#440,.T.);
#605=EDGE_CURVE('',#489,#489,#441,.T.);
#606=EDGE_CURVE('',#489,#487,#27,.T.);
#607=EDGE_CURVE('',#488,#490,#28,.T.);
#608=EDGE_CURVE('',#490,#490,#442,.T.);
#609=EDGE_CURVE('',#491,#491,#443,.T.);
#610=EDGE_CURVE('',#492,#492,#444,.T.);
#611=EDGE_CURVE('',#493,#493,#445,.T.);
#612=EDGE_CURVE('',#493,#491,#29,.T.);
#613=EDGE_CURVE('',#492,#494,#30,.T.);
#614=EDGE_CURVE('',#494,#494,#446,.T.);
#615=EDGE_CURVE('',#495,#496,#15,.F.);
#616=EDGE_CURVE('',#495,#497,#31,.T.);
#617=EDGE_CURVE('',#497,#498,#16,.T.);
#618=EDGE_CURVE('',#498,#499,#447,.T.);
#619=EDGE_CURVE('',#499,#500,#32,.T.);
#620=EDGE_CURVE('',#496,#500,#448,.F.);
#621=EDGE_CURVE('',#501,#499,#33,.T.);
#622=EDGE_CURVE('',#502,#501,#449,.T.);
#623=EDGE_CURVE('',#503,#502,#34,.T.);
#624=EDGE_CURVE('',#504,#503,#450,.T.);
#625=EDGE_CURVE('',#500,#504,#35,.T.);
#626=EDGE_CURVE('',#505,#506,#17,.F.);
#627=EDGE_CURVE('',#505,#507,#36,.T.);
#628=EDGE_CURVE('',#507,#508,#18,.T.);
#629=EDGE_CURVE('',#508,#509,#451,.T.);
#630=EDGE_CURVE('',#509,#510,#37,.T.);
#631=EDGE_CURVE('',#506,#510,#452,.F.);
#632=EDGE_CURVE('',#511,#509,#38,.T.);
#633=EDGE_CURVE('',#512,#511,#453,.T.);
#634=EDGE_CURVE('',#513,#512,#39,.T.);
#635=EDGE_CURVE('',#514,#513,#454,.T.);
#636=EDGE_CURVE('',#510,#514,#40,.T.);
#637=EDGE_CURVE('',#515,#516,#19,.F.);
#638=EDGE_CURVE('',#515,#517,#41,.T.);
#639=EDGE_CURVE('',#517,#518,#20,.T.);
#640=EDGE_CURVE('',#518,#519,#455,.T.);
#641=EDGE_CURVE('',#519,#520,#42,.T.);
#642=EDGE_CURVE('',#516,#520,#456,.F.);
#643=EDGE_CURVE('',#521,#519,#43,.T.);
#644=EDGE_CURVE('',#522,#521,#457,.T.);
#645=EDGE_CURVE('',#523,#522,#44,.T.);
#646=EDGE_CURVE('',#524,#523,#458,.T.);
#647=EDGE_CURVE('',#520,#524,#45,.T.);
#648=EDGE_CURVE('',#525,#526,#21,.F.);
#649=EDGE_CURVE('',#525,#527,#46,.T.);
#650=EDGE_CURVE('',#527,#528,#22,.T.);
#651=EDGE_CURVE('',#528,#529,#459,.T.);
#652=EDGE_CURVE('',#529,#530,#47,.T.);
#653=EDGE_CURVE('',#526,#530,#460,.F.);
#654=EDGE_CURVE('',#531,#529,#48,.T.);
#655=EDGE_CURVE('',#532,#531,#461,.T.);
#656=EDGE_CURVE('',#533,#532,#49,.T.);
#657=EDGE_CURVE('',#534,#533,#462,.T.);
#658=EDGE_CURVE('',#530,#534,#50,.T.);
#659=EDGE_CURVE('',#535,#534,#51,.T.);
#660=EDGE_CURVE('',#535,#536,#52,.T.);
#661=EDGE_CURVE('',#526,#536,#53,.T.);
#662=EDGE_CURVE('',#537,#533,#54,.T.);
#663=EDGE_CURVE('',#537,#535,#463,.T.);
#664=EDGE_CURVE('',#538,#532,#55,.T.);
#665=EDGE_CURVE('',#538,#537,#56,.T.);
#666=EDGE_CURVE('',#539,#531,#57,.T.);
#667=EDGE_CURVE('',#539,#538,#464,.T.);
#668=EDGE_CURVE('',#516,#540,#58,.T.);
#669=EDGE_CURVE('',#540,#541,#465,.T.);
#670=EDGE_CURVE('',#541,#515,#59,.T.);
#671=EDGE_CURVE('',#542,#524,#60,.T.);
#672=EDGE_CURVE('',#542,#540,#61,.T.);
#673=EDGE_CURVE('',#543,#523,#62,.T.);
#674=EDGE_CURVE('',#543,#542,#466,.T.);
#675=EDGE_CURVE('',#544,#522,#63,.T.);
#676=EDGE_CURVE('',#544,#543,#64,.T.);
#677=EDGE_CURVE('',#545,#521,#65,.T.);
#678=EDGE_CURVE('',#545,#544,#467,.T.);
#679=EDGE_CURVE('',#546,#504,#66,.T.);
#680=EDGE_CURVE('',#546,#547,#67,.T.);
#681=EDGE_CURVE('',#496,#547,#68,.T.);
#682=EDGE_CURVE('',#548,#503,#69,.T.);
#683=EDGE_CURVE('',#548,#546,#468,.T.);
#684=EDGE_CURVE('',#549,#502,#70,.T.);
#685=EDGE_CURVE('',#549,#548,#71,.T.);
#686=EDGE_CURVE('',#550,#501,#72,.T.);
#687=EDGE_CURVE('',#550,#549,#469,.T.);
#688=EDGE_CURVE('',#506,#551,#73,.T.);
#689=EDGE_CURVE('',#551,#552,#470,.T.);
#690=EDGE_CURVE('',#552,#505,#74,.T.);
#691=EDGE_CURVE('',#553,#514,#75,.T.);
#692=EDGE_CURVE('',#553,#551,#76,.T.);
#693=EDGE_CURVE('',#554,#513,#77,.T.);
#694=EDGE_CURVE('',#554,#553,#471,.T.);
#695=EDGE_CURVE('',#555,#512,#78,.T.);
#696=EDGE_CURVE('',#555,#554,#79,.T.);
#697=EDGE_CURVE('',#556,#511,#80,.T.);
#698=EDGE_CURVE('',#556,#555,#472,.T.);
#699=EDGE_CURVE('',#557,#558,#81,.T.);
#700=EDGE_CURVE('',#559,#557,#82,.T.);
#701=EDGE_CURVE('',#560,#559,#83,.T.);
#702=EDGE_CURVE('',#558,#560,#84,.T.);
#703=EDGE_CURVE('',#561,#559,#85,.T.);
#704=EDGE_CURVE('',#561,#562,#86,.T.);
#705=EDGE_CURVE('',#560,#562,#87,.T.);
#706=EDGE_CURVE('',#557,#563,#88,.T.);
#707=EDGE_CURVE('',#563,#561,#89,.T.);
#708=EDGE_CURVE('',#564,#565,#90,.T.);
#709=EDGE_CURVE('',#565,#566,#91,.T.);
#710=EDGE_CURVE('',#566,#567,#92,.T.);
#711=EDGE_CURVE('',#567,#564,#93,.T.);
#712=EDGE_CURVE('',#568,#558,#94,.T.);
#713=EDGE_CURVE('',#563,#568,#95,.T.);
#714=EDGE_CURVE('',#562,#568,#96,.T.);
#715=EDGE_CURVE('',#564,#569,#97,.T.);
#716=EDGE_CURVE('',#569,#570,#98,.T.);
#717=EDGE_CURVE('',#565,#570,#99,.T.);
#718=EDGE_CURVE('',#567,#571,#100,.T.);
#719=EDGE_CURVE('',#571,#569,#101,.T.);
#720=EDGE_CURVE('',#566,#572,#102,.T.);
#721=EDGE_CURVE('',#572,#571,#103,.T.);
#722=EDGE_CURVE('',#570,#572,#104,.T.);
#723=EDGE_CURVE('',#573,#539,#105,.T.);
#724=EDGE_CURVE('',#574,#573,#473,.T.);
#725=EDGE_CURVE('',#575,#574,#106,.T.);
#726=EDGE_CURVE('',#576,#575,#107,.T.);
#727=EDGE_CURVE('',#547,#576,#474,.T.);
#728=EDGE_CURVE('',#577,#550,#108,.T.);
#729=EDGE_CURVE('',#578,#577,#475,.T.);
#730=EDGE_CURVE('',#579,#578,#109,.T.);
#731=EDGE_CURVE('',#552,#579,#110,.T.);
#732=EDGE_CURVE('',#580,#556,#111,.T.);
#733=EDGE_CURVE('',#581,#580,#476,.T.);
#734=EDGE_CURVE('',#582,#581,#112,.T.);
#735=EDGE_CURVE('',#541,#582,#113,.T.);
#736=EDGE_CURVE('',#583,#545,#114,.T.);
#737=EDGE_CURVE('',#584,#583,#477,.T.);
#738=EDGE_CURVE('',#585,#584,#115,.T.);
#739=EDGE_CURVE('',#586,#585,#116,.T.);
#740=EDGE_CURVE('',#536,#586,#478,.T.);
#741=EDGE_CURVE('',#579,#587,#117,.T.);
#742=EDGE_CURVE('',#588,#587,#118,.T.);
#743=EDGE_CURVE('',#582,#588,#119,.T.);
#744=EDGE_CURVE('',#507,#581,#120,.T.);
#745=EDGE_CURVE('',#497,#578,#121,.T.);
#746=EDGE_CURVE('',#577,#498,#122,.T.);
#747=EDGE_CURVE('',#576,#495,#123,.T.);
#748=EDGE_CURVE('',#575,#589,#124,.T.);
#749=EDGE_CURVE('',#587,#589,#125,.T.);
#750=EDGE_CURVE('',#527,#574,#126,.T.);
#751=EDGE_CURVE('',#573,#528,#127,.T.);
#752=EDGE_CURVE('',#580,#508,#128,.T.);
#753=EDGE_CURVE('',#590,#588,#129,.T.);
#754=EDGE_CURVE('',#585,#590,#130,.T.);
#755=EDGE_CURVE('',#517,#584,#131,.T.);
#756=EDGE_CURVE('',#583,#518,#132,.T.);
#757=EDGE_CURVE('',#586,#525,#133,.T.);
#758=EDGE_CURVE('',#589,#590,#134,.T.);
#759=ORIENTED_EDGE('',*,*,#591,.T.);
#760=ORIENTED_EDGE('',*,*,#592,.F.);
#761=ORIENTED_EDGE('',*,*,#593,.F.);
#762=ORIENTED_EDGE('',*,*,#594,.T.);
#763=ORIENTED_EDGE('',*,*,#591,.F.);
#764=ORIENTED_EDGE('',*,*,#594,.F.);
#765=ORIENTED_EDGE('',*,*,#592,.T.);
#766=ORIENTED_EDGE('',*,*,#595,.T.);
#767=ORIENTED_EDGE('',*,*,#596,.F.);
#768=ORIENTED_EDGE('',*,*,#595,.F.);
#769=ORIENTED_EDGE('',*,*,#597,.F.);
#770=ORIENTED_EDGE('',*,*,#598,.T.);
#771=ORIENTED_EDGE('',*,*,#599,.F.);
#772=ORIENTED_EDGE('',*,*,#600,.T.);
#773=ORIENTED_EDGE('',*,*,#597,.T.);
#774=ORIENTED_EDGE('',*,*,#600,.F.);
#775=ORIENTED_EDGE('',*,*,#598,.F.);
#776=ORIENTED_EDGE('',*,*,#601,.T.);
#777=ORIENTED_EDGE('',*,*,#602,.F.);
#778=ORIENTED_EDGE('',*,*,#601,.F.);
#779=ORIENTED_EDGE('',*,*,#603,.T.);
#780=ORIENTED_EDGE('',*,*,#604,.F.);
#781=ORIENTED_EDGE('',*,*,#605,.F.);
#782=ORIENTED_EDGE('',*,*,#606,.T.);
#783=ORIENTED_EDGE('',*,*,#603,.F.);
#784=ORIENTED_EDGE('',*,*,#606,.F.);
#785=ORIENTED_EDGE('',*,*,#604,.T.);
#786=ORIENTED_EDGE('',*,*,#607,.T.);
#787=ORIENTED_EDGE('',*,*,#608,.F.);
#788=ORIENTED_EDGE('',*,*,#607,.F.);
#789=ORIENTED_EDGE('',*,*,#609,.F.);
#790=ORIENTED_EDGE('',*,*,#610,.T.);
#791=ORIENTED_EDGE('',*,*,#611,.F.);
#792=ORIENTED_EDGE('',*,*,#612,.T.);
#793=ORIENTED_EDGE('',*,*,#609,.T.);
#794=ORIENTED_EDGE('',*,*,#612,.F.);
#795=ORIENTED_EDGE('',*,*,#610,.F.);
#796=ORIENTED_EDGE('',*,*,#613,.T.);
#797=ORIENTED_EDGE('',*,*,#614,.F.);
#798=ORIENTED_EDGE('',*,*,#613,.F.);
#799=ORIENTED_EDGE('',*,*,#615,.F.);
#800=ORIENTED_EDGE('',*,*,#616,.T.);
#801=ORIENTED_EDGE('',*,*,#617,.T.);
#802=ORIENTED_EDGE('',*,*,#618,.T.);
#803=ORIENTED_EDGE('',*,*,#619,.T.);
#804=ORIENTED_EDGE('',*,*,#620,.F.);
#805=ORIENTED_EDGE('',*,*,#619,.F.);
#806=ORIENTED_EDGE('',*,*,#621,.F.);
#807=ORIENTED_EDGE('',*,*,#622,.F.);
#808=ORIENTED_EDGE('',*,*,#623,.F.);
#809=ORIENTED_EDGE('',*,*,#624,.F.);
#810=ORIENTED_EDGE('',*,*,#625,.F.);
#811=ORIENTED_EDGE('',*,*,#614,.T.);
#812=ORIENTED_EDGE('',*,*,#626,.F.);
#813=ORIENTED_EDGE('',*,*,#627,.T.);
#814=ORIENTED_EDGE('',*,*,#628,.T.);
#815=ORIENTED_EDGE('',*,*,#629,.T.);
#816=ORIENTED_EDGE('',*,*,#630,.T.);
#817=ORIENTED_EDGE('',*,*,#631,.F.);
#818=ORIENTED_EDGE('',*,*,#630,.F.);
#819=ORIENTED_EDGE('',*,*,#632,.F.);
#820=ORIENTED_EDGE('',*,*,#633,.F.);
#821=ORIENTED_EDGE('',*,*,#634,.F.);
#822=ORIENTED_EDGE('',*,*,#635,.F.);
#823=ORIENTED_EDGE('',*,*,#636,.F.);
#824=ORIENTED_EDGE('',*,*,#602,.T.);
#825=ORIENTED_EDGE('',*,*,#637,.F.);
#826=ORIENTED_EDGE('',*,*,#638,.T.);
#827=ORIENTED_EDGE('',*,*,#639,.T.);
#828=ORIENTED_EDGE('',*,*,#640,.T.);
#829=ORIENTED_EDGE('',*,*,#641,.T.);
#830=ORIENTED_EDGE('',*,*,#642,.F.);
#831=ORIENTED_EDGE('',*,*,#641,.F.);
#832=ORIENTED_EDGE('',*,*,#643,.F.);
#833=ORIENTED_EDGE('',*,*,#644,.F.);
#834=ORIENTED_EDGE('',*,*,#645,.F.);
#835=ORIENTED_EDGE('',*,*,#646,.F.);
#836=ORIENTED_EDGE('',*,*,#647,.F.);
#837=ORIENTED_EDGE('',*,*,#608,.T.);
#838=ORIENTED_EDGE('',*,*,#648,.F.);
#839=ORIENTED_EDGE('',*,*,#649,.T.);
#840=ORIENTED_EDGE('',*,*,#650,.T.);
#841=ORIENTED_EDGE('',*,*,#651,.T.);
#842=ORIENTED_EDGE('',*,*,#652,.T.);
#843=ORIENTED_EDGE('',*,*,#653,.F.);
#844=ORIENTED_EDGE('',*,*,#652,.F.);
#845=ORIENTED_EDGE('',*,*,#654,.F.);
#846=ORIENTED_EDGE('',*,*,#655,.F.);
#847=ORIENTED_EDGE('',*,*,#656,.F.);
#848=ORIENTED_EDGE('',*,*,#657,.F.);
#849=ORIENTED_EDGE('',*,*,#658,.F.);
#850=ORIENTED_EDGE('',*,*,#596,.T.);
#851=ORIENTED_EDGE('',*,*,#658,.T.);
#852=ORIENTED_EDGE('',*,*,#659,.F.);
#853=ORIENTED_EDGE('',*,*,#660,.T.);
#854=ORIENTED_EDGE('',*,*,#661,.F.);
#855=ORIENTED_EDGE('',*,*,#653,.T.);
#856=ORIENTED_EDGE('',*,*,#657,.T.);
#857=ORIENTED_EDGE('',*,*,#662,.F.);
#858=ORIENTED_EDGE('',*,*,#663,.T.);
#859=ORIENTED_EDGE('',*,*,#659,.T.);
#860=ORIENTED_EDGE('',*,*,#656,.T.);
#861=ORIENTED_EDGE('',*,*,#664,.F.);
#862=ORIENTED_EDGE('',*,*,#665,.T.);
#863=ORIENTED_EDGE('',*,*,#662,.T.);
#864=ORIENTED_EDGE('',*,*,#655,.T.);
#865=ORIENTED_EDGE('',*,*,#666,.F.);
#866=ORIENTED_EDGE('',*,*,#667,.T.);
#867=ORIENTED_EDGE('',*,*,#664,.T.);
#868=ORIENTED_EDGE('',*,*,#668,.T.);
#869=ORIENTED_EDGE('',*,*,#669,.T.);
#870=ORIENTED_EDGE('',*,*,#670,.T.);
#871=ORIENTED_EDGE('',*,*,#637,.T.);
#872=ORIENTED_EDGE('',*,*,#647,.T.);
#873=ORIENTED_EDGE('',*,*,#671,.F.);
#874=ORIENTED_EDGE('',*,*,#672,.T.);
#875=ORIENTED_EDGE('',*,*,#668,.F.);
#876=ORIENTED_EDGE('',*,*,#642,.T.);
#877=ORIENTED_EDGE('',*,*,#646,.T.);
#878=ORIENTED_EDGE('',*,*,#673,.F.);
#879=ORIENTED_EDGE('',*,*,#674,.T.);
#880=ORIENTED_EDGE('',*,*,#671,.T.);
#881=ORIENTED_EDGE('',*,*,#645,.T.);
#882=ORIENTED_EDGE('',*,*,#675,.F.);
#883=ORIENTED_EDGE('',*,*,#676,.T.);
#884=ORIENTED_EDGE('',*,*,#673,.T.);
#885=ORIENTED_EDGE('',*,*,#644,.T.);
#886=ORIENTED_EDGE('',*,*,#677,.F.);
#887=ORIENTED_EDGE('',*,*,#678,.T.);
#888=ORIENTED_EDGE('',*,*,#675,.T.);
#889=ORIENTED_EDGE('',*,*,#625,.T.);
#890=ORIENTED_EDGE('',*,*,#679,.F.);
#891=ORIENTED_EDGE('',*,*,#680,.T.);
#892=ORIENTED_EDGE('',*,*,#681,.F.);
#893=ORIENTED_EDGE('',*,*,#620,.T.);
#894=ORIENTED_EDGE('',*,*,#624,.T.);
#895=ORIENTED_EDGE('',*,*,#682,.F.);
#896=ORIENTED_EDGE('',*,*,#683,.T.);
#897=ORIENTED_EDGE('',*,*,#679,.T.);
#898=ORIENTED_EDGE('',*,*,#623,.T.);
#899=ORIENTED_EDGE('',*,*,#684,.F.);
#900=ORIENTED_EDGE('',*,*,#685,.T.);
#901=ORIENTED_EDGE('',*,*,#682,.T.);
#902=ORIENTED_EDGE('',*,*,#622,.T.);
#903=ORIENTED_EDGE('',*,*,#686,.F.);
#904=ORIENTED_EDGE('',*,*,#687,.T.);
#905=ORIENTED_EDGE('',*,*,#684,.T.);
#906=ORIENTED_EDGE('',*,*,#688,.T.);
#907=ORIENTED_EDGE('',*,*,#689,.T.);
#908=ORIENTED_EDGE('',*,*,#690,.T.);
#909=ORIENTED_EDGE('',*,*,#626,.T.);
#910=ORIENTED_EDGE('',*,*,#636,.T.);
#911=ORIENTED_EDGE('',*,*,#691,.F.);
#912=ORIENTED_EDGE('',*,*,#692,.T.);
#913=ORIENTED_EDGE('',*,*,#688,.F.);
#914=ORIENTED_EDGE('',*,*,#631,.T.);
#915=ORIENTED_EDGE('',*,*,#635,.T.);
#916=ORIENTED_EDGE('',*,*,#693,.F.);
#917=ORIENTED_EDGE('',*,*,#694,.T.);
#918=ORIENTED_EDGE('',*,*,#691,.T.);
#919=ORIENTED_EDGE('',*,*,#634,.T.);
#920=ORIENTED_EDGE('',*,*,#695,.F.);
#921=ORIENTED_EDGE('',*,*,#696,.T.);
#922=ORIENTED_EDGE('',*,*,#693,.T.);
#923=ORIENTED_EDGE('',*,*,#633,.T.);
#924=ORIENTED_EDGE('',*,*,#697,.F.);
#925=ORIENTED_EDGE('',*,*,#698,.T.);
#926=ORIENTED_EDGE('',*,*,#695,.T.);
#927=ORIENTED_EDGE('',*,*,#699,.F.);
#928=ORIENTED_EDGE('',*,*,#700,.F.);
#929=ORIENTED_EDGE('',*,*,#701,.F.);
#930=ORIENTED_EDGE('',*,*,#702,.F.);
#931=ORIENTED_EDGE('',*,*,#701,.T.);
#932=ORIENTED_EDGE('',*,*,#703,.F.);
#933=ORIENTED_EDGE('',*,*,#704,.T.);
#934=ORIENTED_EDGE('',*,*,#705,.F.);
#935=ORIENTED_EDGE('',*,*,#700,.T.);
#936=ORIENTED_EDGE('',*,*,#706,.T.);
#937=ORIENTED_EDGE('',*,*,#707,.T.);
#938=ORIENTED_EDGE('',*,*,#703,.T.);
#939=ORIENTED_EDGE('',*,*,#708,.T.);
#940=ORIENTED_EDGE('',*,*,#709,.T.);
#941=ORIENTED_EDGE('',*,*,#710,.T.);
#942=ORIENTED_EDGE('',*,*,#711,.T.);
#943=ORIENTED_EDGE('',*,*,#699,.T.);
#944=ORIENTED_EDGE('',*,*,#712,.F.);
#945=ORIENTED_EDGE('',*,*,#713,.F.);
#946=ORIENTED_EDGE('',*,*,#706,.F.);
#947=ORIENTED_EDGE('',*,*,#713,.T.);
#948=ORIENTED_EDGE('',*,*,#714,.F.);
#949=ORIENTED_EDGE('',*,*,#704,.F.);
#950=ORIENTED_EDGE('',*,*,#707,.F.);
#951=ORIENTED_EDGE('',*,*,#708,.F.);
#952=ORIENTED_EDGE('',*,*,#715,.T.);
#953=ORIENTED_EDGE('',*,*,#716,.T.);
#954=ORIENTED_EDGE('',*,*,#717,.F.);
#955=ORIENTED_EDGE('',*,*,#711,.F.);
#956=ORIENTED_EDGE('',*,*,#718,.T.);
#957=ORIENTED_EDGE('',*,*,#719,.T.);
#958=ORIENTED_EDGE('',*,*,#715,.F.);
#959=ORIENTED_EDGE('',*,*,#710,.F.);
#960=ORIENTED_EDGE('',*,*,#720,.T.);
#961=ORIENTED_EDGE('',*,*,#721,.T.);
#962=ORIENTED_EDGE('',*,*,#718,.F.);
#963=ORIENTED_EDGE('',*,*,#709,.F.);
#964=ORIENTED_EDGE('',*,*,#717,.T.);
#965=ORIENTED_EDGE('',*,*,#722,.T.);
#966=ORIENTED_EDGE('',*,*,#720,.F.);
#967=ORIENTED_EDGE('',*,*,#722,.F.);
#968=ORIENTED_EDGE('',*,*,#716,.F.);
#969=ORIENTED_EDGE('',*,*,#719,.F.);
#970=ORIENTED_EDGE('',*,*,#721,.F.);
#971=ORIENTED_EDGE('',*,*,#667,.F.);
#972=ORIENTED_EDGE('',*,*,#723,.F.);
#973=ORIENTED_EDGE('',*,*,#724,.F.);
#974=ORIENTED_EDGE('',*,*,#725,.F.);
#975=ORIENTED_EDGE('',*,*,#726,.F.);
#976=ORIENTED_EDGE('',*,*,#727,.F.);
#977=ORIENTED_EDGE('',*,*,#680,.F.);
#978=ORIENTED_EDGE('',*,*,#683,.F.);
#979=ORIENTED_EDGE('',*,*,#685,.F.);
#980=ORIENTED_EDGE('',*,*,#687,.F.);
#981=ORIENTED_EDGE('',*,*,#728,.F.);
#982=ORIENTED_EDGE('',*,*,#729,.F.);
#983=ORIENTED_EDGE('',*,*,#730,.F.);
#984=ORIENTED_EDGE('',*,*,#731,.F.);
#985=ORIENTED_EDGE('',*,*,#689,.F.);
#986=ORIENTED_EDGE('',*,*,#692,.F.);
#987=ORIENTED_EDGE('',*,*,#694,.F.);
#988=ORIENTED_EDGE('',*,*,#696,.F.);
#989=ORIENTED_EDGE('',*,*,#698,.F.);
#990=ORIENTED_EDGE('',*,*,#732,.F.);
#991=ORIENTED_EDGE('',*,*,#733,.F.);
#992=ORIENTED_EDGE('',*,*,#734,.F.);
#993=ORIENTED_EDGE('',*,*,#735,.F.);
#994=ORIENTED_EDGE('',*,*,#669,.F.);
#995=ORIENTED_EDGE('',*,*,#672,.F.);
#996=ORIENTED_EDGE('',*,*,#674,.F.);
#997=ORIENTED_EDGE('',*,*,#676,.F.);
#998=ORIENTED_EDGE('',*,*,#678,.F.);
#999=ORIENTED_EDGE('',*,*,#736,.F.);
#1000=ORIENTED_EDGE('',*,*,#737,.F.);
#1001=ORIENTED_EDGE('',*,*,#738,.F.);
#1002=ORIENTED_EDGE('',*,*,#739,.F.);
#1003=ORIENTED_EDGE('',*,*,#740,.F.);
#1004=ORIENTED_EDGE('',*,*,#660,.F.);
#1005=ORIENTED_EDGE('',*,*,#663,.F.);
#1006=ORIENTED_EDGE('',*,*,#665,.F.);
#1007=ORIENTED_EDGE('',*,*,#593,.T.);
#1008=ORIENTED_EDGE('',*,*,#599,.T.);
#1009=ORIENTED_EDGE('',*,*,#605,.T.);
#1010=ORIENTED_EDGE('',*,*,#611,.T.);
#1011=ORIENTED_EDGE('',*,*,#705,.T.);
#1012=ORIENTED_EDGE('',*,*,#714,.T.);
#1013=ORIENTED_EDGE('',*,*,#712,.T.);
#1014=ORIENTED_EDGE('',*,*,#702,.T.);
#1015=ORIENTED_EDGE('',*,*,#690,.F.);
#1016=ORIENTED_EDGE('',*,*,#731,.T.);
#1017=ORIENTED_EDGE('',*,*,#741,.T.);
#1018=ORIENTED_EDGE('',*,*,#742,.F.);
#1019=ORIENTED_EDGE('',*,*,#743,.F.);
#1020=ORIENTED_EDGE('',*,*,#734,.T.);
#1021=ORIENTED_EDGE('',*,*,#744,.F.);
#1022=ORIENTED_EDGE('',*,*,#627,.F.);
#1023=ORIENTED_EDGE('',*,*,#745,.T.);
#1024=ORIENTED_EDGE('',*,*,#729,.T.);
#1025=ORIENTED_EDGE('',*,*,#746,.T.);
#1026=ORIENTED_EDGE('',*,*,#617,.F.);
#1027=ORIENTED_EDGE('',*,*,#621,.T.);
#1028=ORIENTED_EDGE('',*,*,#618,.F.);
#1029=ORIENTED_EDGE('',*,*,#746,.F.);
#1030=ORIENTED_EDGE('',*,*,#728,.T.);
#1031=ORIENTED_EDGE('',*,*,#686,.T.);
#1032=ORIENTED_EDGE('',*,*,#681,.T.);
#1033=ORIENTED_EDGE('',*,*,#727,.T.);
#1034=ORIENTED_EDGE('',*,*,#747,.T.);
#1035=ORIENTED_EDGE('',*,*,#615,.T.);
#1036=ORIENTED_EDGE('',*,*,#747,.F.);
#1037=ORIENTED_EDGE('',*,*,#726,.T.);
#1038=ORIENTED_EDGE('',*,*,#748,.T.);
#1039=ORIENTED_EDGE('',*,*,#749,.F.);
#1040=ORIENTED_EDGE('',*,*,#741,.F.);
#1041=ORIENTED_EDGE('',*,*,#730,.T.);
#1042=ORIENTED_EDGE('',*,*,#745,.F.);
#1043=ORIENTED_EDGE('',*,*,#616,.F.);
#1044=ORIENTED_EDGE('',*,*,#750,.T.);
#1045=ORIENTED_EDGE('',*,*,#724,.T.);
#1046=ORIENTED_EDGE('',*,*,#751,.T.);
#1047=ORIENTED_EDGE('',*,*,#650,.F.);
#1048=ORIENTED_EDGE('',*,*,#654,.T.);
#1049=ORIENTED_EDGE('',*,*,#651,.F.);
#1050=ORIENTED_EDGE('',*,*,#751,.F.);
#1051=ORIENTED_EDGE('',*,*,#723,.T.);
#1052=ORIENTED_EDGE('',*,*,#666,.T.);
#1053=ORIENTED_EDGE('',*,*,#632,.T.);
#1054=ORIENTED_EDGE('',*,*,#629,.F.);
#1055=ORIENTED_EDGE('',*,*,#752,.F.);
#1056=ORIENTED_EDGE('',*,*,#732,.T.);
#1057=ORIENTED_EDGE('',*,*,#697,.T.);
#1058=ORIENTED_EDGE('',*,*,#744,.T.);
#1059=ORIENTED_EDGE('',*,*,#733,.T.);
#1060=ORIENTED_EDGE('',*,*,#752,.T.);
#1061=ORIENTED_EDGE('',*,*,#628,.F.);
#1062=ORIENTED_EDGE('',*,*,#670,.F.);
#1063=ORIENTED_EDGE('',*,*,#735,.T.);
#1064=ORIENTED_EDGE('',*,*,#743,.T.);
#1065=ORIENTED_EDGE('',*,*,#753,.F.);
#1066=ORIENTED_EDGE('',*,*,#754,.F.);
#1067=ORIENTED_EDGE('',*,*,#738,.T.);
#1068=ORIENTED_EDGE('',*,*,#755,.F.);
#1069=ORIENTED_EDGE('',*,*,#638,.F.);
#1070=ORIENTED_EDGE('',*,*,#643,.T.);
#1071=ORIENTED_EDGE('',*,*,#640,.F.);
#1072=ORIENTED_EDGE('',*,*,#756,.F.);
#1073=ORIENTED_EDGE('',*,*,#736,.T.);
#1074=ORIENTED_EDGE('',*,*,#677,.T.);
#1075=ORIENTED_EDGE('',*,*,#755,.T.);
#1076=ORIENTED_EDGE('',*,*,#737,.T.);
#1077=ORIENTED_EDGE('',*,*,#756,.T.);
#1078=ORIENTED_EDGE('',*,*,#639,.F.);
#1079=ORIENTED_EDGE('',*,*,#757,.F.);
#1080=ORIENTED_EDGE('',*,*,#739,.T.);
#1081=ORIENTED_EDGE('',*,*,#754,.T.);
#1082=ORIENTED_EDGE('',*,*,#758,.F.);
#1083=ORIENTED_EDGE('',*,*,#748,.F.);
#1084=ORIENTED_EDGE('',*,*,#725,.T.);
#1085=ORIENTED_EDGE('',*,*,#750,.F.);
#1086=ORIENTED_EDGE('',*,*,#649,.F.);
#1087=ORIENTED_EDGE('',*,*,#661,.T.);
#1088=ORIENTED_EDGE('',*,*,#740,.T.);
#1089=ORIENTED_EDGE('',*,*,#757,.T.);
#1090=ORIENTED_EDGE('',*,*,#648,.T.);
#1091=ORIENTED_EDGE('',*,*,#758,.T.);
#1092=ORIENTED_EDGE('',*,*,#753,.T.);
#1093=ORIENTED_EDGE('',*,*,#742,.T.);
#1094=ORIENTED_EDGE('',*,*,#749,.T.);
#1095=PLANE('',#1209);
#1096=PLANE('',#1216);
#1097=PLANE('',#1223);
#1098=PLANE('',#1230);
#1099=PLANE('',#1240);
#1100=PLANE('',#1246);
#1101=PLANE('',#1252);
#1102=PLANE('',#1258);
#1103=PLANE('',#1261);
#1104=PLANE('',#1264);
#1105=PLANE('',#1269);
#1106=PLANE('',#1272);
#1107=PLANE('',#1275);
#1108=PLANE('',#1278);
#1109=PLANE('',#1283);
#1110=PLANE('',#1286);
#1111=PLANE('',#1289);
#1112=PLANE('',#1290);
#1113=PLANE('',#1291);
#1114=PLANE('',#1292);
#1115=PLANE('',#1293);
#1116=PLANE('',#1294);
#1117=PLANE('',#1295);
#1118=PLANE('',#1296);
#1119=PLANE('',#1297);
#1120=PLANE('',#1298);
#1121=PLANE('',#1299);
#1122=PLANE('',#1306);
#1123=PLANE('',#1308);
#1124=PLANE('',#1310);
#1125=PLANE('',#1312);
#1126=PLANE('',#1313);
#1127=PLANE('',#1315);
#1128=PLANE('',#1316);
#1129=PLANE('',#1318);
#1130=PLANE('',#1320);
#1131=ADVANCED_FACE('',(#289,#275),#1095,.T.);
#1132=ADVANCED_FACE('',(#290),#247,.F.);
#1133=ADVANCED_FACE('',(#291),#248,.F.);
#1134=ADVANCED_FACE('',(#292,#276),#1096,.F.);
#1135=ADVANCED_FACE('',(#293),#249,.F.);
#1136=ADVANCED_FACE('',(#294),#250,.F.);
#1137=ADVANCED_FACE('',(#295,#277),#1097,.T.);
#1138=ADVANCED_FACE('',(#296),#251,.F.);
#1139=ADVANCED_FACE('',(#297),#252,.F.);
#1140=ADVANCED_FACE('',(#298,#278),#1098,.F.);
#1141=ADVANCED_FACE('',(#299),#253,.F.);
#1142=ADVANCED_FACE('',(#300),#254,.F.);
#1143=ADVANCED_FACE('',(#301),#255,.F.);
#1144=ADVANCED_FACE('',(#302,#279),#1099,.T.);
#1145=ADVANCED_FACE('',(#303),#256,.F.);
#1146=ADVANCED_FACE('',(#304,#280),#1100,.T.);
#1147=ADVANCED_FACE('',(#305),#257,.F.);
#1148=ADVANCED_FACE('',(#306,#281),#1101,.T.);
#1149=ADVANCED_FACE('',(#307),#258,.F.);
#1150=ADVANCED_FACE('',(#308,#282),#1102,.T.);
#1151=ADVANCED_FACE('',(#309),#1103,.T.);
#1152=ADVANCED_FACE('',(#310),#259,.T.);
#1153=ADVANCED_FACE('',(#311),#1104,.T.);
#1154=ADVANCED_FACE('',(#312),#260,.T.);
#1155=ADVANCED_FACE('',(#313),#261,.F.);
#1156=ADVANCED_FACE('',(#314),#1105,.T.);
#1157=ADVANCED_FACE('',(#315),#262,.T.);
#1158=ADVANCED_FACE('',(#316),#1106,.T.);
#1159=ADVANCED_FACE('',(#317),#263,.T.);
#1160=ADVANCED_FACE('',(#318),#1107,.T.);
#1161=ADVANCED_FACE('',(#319),#264,.T.);
#1162=ADVANCED_FACE('',(#320),#1108,.T.);
#1163=ADVANCED_FACE('',(#321),#265,.T.);
#1164=ADVANCED_FACE('',(#322),#266,.F.);
#1165=ADVANCED_FACE('',(#323),#1109,.T.);
#1166=ADVANCED_FACE('',(#324),#267,.T.);
#1167=ADVANCED_FACE('',(#325),#1110,.T.);
#1168=ADVANCED_FACE('',(#326),#268,.T.);
#1169=ADVANCED_FACE('',(#327),#1111,.F.);
#1170=ADVANCED_FACE('',(#328),#1112,.F.);
#1171=ADVANCED_FACE('',(#329,#283),#1113,.F.);
#1172=ADVANCED_FACE('',(#330),#1114,.F.);
#1173=ADVANCED_FACE('',(#331),#1115,.F.);
#1174=ADVANCED_FACE('',(#332),#1116,.F.);
#1175=ADVANCED_FACE('',(#333),#1117,.F.);
#1176=ADVANCED_FACE('',(#334),#1118,.F.);
#1177=ADVANCED_FACE('',(#335),#1119,.F.);
#1178=ADVANCED_FACE('',(#336),#1120,.F.);
#1179=ADVANCED_FACE('',(#337,#284,#285,#286,#287,#288),#1121,.F.);
#1180=ADVANCED_FACE('',(#338),#1122,.T.);
#1181=ADVANCED_FACE('',(#339),#269,.F.);
#1182=ADVANCED_FACE('',(#340),#1123,.T.);
#1183=ADVANCED_FACE('',(#341),#270,.F.);
#1184=ADVANCED_FACE('',(#342),#1124,.T.);
#1185=ADVANCED_FACE('',(#343),#271,.F.);
#1186=ADVANCED_FACE('',(#344),#1125,.T.);
#1187=ADVANCED_FACE('',(#345),#1126,.T.);
#1188=ADVANCED_FACE('',(#346),#272,.F.);
#1189=ADVANCED_FACE('',(#347),#1127,.T.);
#1190=ADVANCED_FACE('',(#348),#1128,.T.);
#1191=ADVANCED_FACE('',(#349),#273,.F.);
#1192=ADVANCED_FACE('',(#350),#1129,.T.);
#1193=ADVANCED_FACE('',(#351),#274,.F.);
#1194=ADVANCED_FACE('',(#352),#1130,.T.);
#1195=CLOSED_SHELL('',(#1131,#1132,#1133,#1134,#1135,#1136,#1137,#1138,
#1139,#1140,#1141,#1142,#1143,#1144,#1145,#1146,#1147,#1148,#1149,#1150,
#1151,#1152,#1153,#1154,#1155,#1156,#1157,#1158,#1159,#1160,#1161,#1162,
#1163,#1164,#1165,#1166,#1167,#1168,#1169,#1170,#1171,#1172,#1173,#1174,
#1175,#1176,#1177,#1178,#1179,#1180,#1181,#1182,#1183,#1184,#1185,#1186,
#1187,#1188,#1189,#1190,#1191,#1192,#1193,#1194));
#1196=DERIVED_UNIT_ELEMENT(#1198,1.);
#1197=DERIVED_UNIT_ELEMENT(#2073,-3.);
#1198=(
MASS_UNIT()
NAMED_UNIT(*)
SI_UNIT(.KILO.,.GRAM.)
);
#1199=DERIVED_UNIT((#1196,#1197));
#1200=MEASURE_REPRESENTATION_ITEM('density measure',
POSITIVE_RATIO_MEASURE(7850.),#1199);
#1201=PROPERTY_DEFINITION_REPRESENTATION(#1206,#1203);
#1202=PROPERTY_DEFINITION_REPRESENTATION(#1207,#1204);
#1203=REPRESENTATION('material name',(#1205),#2070);
#1204=REPRESENTATION('density',(#1200),#2070);
#1205=DESCRIPTIVE_REPRESENTATION_ITEM('Steel','Steel');
#1206=PROPERTY_DEFINITION('material property','material name',#2080);
#1207=PROPERTY_DEFINITION('material property','density of part',#2080);
#1208=AXIS2_PLACEMENT_3D('',#1659,#1321,#1322);
#1209=AXIS2_PLACEMENT_3D('',#1660,#1323,#1324);
#1210=AXIS2_PLACEMENT_3D('',#1662,#1325,#1326);
#1211=AXIS2_PLACEMENT_3D('',#1664,#1327,#1328);
#1212=AXIS2_PLACEMENT_3D('',#1665,#1329,#1330);
#1213=AXIS2_PLACEMENT_3D('',#1667,#1331,#1332);
#1214=AXIS2_PLACEMENT_3D('',#1669,#1334,#1335);
#1215=AXIS2_PLACEMENT_3D('',#1672,#1337,#1338);
#1216=AXIS2_PLACEMENT_3D('',#1673,#1339,#1340);
#1217=AXIS2_PLACEMENT_3D('',#1675,#1341,#1342);
#1218=AXIS2_PLACEMENT_3D('',#1677,#1343,#1344);
#1219=AXIS2_PLACEMENT_3D('',#1678,#1345,#1346);
#1220=AXIS2_PLACEMENT_3D('',#1680,#1347,#1348);
#1221=AXIS2_PLACEMENT_3D('',#1682,#1350,#1351);
#1222=AXIS2_PLACEMENT_3D('',#1685,#1353,#1354);
#1223=AXIS2_PLACEMENT_3D('',#1686,#1355,#1356);
#1224=AXIS2_PLACEMENT_3D('',#1688,#1357,#1358);
#1225=AXIS2_PLACEMENT_3D('',#1690,#1359,#1360);
#1226=AXIS2_PLACEMENT_3D('',#1691,#1361,#1362);
#1227=AXIS2_PLACEMENT_3D('',#1693,#1363,#1364);
#1228=AXIS2_PLACEMENT_3D('',#1695,#1366,#1367);
#1229=AXIS2_PLACEMENT_3D('',#1698,#1369,#1370);
#1230=AXIS2_PLACEMENT_3D('',#1699,#1371,#1372);
#1231=AXIS2_PLACEMENT_3D('',#1701,#1373,#1374);
#1232=AXIS2_PLACEMENT_3D('',#1703,#1375,#1376);
#1233=AXIS2_PLACEMENT_3D('',#1704,#1377,#1378);
#1234=AXIS2_PLACEMENT_3D('',#1706,#1379,#1380);
#1235=AXIS2_PLACEMENT_3D('',#1708,#1382,#1383);
#1236=AXIS2_PLACEMENT_3D('',#1711,#1385,#1386);
#1237=AXIS2_PLACEMENT_3D('',#1712,#1387,#1388);
#1238=AXIS2_PLACEMENT_3D('',#1737,#1390,#1391);
#1239=AXIS2_PLACEMENT_3D('',#1740,#1393,#1394);
#1240=AXIS2_PLACEMENT_3D('',#1741,#1395,#1396);
#1241=AXIS2_PLACEMENT_3D('',#1745,#1398,#1399);
#1242=AXIS2_PLACEMENT_3D('',#1749,#1401,#1402);
#1243=AXIS2_PLACEMENT_3D('',#1751,#1404,#1405);
#1244=AXIS2_PLACEMENT_3D('',#1776,#1407,#1408);
#1245=AXIS2_PLACEMENT_3D('',#1779,#1410,#1411);
#1246=AXIS2_PLACEMENT_3D('',#1780,#1412,#1413);
#1247=AXIS2_PLACEMENT_3D('',#1784,#1415,#1416);
#1248=AXIS2_PLACEMENT_3D('',#1788,#1418,#1419);
#1249=AXIS2_PLACEMENT_3D('',#1790,#1421,#1422);
#1250=AXIS2_PLACEMENT_3D('',#1815,#1424,#1425);
#1251=AXIS2_PLACEMENT_3D('',#1818,#1427,#1428);
#1252=AXIS2_PLACEMENT_3D('',#1819,#1429,#1430);
#1253=AXIS2_PLACEMENT_3D('',#1823,#1432,#1433);
#1254=AXIS2_PLACEMENT_3D('',#1827,#1435,#1436);
#1255=AXIS2_PLACEMENT_3D('',#1829,#1438,#1439);
#1256=AXIS2_PLACEMENT_3D('',#1854,#1441,#1442);
#1257=AXIS2_PLACEMENT_3D('',#1857,#1444,#1445);
#1258=AXIS2_PLACEMENT_3D('',#1858,#1446,#1447);
#1259=AXIS2_PLACEMENT_3D('',#1862,#1449,#1450);
#1260=AXIS2_PLACEMENT_3D('',#1866,#1452,#1453);
#1261=AXIS2_PLACEMENT_3D('',#1868,#1455,#1456);
#1262=AXIS2_PLACEMENT_3D('',#1874,#1460,#1461);
#1263=AXIS2_PLACEMENT_3D('',#1877,#1463,#1464);
#1264=AXIS2_PLACEMENT_3D('',#1878,#1465,#1466);
#1265=AXIS2_PLACEMENT_3D('',#1882,#1469,#1470);
#1266=AXIS2_PLACEMENT_3D('',#1885,#1472,#1473);
#1267=AXIS2_PLACEMENT_3D('',#1886,#1474,#1475);
#1268=AXIS2_PLACEMENT_3D('',#1890,#1477,#1478);
#1269=AXIS2_PLACEMENT_3D('',#1892,#1480,#1481);
#1270=AXIS2_PLACEMENT_3D('',#1896,#1484,#1485);
#1271=AXIS2_PLACEMENT_3D('',#1899,#1487,#1488);
#1272=AXIS2_PLACEMENT_3D('',#1900,#1489,#1490);
#1273=AXIS2_PLACEMENT_3D('',#1904,#1493,#1494);
#1274=AXIS2_PLACEMENT_3D('',#1907,#1496,#1497);
#1275=AXIS2_PLACEMENT_3D('',#1908,#1498,#1499);
#1276=AXIS2_PLACEMENT_3D('',#1914,#1503,#1504);
#1277=AXIS2_PLACEMENT_3D('',#1917,#1506,#1507);
#1278=AXIS2_PLACEMENT_3D('',#1918,#1508,#1509);
#1279=AXIS2_PLACEMENT_3D('',#1922,#1512,#1513);
#1280=AXIS2_PLACEMENT_3D('',#1925,#1515,#1516);
#1281=AXIS2_PLACEMENT_3D('',#1926,#1517,#1518);
#1282=AXIS2_PLACEMENT_3D('',#1930,#1520,#1521);
#1283=AXIS2_PLACEMENT_3D('',#1932,#1523,#1524);
#1284=AXIS2_PLACEMENT_3D('',#1936,#1527,#1528);
#1285=AXIS2_PLACEMENT_3D('',#1939,#1530,#1531);
#1286=AXIS2_PLACEMENT_3D('',#1940,#1532,#1533);
#1287=AXIS2_PLACEMENT_3D('',#1944,#1536,#1537);
#1288=AXIS2_PLACEMENT_3D('',#1947,#1539,#1540);
#1289=AXIS2_PLACEMENT_3D('',#1948,#1541,#1542);
#1290=AXIS2_PLACEMENT_3D('',#1957,#1547,#1548);
#1291=AXIS2_PLACEMENT_3D('',#1963,#1552,#1553);
#1292=AXIS2_PLACEMENT_3D('',#1975,#1560,#1561);
#1293=AXIS2_PLACEMENT_3D('',#1979,#1564,#1565);
#1294=AXIS2_PLACEMENT_3D('',#1981,#1567,#1568);
#1295=AXIS2_PLACEMENT_3D('',#1987,#1572,#1573);
#1296=AXIS2_PLACEMENT_3D('',#1991,#1576,#1577);
#1297=AXIS2_PLACEMENT_3D('',#1995,#1580,#1581);
#1298=AXIS2_PLACEMENT_3D('',#1997,#1583,#1584);
#1299=AXIS2_PLACEMENT_3D('',#1998,#1585,#1586);
#1300=AXIS2_PLACEMENT_3D('',#2002,#1588,#1589);
#1301=AXIS2_PLACEMENT_3D('',#2007,#1592,#1593);
#1302=AXIS2_PLACEMENT_3D('',#2011,#1595,#1596);
#1303=AXIS2_PLACEMENT_3D('',#2018,#1600,#1601);
#1304=AXIS2_PLACEMENT_3D('',#2025,#1605,#1606);
#1305=AXIS2_PLACEMENT_3D('',#2030,#1609,#1610);
#1306=AXIS2_PLACEMENT_3D('',#2031,#1611,#1612);
#1307=AXIS2_PLACEMENT_3D('',#2038,#1617,#1618);
#1308=AXIS2_PLACEMENT_3D('',#2041,#1621,#1622);
#1309=AXIS2_PLACEMENT_3D('',#2042,#1623,#1624);
#1310=AXIS2_PLACEMENT_3D('',#2044,#1626,#1627);
#1311=AXIS2_PLACEMENT_3D('',#2048,#1630,#1631);
#1312=AXIS2_PLACEMENT_3D('',#2051,#1634,#1635);
#1313=AXIS2_PLACEMENT_3D('',#2052,#1636,#1637);
#1314=AXIS2_PLACEMENT_3D('',#2054,#1639,#1640);
#1315=AXIS2_PLACEMENT_3D('',#2055,#1641,#1642);
#1316=AXIS2_PLACEMENT_3D('',#2060,#1646,#1647);
#1317=AXIS2_PLACEMENT_3D('',#2062,#1649,#1650);
#1318=AXIS2_PLACEMENT_3D('',#2063,#1651,#1652);
#1319=AXIS2_PLACEMENT_3D('',#2066,#1655,#1656);
#1320=AXIS2_PLACEMENT_3D('',#2067,#1657,#1658);
#1321=DIRECTION('axis',(0.,0.,1.));
#1322=DIRECTION('refdir',(1.,0.,0.));
#1323=DIRECTION('center_axis',(-1.,0.,0.));
#1324=DIRECTION('ref_axis',(0.,1.,0.));
#1325=DIRECTION('center_axis',(-1.,0.,0.));
#1326=DIRECTION('ref_axis',(0.,1.,0.));
#1327=DIRECTION('center_axis',(-1.,0.,0.));
#1328=DIRECTION('ref_axis',(0.,1.,0.));
#1329=DIRECTION('center_axis',(-1.,0.,0.));
#1330=DIRECTION('ref_axis',(0.,1.,0.));
#1331=DIRECTION('center_axis',(1.,0.,0.));
#1332=DIRECTION('ref_axis',(0.,1.,0.));
#1333=DIRECTION('',(1.,0.,0.));
#1334=DIRECTION('center_axis',(-1.,0.,0.));
#1335=DIRECTION('ref_axis',(0.,1.,0.));
#1336=DIRECTION('',(1.,0.,0.));
#1337=DIRECTION('center_axis',(-1.,0.,0.));
#1338=DIRECTION('ref_axis',(0.,1.,0.));
#1339=DIRECTION('center_axis',(1.,0.,0.));
#1340=DIRECTION('ref_axis',(0.,-1.,0.));
#1341=DIRECTION('center_axis',(1.,0.,0.));
#1342=DIRECTION('ref_axis',(0.,-1.,0.));
#1343=DIRECTION('center_axis',(1.,0.,0.));
#1344=DIRECTION('ref_axis',(0.,-1.,0.));
#1345=DIRECTION('center_axis',(1.,0.,0.));
#1346=DIRECTION('ref_axis',(0.,-1.,0.));
#1347=DIRECTION('center_axis',(1.,0.,0.));
#1348=DIRECTION('ref_axis',(0.,-1.,0.));
#1349=DIRECTION('',(1.,0.,0.));
#1350=DIRECTION('center_axis',(1.,0.,0.));
#1351=DIRECTION('ref_axis',(0.,-1.,0.));
#1352=DIRECTION('',(1.,0.,0.));
#1353=DIRECTION('center_axis',(-1.,0.,0.));
#1354=DIRECTION('ref_axis',(0.,-1.,0.));
#1355=DIRECTION('center_axis',(-1.,0.,0.));
#1356=DIRECTION('ref_axis',(0.,-1.,0.));
#1357=DIRECTION('center_axis',(-1.,0.,0.));
#1358=DIRECTION('ref_axis',(0.,-1.,0.));
#1359=DIRECTION('center_axis',(-1.,0.,0.));
#1360=DIRECTION('ref_axis',(0.,-1.,0.));
#1361=DIRECTION('center_axis',(-1.,0.,0.));
#1362=DIRECTION('ref_axis',(0.,-1.,0.));
#1363=DIRECTION('center_axis',(1.,0.,0.));
#1364=DIRECTION('ref_axis',(0.,-1.,0.));
#1365=DIRECTION('',(1.,0.,0.));
#1366=DIRECTION('center_axis',(-1.,0.,0.));
#1367=DIRECTION('ref_axis',(0.,-1.,0.));
#1368=DIRECTION('',(1.,0.,0.));
#1369=DIRECTION('center_axis',(-1.,0.,0.));
#1370=DIRECTION('ref_axis',(0.,-1.,0.));
#1371=DIRECTION('center_axis',(1.,0.,0.));
#1372=DIRECTION('ref_axis',(0.,-1.,0.));
#1373=DIRECTION('center_axis',(1.,0.,0.));
#1374=DIRECTION('ref_axis',(0.,-1.,0.));
#1375=DIRECTION('center_axis',(1.,0.,0.));
#1376=DIRECTION('ref_axis',(0.,-1.,0.));
#1377=DIRECTION('center_axis',(1.,0.,0.));
#1378=DIRECTION('ref_axis',(0.,-1.,0.));
#1379=DIRECTION('center_axis',(1.,0.,0.));
#1380=DIRECTION('ref_axis',(0.,-1.,0.));
#1381=DIRECTION('',(1.,0.,0.));
#1382=DIRECTION('center_axis',(1.,0.,0.));
#1383=DIRECTION('ref_axis',(0.,-1.,0.));
#1384=DIRECTION('',(1.,0.,0.));
#1385=DIRECTION('center_axis',(-1.,0.,0.));
#1386=DIRECTION('ref_axis',(0.,-1.,0.));
#1387=DIRECTION('center_axis',(0.,-1.,0.));
#1388=DIRECTION('ref_axis',(-0.707106781186548,0.,-0.707106781186548));
#1389=DIRECTION('',(0.,1.,0.));
#1390=DIRECTION('center_axis',(0.,1.,-4.27008855625059E-16));
#1391=DIRECTION('ref_axis',(-0.707106781186548,0.,-0.707106781186548));
#1392=DIRECTION('',(0.,-1.,0.));
#1393=DIRECTION('center_axis',(0.,-1.,0.));
#1394=DIRECTION('ref_axis',(-0.707106781186548,0.,-0.707106781186548));
#1395=DIRECTION('center_axis',(1.,0.,0.));
#1396=DIRECTION('ref_axis',(0.,0.,-1.));
#1397=DIRECTION('',(0.,-4.27008855625059E-16,-1.));
#1398=DIRECTION('center_axis',(-1.,0.,0.));
#1399=DIRECTION('ref_axis',(0.,1.,8.88178419700124E-16));
#1400=DIRECTION('',(0.,1.,0.));
#1401=DIRECTION('center_axis',(-1.,0.,0.));
#1402=DIRECTION('ref_axis',(0.,8.88178419700126E-16,1.));
#1403=DIRECTION('',(0.,0.,1.));
#1404=DIRECTION('center_axis',(0.,0.,1.));
#1405=DIRECTION('ref_axis',(-0.707106781186548,-0.707106781186548,0.));
#1406=DIRECTION('',(0.,0.,-1.));
#1407=DIRECTION('center_axis',(0.,4.27008855625059E-16,-1.));
#1408=DIRECTION('ref_axis',(-0.707106781186548,-0.707106781186548,0.));
#1409=DIRECTION('',(0.,0.,1.));
#1410=DIRECTION('center_axis',(0.,4.27008855625059E-16,1.));
#1411=DIRECTION('ref_axis',(-0.707106781186548,-0.707106781186548,0.));
#1412=DIRECTION('center_axis',(1.,0.,0.));
#1413=DIRECTION('ref_axis',(0.,0.,-1.));
#1414=DIRECTION('',(0.,-1.,-4.27008855625059E-16));
#1415=DIRECTION('center_axis',(-1.,0.,0.));
#1416=DIRECTION('ref_axis',(0.,-1.77635683940025E-15,-1.));
#1417=DIRECTION('',(0.,0.,-1.));
#1418=DIRECTION('center_axis',(-1.,0.,0.));
#1419=DIRECTION('ref_axis',(0.,1.,-8.88178419700127E-16));
#1420=DIRECTION('',(0.,1.,-4.27008855625059E-16));
#1421=DIRECTION('center_axis',(0.,1.,0.));
#1422=DIRECTION('ref_axis',(-0.707106781186548,0.,0.707106781186548));
#1423=DIRECTION('',(0.,-1.,0.));
#1424=DIRECTION('center_axis',(0.,-1.,0.));
#1425=DIRECTION('ref_axis',(-0.707106781186548,0.,0.707106781186548));
#1426=DIRECTION('',(0.,1.,0.));
#1427=DIRECTION('center_axis',(0.,1.,0.));
#1428=DIRECTION('ref_axis',(-0.707106781186548,0.,0.707106781186548));
#1429=DIRECTION('center_axis',(1.,0.,0.));
#1430=DIRECTION('ref_axis',(0.,0.,-1.));
#1431=DIRECTION('',(0.,0.,1.));
#1432=DIRECTION('center_axis',(-1.,0.,0.));
#1433=DIRECTION('ref_axis',(0.,-1.,8.88178419700126E-16));
#1434=DIRECTION('',(0.,-1.,0.));
#1435=DIRECTION('center_axis',(-1.,0.,0.));
#1436=DIRECTION('ref_axis',(0.,-8.88178419700126E-16,-1.));
#1437=DIRECTION('',(0.,0.,-1.));
#1438=DIRECTION('center_axis',(0.,0.,-1.));
#1439=DIRECTION('ref_axis',(-0.707106781186548,0.707106781186548,0.));
#1440=DIRECTION('',(0.,0.,1.));
#1441=DIRECTION('center_axis',(0.,-4.27008855625059E-16,1.));
#1442=DIRECTION('ref_axis',(-0.707106781186548,0.707106781186548,0.));
#1443=DIRECTION('',(0.,0.,-1.));
#1444=DIRECTION('center_axis',(0.,-4.27008855625059E-16,-1.));
#1445=DIRECTION('ref_axis',(-0.707106781186548,0.707106781186548,0.));
#1446=DIRECTION('center_axis',(1.,0.,0.));
#1447=DIRECTION('ref_axis',(0.,0.,-1.));
#1448=DIRECTION('',(0.,1.,4.27008855625059E-16));
#1449=DIRECTION('center_axis',(-1.,0.,0.));
#1450=DIRECTION('ref_axis',(0.,1.77635683940025E-15,1.));
#1451=DIRECTION('',(0.,0.,1.));
#1452=DIRECTION('center_axis',(-1.,0.,0.));
#1453=DIRECTION('ref_axis',(0.,-1.,8.88178419700127E-16));
#1454=DIRECTION('',(0.,-1.,4.27008855625059E-16));
#1455=DIRECTION('center_axis',(0.,-4.27008855625059E-16,-1.));
#1456=DIRECTION('ref_axis',(0.,1.,-4.27008855625059E-16));
#1457=DIRECTION('',(1.,0.,0.));
#1458=DIRECTION('',(0.,1.,-4.27008855625059E-16));
#1459=DIRECTION('',(-1.,0.,0.));
#1460=DIRECTION('center_axis',(1.,0.,0.));
#1461=DIRECTION('ref_axis',(0.,-1.,8.88178419700127E-16));
#1462=DIRECTION('',(1.,0.,0.));
#1463=DIRECTION('center_axis',(1.,0.,0.));
#1464=DIRECTION('ref_axis',(0.,-1.,8.88178419700127E-16));
#1465=DIRECTION('center_axis',(0.,-1.,0.));
#1466=DIRECTION('ref_axis',(0.,0.,-1.));
#1467=DIRECTION('',(1.,0.,0.));
#1468=DIRECTION('',(0.,0.,-1.));
#1469=DIRECTION('center_axis',(1.,0.,0.));
#1470=DIRECTION('ref_axis',(0.,1.77635683940025E-15,1.));
#1471=DIRECTION('',(1.,0.,0.));
#1472=DIRECTION('center_axis',(1.,0.,0.));
#1473=DIRECTION('ref_axis',(0.,1.77635683940025E-15,1.));
#1474=DIRECTION('center_axis',(1.,0.,0.));
#1475=DIRECTION('ref_axis',(0.,4.93432455388962E-15,1.));
#1476=DIRECTION('',(-1.,0.,0.));
#1477=DIRECTION('center_axis',(-1.,0.,0.));
#1478=DIRECTION('ref_axis',(0.,4.93432455388962E-15,1.));
#1479=DIRECTION('',(1.,0.,0.));
#1480=DIRECTION('center_axis',(0.,1.,0.));
#1481=DIRECTION('ref_axis',(0.,0.,1.));
#1482=DIRECTION('',(1.,0.,0.));
#1483=DIRECTION('',(0.,0.,1.));
#1484=DIRECTION('center_axis',(1.,0.,0.));
#1485=DIRECTION('ref_axis',(0.,-8.88178419700126E-16,-1.));
#1486=DIRECTION('',(1.,0.,0.));
#1487=DIRECTION('center_axis',(1.,0.,0.));
#1488=DIRECTION('ref_axis',(0.,-8.88178419700126E-16,-1.));
#1489=DIRECTION('center_axis',(0.,0.,-1.));
#1490=DIRECTION('ref_axis',(0.,1.,0.));
#1491=DIRECTION('',(1.,0.,0.));
#1492=DIRECTION('',(0.,1.,0.));
#1493=DIRECTION('center_axis',(1.,0.,0.));
#1494=DIRECTION('ref_axis',(0.,-1.,8.88178419700126E-16));
#1495=DIRECTION('',(1.,0.,0.));
#1496=DIRECTION('center_axis',(1.,0.,0.));
#1497=DIRECTION('ref_axis',(0.,-1.,8.88178419700126E-16));
#1498=DIRECTION('center_axis',(0.,-1.,0.));
#1499=DIRECTION('ref_axis',(0.,0.,-1.));
#1500=DIRECTION('',(1.,0.,0.));
#1501=DIRECTION('',(0.,0.,-1.));
#1502=DIRECTION('',(-1.,0.,0.));
#1503=DIRECTION('center_axis',(1.,0.,0.));
#1504=DIRECTION('ref_axis',(0.,8.88178419700126E-16,1.));
#1505=DIRECTION('',(1.,0.,0.));
#1506=DIRECTION('center_axis',(1.,0.,0.));
#1507=DIRECTION('ref_axis',(0.,8.88178419700126E-16,1.));
#1508=DIRECTION('center_axis',(0.,0.,1.));
#1509=DIRECTION('ref_axis',(0.,-1.,0.));
#1510=DIRECTION('',(1.,0.,0.));
#1511=DIRECTION('',(0.,-1.,0.));
#1512=DIRECTION('center_axis',(1.,0.,0.));
#1513=DIRECTION('ref_axis',(0.,1.,8.88178419700124E-16));
#1514=DIRECTION('',(1.,0.,0.));
#1515=DIRECTION('center_axis',(1.,0.,0.));
#1516=DIRECTION('ref_axis',(0.,1.,8.88178419700124E-16));
#1517=DIRECTION('center_axis',(1.,0.,0.));
#1518=DIRECTION('ref_axis',(0.,-1.,4.93432455388959E-15));
#1519=DIRECTION('',(-1.,0.,0.));
#1520=DIRECTION('center_axis',(-1.,0.,0.));
#1521=DIRECTION('ref_axis',(0.,-1.,4.93432455388959E-15));
#1522=DIRECTION('',(1.,0.,0.));
#1523=DIRECTION('center_axis',(0.,4.27008855625059E-16,1.));
#1524=DIRECTION('ref_axis',(0.,-1.,4.27008855625059E-16));
#1525=DIRECTION('',(1.,0.,0.));
#1526=DIRECTION('',(0.,-1.,4.27008855625059E-16));
#1527=DIRECTION('center_axis',(1.,0.,0.));
#1528=DIRECTION('ref_axis',(0.,1.,-8.88178419700127E-16));
#1529=DIRECTION('',(1.,0.,0.));
#1530=DIRECTION('center_axis',(1.,0.,0.));
#1531=DIRECTION('ref_axis',(0.,1.,-8.88178419700127E-16));
#1532=DIRECTION('center_axis',(0.,1.,0.));
#1533=DIRECTION('ref_axis',(0.,0.,1.));
#1534=DIRECTION('',(1.,0.,0.));
#1535=DIRECTION('',(0.,0.,1.));
#1536=DIRECTION('center_axis',(1.,0.,0.));
#1537=DIRECTION('ref_axis',(0.,-1.77635683940025E-15,-1.));
#1538=DIRECTION('',(1.,0.,0.));
#1539=DIRECTION('center_axis',(1.,0.,0.));
#1540=DIRECTION('ref_axis',(0.,-1.77635683940025E-15,-1.));
#1541=DIRECTION('center_axis',(0.,1.,0.));
#1542=DIRECTION('ref_axis',(0.,0.,1.));
#1543=DIRECTION('',(1.,0.,0.));
#1544=DIRECTION('',(0.,0.,1.));
#1545=DIRECTION('',(-1.,0.,0.));
#1546=DIRECTION('',(0.,0.,-1.));
#1547=DIRECTION('center_axis',(0.,0.,1.));
#1548=DIRECTION('ref_axis',(1.,0.,0.));
#1549=DIRECTION('',(0.,-1.,0.));
#1550=DIRECTION('',(1.,0.,0.));
#1551=DIRECTION('',(0.,1.,0.));
#1552=DIRECTION('center_axis',(1.,0.,0.));
#1553=DIRECTION('ref_axis',(0.,0.,-1.));
#1554=DIRECTION('',(0.,1.,0.));
#1555=DIRECTION('',(0.,0.,-1.));
#1556=DIRECTION('',(0.,0.,1.));
#1557=DIRECTION('',(0.,-1.,0.));
#1558=DIRECTION('',(0.,0.,-1.));
#1559=DIRECTION('',(0.,1.,0.));
#1560=DIRECTION('center_axis',(0.,0.,-1.));
#1561=DIRECTION('ref_axis',(-1.,0.,0.));
#1562=DIRECTION('',(0.,-1.,0.));
#1563=DIRECTION('',(1.,0.,0.));
#1564=DIRECTION('center_axis',(0.,-1.,0.));
#1565=DIRECTION('ref_axis',(0.,0.,-1.));
#1566=DIRECTION('',(0.,0.,1.));
#1567=DIRECTION('center_axis',(0.,1.,0.));
#1568=DIRECTION('ref_axis',(0.,0.,1.));
#1569=DIRECTION('',(1.,0.,0.));
#1570=DIRECTION('',(0.,0.,1.));
#1571=DIRECTION('',(1.,0.,0.));
#1572=DIRECTION('center_axis',(0.,0.,-1.));
#1573=DIRECTION('ref_axis',(0.,1.,0.));
#1574=DIRECTION('',(1.,0.,0.));
#1575=DIRECTION('',(0.,1.,0.));
#1576=DIRECTION('center_axis',(0.,-1.,0.));
#1577=DIRECTION('ref_axis',(0.,0.,-1.));
#1578=DIRECTION('',(1.,0.,0.));
#1579=DIRECTION('',(0.,0.,-1.));
#1580=DIRECTION('center_axis',(0.,0.,1.));
#1581=DIRECTION('ref_axis',(0.,-1.,0.));
#1582=DIRECTION('',(0.,-1.,0.));
#1583=DIRECTION('center_axis',(1.,0.,0.));
#1584=DIRECTION('ref_axis',(0.,0.,-1.));
#1585=DIRECTION('center_axis',(1.,0.,0.));
#1586=DIRECTION('ref_axis',(0.,0.,-1.));
#1587=DIRECTION('',(0.,-1.,-4.27008855625059E-16));
#1588=DIRECTION('center_axis',(-1.,0.,0.));
#1589=DIRECTION('ref_axis',(0.,0.,-1.));
#1590=DIRECTION('',(0.,0.,-1.));
#1591=DIRECTION('',(0.,-1.,0.));
#1592=DIRECTION('center_axis',(-1.,0.,0.));
#1593=DIRECTION('ref_axis',(0.,-4.93432455388962E-15,-1.));
#1594=DIRECTION('',(0.,4.27008855625059E-16,1.));
#1595=DIRECTION('center_axis',(-1.,0.,0.));
#1596=DIRECTION('ref_axis',(0.,-1.,4.93432455388961E-15));
#1597=DIRECTION('',(0.,-1.,0.));
#1598=DIRECTION('',(0.,0.,1.));
#1599=DIRECTION('',(0.,1.,4.27008855625059E-16));
#1600=DIRECTION('center_axis',(-1.,0.,0.));
#1601=DIRECTION('ref_axis',(0.,0.,1.));
#1602=DIRECTION('',(0.,0.,1.));
#1603=DIRECTION('',(0.,1.,0.));
#1604=DIRECTION('',(0.,0.,-1.));
#1605=DIRECTION('center_axis',(-1.,0.,0.));
#1606=DIRECTION('ref_axis',(0.,1.,-4.93432455388961E-15));
#1607=DIRECTION('',(0.,1.,0.));
#1608=DIRECTION('',(0.,0.,-1.));
#1609=DIRECTION('center_axis',(-1.,0.,0.));
#1610=DIRECTION('ref_axis',(0.,1.,-4.93432455388959E-15));
#1611=DIRECTION('center_axis',(0.,1.,0.));
#1612=DIRECTION('ref_axis',(0.,0.,1.));
#1613=DIRECTION('',(1.,0.,0.));
#1614=DIRECTION('',(0.,0.,1.));
#1615=DIRECTION('',(1.,0.,0.));
#1616=DIRECTION('',(-1.,0.,0.));
#1617=DIRECTION('center_axis',(1.,0.,0.));
#1618=DIRECTION('ref_axis',(0.,-1.,4.93432455388961E-15));
#1619=DIRECTION('',(-1.,0.,0.));
#1620=DIRECTION('',(1.,0.,0.));
#1621=DIRECTION('center_axis',(0.,1.,-4.27008855625059E-16));
#1622=DIRECTION('ref_axis',(0.,4.27008855625059E-16,1.));
#1623=DIRECTION('center_axis',(1.,0.,0.));
#1624=DIRECTION('ref_axis',(0.,-4.93432455388962E-15,-1.));
#1625=DIRECTION('',(1.,0.,0.));
#1626=DIRECTION('center_axis',(0.,0.,1.));
#1627=DIRECTION('ref_axis',(0.,-1.,0.));
#1628=DIRECTION('',(1.,0.,0.));
#1629=DIRECTION('',(0.,-1.,0.));
#1630=DIRECTION('center_axis',(1.,0.,0.));
#1631=DIRECTION('ref_axis',(0.,0.,-1.));
#1632=DIRECTION('',(-1.,0.,0.));
#1633=DIRECTION('',(1.,0.,0.));
#1634=DIRECTION('center_axis',(0.,-4.27008855625059E-16,1.));
#1635=DIRECTION('ref_axis',(0.,-1.,-4.27008855625059E-16));
#1636=DIRECTION('center_axis',(0.,4.27008855625059E-16,-1.));
#1637=DIRECTION('ref_axis',(0.,1.,4.27008855625059E-16));
#1638=DIRECTION('',(1.,0.,0.));
#1639=DIRECTION('center_axis',(1.,0.,0.));
#1640=DIRECTION('ref_axis',(0.,0.,1.));
#1641=DIRECTION('center_axis',(0.,0.,-1.));
#1642=DIRECTION('ref_axis',(0.,1.,0.));
#1643=DIRECTION('',(0.,1.,0.));
#1644=DIRECTION('',(1.,0.,0.));
#1645=DIRECTION('',(-1.,0.,0.));
#1646=DIRECTION('center_axis',(0.,-1.,0.));
#1647=DIRECTION('ref_axis',(0.,0.,-1.));
#1648=DIRECTION('',(1.,0.,0.));
#1649=DIRECTION('center_axis',(1.,0.,0.));
#1650=DIRECTION('ref_axis',(0.,1.,-4.93432455388961E-15));
#1651=DIRECTION('center_axis',(0.,-1.,0.));
#1652=DIRECTION('ref_axis',(0.,0.,-1.));
#1653=DIRECTION('',(1.,0.,0.));
#1654=DIRECTION('',(0.,0.,-1.));
#1655=DIRECTION('center_axis',(1.,0.,0.));
#1656=DIRECTION('ref_axis',(0.,1.,-4.93432455388959E-15));
#1657=DIRECTION('center_axis',(1.,0.,0.));
#1658=DIRECTION('ref_axis',(0.,0.,-1.));
#1659=CARTESIAN_POINT('',(0.,0.,0.));
#1660=CARTESIAN_POINT('Origin',(0.4,-5.07109338757411,0.0732500176784803));
#1661=CARTESIAN_POINT('',(0.4,-5.28109338757411,0.0732500176784803));
#1662=CARTESIAN_POINT('Origin',(0.4,-5.07109338757411,0.0732500176784803));
#1663=CARTESIAN_POINT('',(0.4,-5.25109338757411,0.0732500176784803));
#1664=CARTESIAN_POINT('Origin',(0.4,-5.07109338757411,0.0732500176784803));
#1665=CARTESIAN_POINT('Origin',(0.35,-5.07109338757411,0.0732500176784803));
#1666=CARTESIAN_POINT('',(0.3,-5.28109338757411,0.0732500176784803));
#1667=CARTESIAN_POINT('Origin',(0.3,-5.07109338757411,0.0732500176784803));
#1668=CARTESIAN_POINT('',(0.35,-5.28109338757411,0.0732500176784803));
#1669=CARTESIAN_POINT('Origin',(3.3,-5.07109338757411,0.0732500176784803));
#1670=CARTESIAN_POINT('',(0.8,-5.25109338757411,0.0732500176784803));
#1671=CARTESIAN_POINT('',(3.3,-5.25109338757411,0.0732500176784803));
#1672=CARTESIAN_POINT('Origin',(0.8,-5.07109338757411,0.0732500176784803));
#1673=CARTESIAN_POINT('Origin',(0.4,5.07109338757411,0.0732500176784803));
#1674=CARTESIAN_POINT('',(0.4,5.28109338757411,0.0732500176784803));
#1675=CARTESIAN_POINT('Origin',(0.4,5.07109338757411,0.0732500176784803));
#1676=CARTESIAN_POINT('',(0.4,5.25109338757411,0.0732500176784803));
#1677=CARTESIAN_POINT('Origin',(0.4,5.07109338757411,0.0732500176784803));
#1678=CARTESIAN_POINT('Origin',(0.35,5.07109338757411,0.0732500176784803));
#1679=CARTESIAN_POINT('',(0.3,5.28109338757411,0.0732500176784803));
#1680=CARTESIAN_POINT('Origin',(0.3,5.07109338757411,0.0732500176784803));
#1681=CARTESIAN_POINT('',(0.35,5.28109338757411,0.0732500176784803));
#1682=CARTESIAN_POINT('Origin',(3.3,5.07109338757411,0.0732500176784803));
#1683=CARTESIAN_POINT('',(0.8,5.25109338757411,0.0732500176784802));
#1684=CARTESIAN_POINT('',(3.3,5.25109338757411,0.0732500176784803));
#1685=CARTESIAN_POINT('Origin',(0.8,5.07109338757411,0.0732500176784803));
#1686=CARTESIAN_POINT('Origin',(0.4,0.0869294255991941,-6.04710446208652));
#1687=CARTESIAN_POINT('',(0.4,0.296929425599194,-6.04710446208652));
#1688=CARTESIAN_POINT('Origin',(0.4,0.0869294255991941,-6.04710446208652));
#1689=CARTESIAN_POINT('',(0.4,0.266929425599194,-6.04710446208652));
#1690=CARTESIAN_POINT('Origin',(0.4,0.0869294255991941,-6.04710446208652));
#1691=CARTESIAN_POINT('Origin',(0.35,0.0869294255991941,-6.04710446208652));
#1692=CARTESIAN_POINT('',(0.3,0.296929425599194,-6.04710446208652));
#1693=CARTESIAN_POINT('Origin',(0.3,0.0869294255991941,-6.04710446208652));
#1694=CARTESIAN_POINT('',(0.35,0.296929425599194,-6.04710446208652));
#1695=CARTESIAN_POINT('Origin',(2.3,0.0869294255991941,-6.04710446208652));
#1696=CARTESIAN_POINT('',(0.8,0.266929425599194,-6.04710446208652));
#1697=CARTESIAN_POINT('',(2.3,0.266929425599194,-6.04710446208652));
#1698=CARTESIAN_POINT('Origin',(0.8,0.0869294255991941,-6.04710446208652));
#1699=CARTESIAN_POINT('Origin',(0.4,0.0869294255991941,6.04710446208652));
#1700=CARTESIAN_POINT('',(0.4,0.296929425599194,6.04710446208652));
#1701=CARTESIAN_POINT('Origin',(0.4,0.0869294255991941,6.04710446208652));
#1702=CARTESIAN_POINT('',(0.4,0.266929425599194,6.04710446208652));
#1703=CARTESIAN_POINT('Origin',(0.4,0.0869294255991941,6.04710446208652));
#1704=CARTESIAN_POINT('Origin',(0.35,0.0869294255991941,6.04710446208652));
#1705=CARTESIAN_POINT('',(0.3,0.296929425599194,6.04710446208652));
#1706=CARTESIAN_POINT('Origin',(0.3,0.0869294255991941,6.04710446208652));
#1707=CARTESIAN_POINT('',(0.35,0.296929425599194,6.04710446208652));
#1708=CARTESIAN_POINT('Origin',(2.3,0.0869294255991941,6.04710446208652));
#1709=CARTESIAN_POINT('',(0.8,0.266929425599194,6.04710446208652));
#1710=CARTESIAN_POINT('',(2.3,0.266929425599194,6.04710446208652));
#1711=CARTESIAN_POINT('Origin',(0.8,0.0869294255991941,6.04710446208652));
#1712=CARTESIAN_POINT('Origin',(1.3,-0.84,5.8));
#1713=CARTESIAN_POINT('',(1.3,-1.68,5.3));
#1714=CARTESIAN_POINT('',(0.91581254575403,-1.5,5.48));
#1715=CARTESIAN_POINT('Ctrl Pts',(0.91581254575403,-1.5,5.48));
#1716=CARTESIAN_POINT('Ctrl Pts',(0.937573984551645,-1.5,5.45387352571129));
#1717=CARTESIAN_POINT('Ctrl Pts',(0.963557767055127,-1.50589591049512,5.42844266448699));
#1718=CARTESIAN_POINT('Ctrl Pts',(1.01914862509438,-1.52536488257478,5.38482446998179));
#1719=CARTESIAN_POINT('Ctrl Pts',(1.04875499038574,-1.53884621314666,5.36659534562618));
#1720=CARTESIAN_POINT('Ctrl Pts',(1.1105144481805,-1.56970328191682,5.33573827685603));
#1721=CARTESIAN_POINT('Ctrl Pts',(1.14845216806088,-1.59069827166959,5.32188829399895));
#1722=CARTESIAN_POINT('Ctrl Pts',(1.22533759633369,-1.63516912948439,5.30403320336004));
#1723=CARTESIAN_POINT('Ctrl Pts',(1.26431214454027,-1.65858728672416,5.3));
#1724=CARTESIAN_POINT('Ctrl Pts',(1.3,-1.68,5.3));
#1725=CARTESIAN_POINT('',(1.3,1.68,5.3));
#1726=CARTESIAN_POINT('',(1.3,-0.84,5.3));
#1727=CARTESIAN_POINT('',(0.91581254575403,1.5,5.48));
#1728=CARTESIAN_POINT('Ctrl Pts',(1.3,1.68,5.3));
#1729=CARTESIAN_POINT('Ctrl Pts',(1.23264743519369,1.63958846111621,5.3));
#1730=CARTESIAN_POINT('Ctrl Pts',(1.16069174909302,1.59615037557889,5.31425015996868));
#1731=CARTESIAN_POINT('Ctrl Pts',(1.06062611030107,1.54433392968003,5.35949970398274));
#1732=CARTESIAN_POINT('Ctrl Pts',(1.02858987592468,1.52929857352815,5.37840464020277));
#1733=CARTESIAN_POINT('Ctrl Pts',(0.96874352004842,1.50722316606323,5.42360227436936));
#1734=CARTESIAN_POINT('Ctrl Pts',(0.940947237938354,1.5,5.4498236456139));
#1735=CARTESIAN_POINT('Ctrl Pts',(0.91581254575403,1.5,5.48));
#1736=CARTESIAN_POINT('',(0.8,1.5,5.8));
#1737=CARTESIAN_POINT('Origin',(1.3,1.5,5.8));
#1738=CARTESIAN_POINT('',(0.8,-1.5,5.8));
#1739=CARTESIAN_POINT('',(0.8,-0.84,5.8));
#1740=CARTESIAN_POINT('Origin',(1.3,-1.5,5.8));
#1741=CARTESIAN_POINT('Origin',(0.8,0.,6.15));
#1742=CARTESIAN_POINT('',(0.8,1.5,6.));
#1743=CARTESIAN_POINT('',(0.8,1.5,5.815));
#1744=CARTESIAN_POINT('',(0.8,0.5,7.));
#1745=CARTESIAN_POINT('Origin',(0.8,0.499999999999999,6.));
#1746=CARTESIAN_POINT('',(0.8,-0.5,7.));
#1747=CARTESIAN_POINT('',(0.8,0.25,7.));
#1748=CARTESIAN_POINT('',(0.8,-1.5,6.));
#1749=CARTESIAN_POINT('Origin',(0.8,-0.500000000000001,6.));
#1750=CARTESIAN_POINT('',(0.8,-1.5,6.075));
#1751=CARTESIAN_POINT('Origin',(1.3,4.8,1.09));
#1752=CARTESIAN_POINT('',(1.3,4.3,2.18));
#1753=CARTESIAN_POINT('',(0.915812545754029,4.48,2.));
#1754=CARTESIAN_POINT('Ctrl Pts',(0.915812545754029,4.48,2.));
#1755=CARTESIAN_POINT('Ctrl Pts',(0.937573984551645,4.45387352571129,2.));
#1756=CARTESIAN_POINT('Ctrl Pts',(0.963557767055126,4.42844266448699,2.00589591049512));
#1757=CARTESIAN_POINT('Ctrl Pts',(1.01914862509438,4.38482446998179,2.02536488257478));
#1758=CARTESIAN_POINT('Ctrl Pts',(1.04875499038574,4.36659534562618,2.03884621314666));
#1759=CARTESIAN_POINT('Ctrl Pts',(1.1105144481805,4.33573827685603,2.06970328191682));
#1760=CARTESIAN_POINT('Ctrl Pts',(1.14845216806088,4.32188829399895,2.09069827166959));
#1761=CARTESIAN_POINT('Ctrl Pts',(1.22533759633369,4.30403320336004,2.13516912948439));
#1762=CARTESIAN_POINT('Ctrl Pts',(1.26431214454027,4.3,2.15858728672416));
#1763=CARTESIAN_POINT('Ctrl Pts',(1.3,4.3,2.18));
#1764=CARTESIAN_POINT('',(1.3,4.3,-2.18));
#1765=CARTESIAN_POINT('',(1.3,4.3,1.09));
#1766=CARTESIAN_POINT('',(0.915812545754029,4.48,-2.));
#1767=CARTESIAN_POINT('Ctrl Pts',(1.3,4.3,-2.18));
#1768=CARTESIAN_POINT('Ctrl Pts',(1.23264743519369,4.3,-2.13958846111621));
#1769=CARTESIAN_POINT('Ctrl Pts',(1.16069174909302,4.31425015996868,-2.09615037557889));
#1770=CARTESIAN_POINT('Ctrl Pts',(1.06062611030106,4.35949970398274,-2.04433392968003));
#1771=CARTESIAN_POINT('Ctrl Pts',(1.02858987592468,4.37840464020277,-2.02929857352815));
#1772=CARTESIAN_POINT('Ctrl Pts',(0.968743520048419,4.42360227436936,-2.00722316606323));
#1773=CARTESIAN_POINT('Ctrl Pts',(0.940947237938353,4.4498236456139,-2.));
#1774=CARTESIAN_POINT('Ctrl Pts',(0.915812545754029,4.48,-2.));
#1775=CARTESIAN_POINT('',(0.8,4.8,-2.));
#1776=CARTESIAN_POINT('Origin',(1.3,4.8,-2.));
#1777=CARTESIAN_POINT('',(0.8,4.8,2.));
#1778=CARTESIAN_POINT('',(0.8,4.8,1.09));
#1779=CARTESIAN_POINT('Origin',(1.3,4.8,2.));
#1780=CARTESIAN_POINT('Origin',(0.8,5.15,0.));
#1781=CARTESIAN_POINT('',(0.8,5.,-2.));
#1782=CARTESIAN_POINT('',(0.8,4.815,-2.));
#1783=CARTESIAN_POINT('',(0.8,6.,-1.));
#1784=CARTESIAN_POINT('Origin',(0.8,5.,-1.));
#1785=CARTESIAN_POINT('',(0.8,6.,1.));
#1786=CARTESIAN_POINT('',(0.8,6.,-0.5));
#1787=CARTESIAN_POINT('',(0.8,5.,2.));
#1788=CARTESIAN_POINT('Origin',(0.8,5.,1.));
#1789=CARTESIAN_POINT('',(0.8,5.075,2.));
#1790=CARTESIAN_POINT('Origin',(1.3,0.84,-5.8));
#1791=CARTESIAN_POINT('',(1.3,1.68,-5.3));
#1792=CARTESIAN_POINT('',(0.91581254575403,1.5,-5.48));
#1793=CARTESIAN_POINT('Ctrl Pts',(0.91581254575403,1.5,-5.48));
#1794=CARTESIAN_POINT('Ctrl Pts',(0.937573984551645,1.5,-5.45387352571129));
#1795=CARTESIAN_POINT('Ctrl Pts',(0.963557767055127,1.50589591049512,-5.42844266448699));
#1796=CARTESIAN_POINT('Ctrl Pts',(1.01914862509438,1.52536488257478,-5.38482446998179));
#1797=CARTESIAN_POINT('Ctrl Pts',(1.04875499038574,1.53884621314666,-5.36659534562618));
#1798=CARTESIAN_POINT('Ctrl Pts',(1.1105144481805,1.56970328191682,-5.33573827685603));
#1799=CARTESIAN_POINT('Ctrl Pts',(1.14845216806088,1.59069827166959,-5.32188829399895));
#1800=CARTESIAN_POINT('Ctrl Pts',(1.22533759633369,1.63516912948439,-5.30403320336004));
#1801=CARTESIAN_POINT('Ctrl Pts',(1.26431214454027,1.65858728672416,-5.3));
#1802=CARTESIAN_POINT('Ctrl Pts',(1.3,1.68,-5.3));
#1803=CARTESIAN_POINT('',(1.3,-1.68,-5.3));
#1804=CARTESIAN_POINT('',(1.3,0.84,-5.3));
#1805=CARTESIAN_POINT('',(0.91581254575403,-1.5,-5.48));
#1806=CARTESIAN_POINT('Ctrl Pts',(1.3,-1.68,-5.3));
#1807=CARTESIAN_POINT('Ctrl Pts',(1.23264743519369,-1.63958846111621,-5.3));
#1808=CARTESIAN_POINT('Ctrl Pts',(1.16069174909302,-1.59615037557889,-5.31425015996868));
#1809=CARTESIAN_POINT('Ctrl Pts',(1.06062611030107,-1.54433392968003,-5.35949970398274));
#1810=CARTESIAN_POINT('Ctrl Pts',(1.02858987592468,-1.52929857352816,-5.37840464020277));
#1811=CARTESIAN_POINT('Ctrl Pts',(0.96874352004842,-1.50722316606323,-5.42360227436936));
#1812=CARTESIAN_POINT('Ctrl Pts',(0.940947237938354,-1.5,-5.4498236456139));
#1813=CARTESIAN_POINT('Ctrl Pts',(0.91581254575403,-1.5,-5.48));
#1814=CARTESIAN_POINT('',(0.8,-1.5,-5.8));
#1815=CARTESIAN_POINT('Origin',(1.3,-1.5,-5.8));
#1816=CARTESIAN_POINT('',(0.8,1.5,-5.8));
#1817=CARTESIAN_POINT('',(0.8,0.84,-5.8));
#1818=CARTESIAN_POINT('Origin',(1.3,1.5,-5.8));
#1819=CARTESIAN_POINT('Origin',(0.8,0.,-6.15));
#1820=CARTESIAN_POINT('',(0.8,-1.5,-6.));
#1821=CARTESIAN_POINT('',(0.8,-1.5,-5.815));
#1822=CARTESIAN_POINT('',(0.8,-0.5,-7.));
#1823=CARTESIAN_POINT('Origin',(0.8,-0.500000000000001,-6.));
#1824=CARTESIAN_POINT('',(0.8,0.5,-7.));
#1825=CARTESIAN_POINT('',(0.8,-0.25,-7.));
#1826=CARTESIAN_POINT('',(0.8,1.5,-6.));
#1827=CARTESIAN_POINT('Origin',(0.8,0.500000000000001,-6.));
#1828=CARTESIAN_POINT('',(0.8,1.5,-6.075));
#1829=CARTESIAN_POINT('Origin',(1.3,-4.8,-1.09));
#1830=CARTESIAN_POINT('',(1.3,-4.3,-2.18));
#1831=CARTESIAN_POINT('',(0.915812545754029,-4.48,-2.));
#1832=CARTESIAN_POINT('Ctrl Pts',(0.915812545754029,-4.48,-2.));
#1833=CARTESIAN_POINT('Ctrl Pts',(0.937573984551645,-4.45387352571129,-2.));
#1834=CARTESIAN_POINT('Ctrl Pts',(0.963557767055126,-4.42844266448699,-2.00589591049512));
#1835=CARTESIAN_POINT('Ctrl Pts',(1.01914862509438,-4.38482446998179,-2.02536488257478));
#1836=CARTESIAN_POINT('Ctrl Pts',(1.04875499038574,-4.36659534562618,-2.03884621314666));
#1837=CARTESIAN_POINT('Ctrl Pts',(1.1105144481805,-4.33573827685603,-2.06970328191682));
#1838=CARTESIAN_POINT('Ctrl Pts',(1.14845216806088,-4.32188829399895,-2.09069827166959));
#1839=CARTESIAN_POINT('Ctrl Pts',(1.22533759633369,-4.30403320336004,-2.13516912948439));
#1840=CARTESIAN_POINT('Ctrl Pts',(1.26431214454027,-4.3,-2.15858728672416));
#1841=CARTESIAN_POINT('Ctrl Pts',(1.3,-4.3,-2.18));
#1842=CARTESIAN_POINT('',(1.3,-4.3,2.18));
#1843=CARTESIAN_POINT('',(1.3,-4.3,-1.09));
#1844=CARTESIAN_POINT('',(0.915812545754029,-4.48,2.));
#1845=CARTESIAN_POINT('Ctrl Pts',(1.3,-4.3,2.18));
#1846=CARTESIAN_POINT('Ctrl Pts',(1.23264743519369,-4.3,2.13958846111621));
#1847=CARTESIAN_POINT('Ctrl Pts',(1.16069174909302,-4.31425015996868,2.09615037557889));
#1848=CARTESIAN_POINT('Ctrl Pts',(1.06062611030106,-4.35949970398274,2.04433392968003));
#1849=CARTESIAN_POINT('Ctrl Pts',(1.02858987592468,-4.37840464020277,2.02929857352815));
#1850=CARTESIAN_POINT('Ctrl Pts',(0.968743520048419,-4.42360227436936,2.00722316606323));
#1851=CARTESIAN_POINT('Ctrl Pts',(0.940947237938353,-4.4498236456139,2.));
#1852=CARTESIAN_POINT('Ctrl Pts',(0.915812545754029,-4.48,2.));
#1853=CARTESIAN_POINT('',(0.8,-4.8,2.));
#1854=CARTESIAN_POINT('Origin',(1.3,-4.8,2.));
#1855=CARTESIAN_POINT('',(0.8,-4.8,-2.));
#1856=CARTESIAN_POINT('',(0.8,-4.8,-1.09));
#1857=CARTESIAN_POINT('Origin',(1.3,-4.8,-2.));
#1858=CARTESIAN_POINT('Origin',(0.8,-5.15,4.44089209850063E-16));
#1859=CARTESIAN_POINT('',(0.8,-5.,2.));
#1860=CARTESIAN_POINT('',(0.8,-4.815,2.));
#1861=CARTESIAN_POINT('',(0.8,-6.,1.));
#1862=CARTESIAN_POINT('Origin',(0.8,-5.,1.));
#1863=CARTESIAN_POINT('',(0.8,-6.,-1.));
#1864=CARTESIAN_POINT('',(0.8,-6.,0.500000000000001));
#1865=CARTESIAN_POINT('',(0.8,-5.,-2.));
#1866=CARTESIAN_POINT('Origin',(0.8,-5.,-1.));
#1867=CARTESIAN_POINT('',(0.8,-5.075,-2.));
#1868=CARTESIAN_POINT('Origin',(0.,-5.,-2.));
#1869=CARTESIAN_POINT('',(0.3,-5.,-2.));
#1870=CARTESIAN_POINT('',(0.,-5.,-2.));
#1871=CARTESIAN_POINT('',(0.3,-4.48,-2.));
#1872=CARTESIAN_POINT('',(0.3,-2.5,-2.));
#1873=CARTESIAN_POINT('',(0.,-4.48,-2.));
#1874=CARTESIAN_POINT('Origin',(0.,-5.,-1.));
#1875=CARTESIAN_POINT('',(0.3,-6.,-1.));
#1876=CARTESIAN_POINT('',(0.,-6.,-1.));
#1877=CARTESIAN_POINT('Origin',(0.3,-5.,-1.));
#1878=CARTESIAN_POINT('Origin',(0.,-6.,1.));
#1879=CARTESIAN_POINT('',(0.3,-6.,1.));
#1880=CARTESIAN_POINT('',(0.,-6.,1.));
#1881=CARTESIAN_POINT('',(0.3,-6.,0.5));
#1882=CARTESIAN_POINT('Origin',(0.,-5.,1.));
#1883=CARTESIAN_POINT('',(0.3,-5.,2.));
#1884=CARTESIAN_POINT('',(0.,-5.,2.));
#1885=CARTESIAN_POINT('Origin',(0.3,-5.,1.));
#1886=CARTESIAN_POINT('Origin',(0.,1.68,-5.48));
#1887=CARTESIAN_POINT('',(0.3,1.5,-5.48));
#1888=CARTESIAN_POINT('',(0.,1.5,-5.48));
#1889=CARTESIAN_POINT('',(0.3,1.68,-5.3));
#1890=CARTESIAN_POINT('Origin',(0.3,1.68,-5.48));
#1891=CARTESIAN_POINT('',(0.,1.68,-5.3));
#1892=CARTESIAN_POINT('Origin',(0.,1.5,-6.));
#1893=CARTESIAN_POINT('',(0.3,1.5,-6.));
#1894=CARTESIAN_POINT('',(0.,1.5,-6.));
#1895=CARTESIAN_POINT('',(0.3,1.5,-3.));
#1896=CARTESIAN_POINT('Origin',(0.,0.500000000000001,-6.));
#1897=CARTESIAN_POINT('',(0.3,0.5,-7.));
#1898=CARTESIAN_POINT('',(0.,0.5,-7.));
#1899=CARTESIAN_POINT('Origin',(0.3,0.500000000000001,-6.));
#1900=CARTESIAN_POINT('Origin',(0.,-0.5,-7.));
#1901=CARTESIAN_POINT('',(0.3,-0.5,-7.));
#1902=CARTESIAN_POINT('',(0.,-0.5,-7.));
#1903=CARTESIAN_POINT('',(0.3,-0.25,-7.));
#1904=CARTESIAN_POINT('Origin',(0.,-0.500000000000001,-6.));
#1905=CARTESIAN_POINT('',(0.3,-1.5,-6.));
#1906=CARTESIAN_POINT('',(0.,-1.5,-6.));
#1907=CARTESIAN_POINT('Origin',(0.3,-0.500000000000001,-6.));
#1908=CARTESIAN_POINT('Origin',(0.,-1.5,6.));
#1909=CARTESIAN_POINT('',(0.3,-1.5,6.));
#1910=CARTESIAN_POINT('',(0.,-1.5,6.));
#1911=CARTESIAN_POINT('',(0.3,-1.5,5.48));
#1912=CARTESIAN_POINT('',(0.3,-1.5,3.));
#1913=CARTESIAN_POINT('',(0.,-1.5,5.48));
#1914=CARTESIAN_POINT('Origin',(0.,-0.500000000000001,6.));
#1915=CARTESIAN_POINT('',(0.3,-0.5,7.));
#1916=CARTESIAN_POINT('',(0.,-0.5,7.));
#1917=CARTESIAN_POINT('Origin',(0.3,-0.500000000000001,6.));
#1918=CARTESIAN_POINT('Origin',(0.,0.5,7.));
#1919=CARTESIAN_POINT('',(0.3,0.5,7.));
#1920=CARTESIAN_POINT('',(0.,0.5,7.));
#1921=CARTESIAN_POINT('',(0.3,0.25,7.));
#1922=CARTESIAN_POINT('Origin',(0.,0.499999999999999,6.));
#1923=CARTESIAN_POINT('',(0.3,1.5,6.));
#1924=CARTESIAN_POINT('',(0.,1.5,6.));
#1925=CARTESIAN_POINT('Origin',(0.3,0.499999999999999,6.));
#1926=CARTESIAN_POINT('Origin',(0.,4.48,2.18));
#1927=CARTESIAN_POINT('',(0.3,4.48,2.));
#1928=CARTESIAN_POINT('',(0.,4.48,2.));
#1929=CARTESIAN_POINT('',(0.3,4.3,2.18));
#1930=CARTESIAN_POINT('Origin',(0.3,4.48,2.18));
#1931=CARTESIAN_POINT('',(0.,4.3,2.18));
#1932=CARTESIAN_POINT('Origin',(0.,5.,2.));
#1933=CARTESIAN_POINT('',(0.3,5.,2.));
#1934=CARTESIAN_POINT('',(0.,5.,2.));
#1935=CARTESIAN_POINT('',(0.3,2.5,2.));
#1936=CARTESIAN_POINT('Origin',(0.,5.,1.));
#1937=CARTESIAN_POINT('',(0.3,6.,1.));
#1938=CARTESIAN_POINT('',(0.,6.,1.));
#1939=CARTESIAN_POINT('Origin',(0.3,5.,1.));
#1940=CARTESIAN_POINT('Origin',(0.,6.,-1.));
#1941=CARTESIAN_POINT('',(0.3,6.,-1.));
#1942=CARTESIAN_POINT('',(0.,6.,-1.));
#1943=CARTESIAN_POINT('',(0.3,6.,-0.5));
#1944=CARTESIAN_POINT('Origin',(0.,5.,-1.));
#1945=CARTESIAN_POINT('',(0.3,5.,-2.));
#1946=CARTESIAN_POINT('',(0.,5.,-2.));
#1947=CARTESIAN_POINT('Origin',(0.3,5.,-1.));
#1948=CARTESIAN_POINT('Origin',(0.,-4.14,-5.15));
#1949=CARTESIAN_POINT('',(0.,-4.14,5.14));
#1950=CARTESIAN_POINT('',(0.3,-4.14,5.14));
#1951=CARTESIAN_POINT('',(0.,-4.14,5.14));
#1952=CARTESIAN_POINT('',(0.,-4.14,-5.14));
#1953=CARTESIAN_POINT('',(0.,-4.14,-2.575));
#1954=CARTESIAN_POINT('',(0.3,-4.14,-5.14));
#1955=CARTESIAN_POINT('',(0.,-4.14,-5.14));
#1956=CARTESIAN_POINT('',(0.3,-4.14,5.15));
#1957=CARTESIAN_POINT('Origin',(0.,4.15,-5.14));
#1958=CARTESIAN_POINT('',(0.,4.14,-5.14));
#1959=CARTESIAN_POINT('',(0.,2.075,-5.14));
#1960=CARTESIAN_POINT('',(0.3,4.14,-5.14));
#1961=CARTESIAN_POINT('',(0.,4.14,-5.14));
#1962=CARTESIAN_POINT('',(0.3,-4.15,-5.14));
#1963=CARTESIAN_POINT('Origin',(0.,0.,0.));
#1964=CARTESIAN_POINT('',(0.,4.14,5.14));
#1965=CARTESIAN_POINT('',(0.,-2.075,5.14));
#1966=CARTESIAN_POINT('',(0.,4.14,2.575));
#1967=CARTESIAN_POINT('',(0.,4.,-5.));
#1968=CARTESIAN_POINT('',(0.,4.,5.));
#1969=CARTESIAN_POINT('',(0.,4.,-2.5));
#1970=CARTESIAN_POINT('',(0.,-4.,5.));
#1971=CARTESIAN_POINT('',(0.,2.,5.));
#1972=CARTESIAN_POINT('',(0.,-4.,-5.));
#1973=CARTESIAN_POINT('',(0.,-4.,2.5));
#1974=CARTESIAN_POINT('',(0.,-2.,-5.));
#1975=CARTESIAN_POINT('Origin',(0.,-4.15,5.14));
#1976=CARTESIAN_POINT('',(0.3,4.14,5.14));
#1977=CARTESIAN_POINT('',(0.3,4.15,5.14));
#1978=CARTESIAN_POINT('',(0.,4.14,5.14));
#1979=CARTESIAN_POINT('Origin',(0.,4.14,5.15));
#1980=CARTESIAN_POINT('',(0.3,4.14,-5.15));
#1981=CARTESIAN_POINT('Origin',(0.,4.,-5.));
#1982=CARTESIAN_POINT('',(2.7,4.,-5.));
#1983=CARTESIAN_POINT('',(0.,4.,-5.));
#1984=CARTESIAN_POINT('',(2.7,4.,5.));
#1985=CARTESIAN_POINT('',(2.7,4.,5.));
#1986=CARTESIAN_POINT('',(0.,4.,5.));
#1987=CARTESIAN_POINT('Origin',(0.,-4.,-5.));
#1988=CARTESIAN_POINT('',(2.7,-4.,-5.));
#1989=CARTESIAN_POINT('',(0.,-4.,-5.));
#1990=CARTESIAN_POINT('',(2.7,4.,-5.));
#1991=CARTESIAN_POINT('Origin',(0.,-4.,5.));
#1992=CARTESIAN_POINT('',(2.7,-4.,5.));
#1993=CARTESIAN_POINT('',(0.,-4.,5.));
#1994=CARTESIAN_POINT('',(2.7,-4.,-5.));
#1995=CARTESIAN_POINT('Origin',(0.,4.,5.));
#1996=CARTESIAN_POINT('',(2.7,-4.,5.));
#1997=CARTESIAN_POINT('Origin',(2.7,0.,0.));
#1998=CARTESIAN_POINT('Origin',(0.3,0.,0.));
#1999=CARTESIAN_POINT('',(0.3,-4.48,2.));
#2000=CARTESIAN_POINT('',(0.3,-2.24,2.));
#2001=CARTESIAN_POINT('',(0.3,-4.3,2.18));
#2002=CARTESIAN_POINT('Origin',(0.3,-4.48,2.18));
#2003=CARTESIAN_POINT('',(0.3,-4.3,5.3));
#2004=CARTESIAN_POINT('',(0.3,-4.3,2.65));
#2005=CARTESIAN_POINT('',(0.3,-1.68,5.3));
#2006=CARTESIAN_POINT('',(0.3,-0.84,5.3));
#2007=CARTESIAN_POINT('Origin',(0.3,-1.68,5.48));
#2008=CARTESIAN_POINT('',(0.3,1.5,5.48));
#2009=CARTESIAN_POINT('',(0.3,1.5,2.74));
#2010=CARTESIAN_POINT('',(0.3,1.68,5.3));
#2011=CARTESIAN_POINT('Origin',(0.3,1.68,5.48));
#2012=CARTESIAN_POINT('',(0.3,4.3,5.3));
#2013=CARTESIAN_POINT('',(0.3,2.15,5.3));
#2014=CARTESIAN_POINT('',(0.3,4.3,1.09));
#2015=CARTESIAN_POINT('',(0.3,4.48,-2.));
#2016=CARTESIAN_POINT('',(0.3,2.24,-2.));
#2017=CARTESIAN_POINT('',(0.3,4.3,-2.18));
#2018=CARTESIAN_POINT('Origin',(0.3,4.48,-2.18));
#2019=CARTESIAN_POINT('',(0.3,4.3,-5.3));
#2020=CARTESIAN_POINT('',(0.3,4.3,-2.65));
#2021=CARTESIAN_POINT('',(0.3,0.84,-5.3));
#2022=CARTESIAN_POINT('',(0.3,-1.5,-5.48));
#2023=CARTESIAN_POINT('',(0.3,-1.5,-2.74));
#2024=CARTESIAN_POINT('',(0.3,-1.68,-5.3));
#2025=CARTESIAN_POINT('Origin',(0.3,-1.68,-5.48));
#2026=CARTESIAN_POINT('',(0.3,-4.3,-5.3));
#2027=CARTESIAN_POINT('',(0.3,-2.15,-5.3));
#2028=CARTESIAN_POINT('',(0.3,-4.3,-2.18));
#2029=CARTESIAN_POINT('',(0.3,-4.3,-1.09));
#2030=CARTESIAN_POINT('Origin',(0.3,-4.48,-2.18));
#2031=CARTESIAN_POINT('Origin',(0.,4.3,2.18));
#2032=CARTESIAN_POINT('',(3.,4.3,5.3));
#2033=CARTESIAN_POINT('',(0.,4.3,5.3));
#2034=CARTESIAN_POINT('',(3.,4.3,-5.3));
#2035=CARTESIAN_POINT('',(3.,4.3,-2.18));
#2036=CARTESIAN_POINT('',(0.,4.3,-5.3));
#2037=CARTESIAN_POINT('',(0.,4.3,-2.18));
#2038=CARTESIAN_POINT('Origin',(0.,1.68,5.48));
#2039=CARTESIAN_POINT('',(0.,1.68,5.3));
#2040=CARTESIAN_POINT('',(0.,1.5,5.48));
#2041=CARTESIAN_POINT('Origin',(0.,1.5,5.48));
#2042=CARTESIAN_POINT('Origin',(0.,-1.68,5.48));
#2043=CARTESIAN_POINT('',(0.,-1.68,5.3));
#2044=CARTESIAN_POINT('Origin',(0.,-1.68,5.3));
#2045=CARTESIAN_POINT('',(3.,-4.3,5.3));
#2046=CARTESIAN_POINT('',(0.,-4.3,5.3));
#2047=CARTESIAN_POINT('',(3.,1.68,5.3));
#2048=CARTESIAN_POINT('Origin',(0.,-4.48,2.18));
#2049=CARTESIAN_POINT('',(0.,-4.3,2.18));
#2050=CARTESIAN_POINT('',(0.,-4.48,2.));
#2051=CARTESIAN_POINT('Origin',(0.,-4.48,2.));
#2052=CARTESIAN_POINT('Origin',(0.,4.48,-2.));
#2053=CARTESIAN_POINT('',(0.,4.48,-2.));
#2054=CARTESIAN_POINT('Origin',(0.,4.48,-2.18));
#2055=CARTESIAN_POINT('Origin',(0.,1.68,-5.3));
#2056=CARTESIAN_POINT('',(3.,-4.3,-5.3));
#2057=CARTESIAN_POINT('',(3.,-1.68,-5.3));
#2058=CARTESIAN_POINT('',(0.,-4.3,-5.3));
#2059=CARTESIAN_POINT('',(0.,-1.68,-5.3));
#2060=CARTESIAN_POINT('Origin',(0.,-1.5,-5.48));
#2061=CARTESIAN_POINT('',(0.,-1.5,-5.48));
#2062=CARTESIAN_POINT('Origin',(0.,-1.68,-5.48));
#2063=CARTESIAN_POINT('Origin',(0.,-4.3,-2.18));
#2064=CARTESIAN_POINT('',(0.,-4.3,-2.18));
#2065=CARTESIAN_POINT('',(3.,-4.3,2.18));
#2066=CARTESIAN_POINT('Origin',(0.,-4.48,-2.18));
#2067=CARTESIAN_POINT('Origin',(3.,0.,0.));
#2068=UNCERTAINTY_MEASURE_WITH_UNIT(LENGTH_MEASURE(0.001),#2072,
'DISTANCE_ACCURACY_VALUE',
'Maximum model space distance between geometric entities at asserted c
onnectivities');
#2069=UNCERTAINTY_MEASURE_WITH_UNIT(LENGTH_MEASURE(0.001),#2072,
'DISTANCE_ACCURACY_VALUE',
'Maximum model space distance between geometric entities at asserted c
onnectivities');
#2070=(
GEOMETRIC_REPRESENTATION_CONTEXT(3)
GLOBAL_UNCERTAINTY_ASSIGNED_CONTEXT((#2068))
GLOBAL_UNIT_ASSIGNED_CONTEXT((#2072,#2074,#2075))
REPRESENTATION_CONTEXT('','3D')
);
#2071=(
GEOMETRIC_REPRESENTATION_CONTEXT(3)
GLOBAL_UNCERTAINTY_ASSIGNED_CONTEXT((#2069))
GLOBAL_UNIT_ASSIGNED_CONTEXT((#2072,#2074,#2075))
REPRESENTATION_CONTEXT('','3D')
);
#2072=(
LENGTH_UNIT()
NAMED_UNIT(*)
SI_UNIT(.CENTI.,.METRE.)
);
#2073=(
LENGTH_UNIT()
NAMED_UNIT(*)
SI_UNIT($,.METRE.)
);
#2074=(
NAMED_UNIT(*)
PLANE_ANGLE_UNIT()
SI_UNIT($,.RADIAN.)
);
#2075=(
NAMED_UNIT(*)
SI_UNIT($,.STERADIAN.)
SOLID_ANGLE_UNIT()
);
#2076=SHAPE_DEFINITION_REPRESENTATION(#2077,#2078);
#2077=PRODUCT_DEFINITION_SHAPE('',$,#2080);
#2078=SHAPE_REPRESENTATION('',(#1208),#2070);
#2079=PRODUCT_DEFINITION_CONTEXT('part definition',#2084,'design');
#2080=PRODUCT_DEFINITION('mold box down','mold box down v2',#2081,#2079);
#2081=PRODUCT_DEFINITION_FORMATION('',$,#2086);
#2082=PRODUCT_RELATED_PRODUCT_CATEGORY('mold box down v2',
'mold box down v2',(#2086));
#2083=APPLICATION_PROTOCOL_DEFINITION('international standard',
'automotive_design',2009,#2084);
#2084=APPLICATION_CONTEXT(
'Core Data for Automotive Mechanical Design Process');
#2085=PRODUCT_CONTEXT('part definition',#2084,'mechanical');
#2086=PRODUCT('mold box down','mold box down v2',$,(#2085));
#2087=PRESENTATION_STYLE_ASSIGNMENT((#2088));
#2088=SURFACE_STYLE_USAGE(.BOTH.,#2089);
#2089=SURFACE_SIDE_STYLE('',(#2090));
#2090=SURFACE_STYLE_FILL_AREA(#2091);
#2091=FILL_AREA_STYLE('Steel - Satin',(#2092));
#2092=FILL_AREA_STYLE_COLOUR('Steel - Satin',#2093);
#2093=COLOUR_RGB('Steel - Satin',0.627450980392157,0.627450980392157,0.627450980392157);
ENDSEC;
END-ISO-10303-21;
